<?xml version="1.0" encoding="UTF-8" standalone="no"?>
<!-- Created with Inkscape (http://www.inkscape.org/) -->

<svg
   xmlns:dc="http://purl.org/dc/elements/1.1/"
   xmlns:cc="http://creativecommons.org/ns#"
   xmlns:rdf="http://www.w3.org/1999/02/22-rdf-syntax-ns#"
   xmlns:svg="http://www.w3.org/2000/svg"
   xmlns="http://www.w3.org/2000/svg"
   xmlns:sodipodi="http://sodipodi.sourceforge.net/DTD/sodipodi-0.dtd"
   xmlns:inkscape="http://www.inkscape.org/namespaces/inkscape"
   version="1.1"
   id="svg10"
   width="851"
   height="951"
   viewBox="0 0 851 951"
   sodipodi:docname="css.svg"
   inkscape:version="0.92.4 (5da689c313, 2019-01-14)">
  <metadata
     id="metadata16">
    <rdf:RDF>
      <cc:Work
         rdf:about="">
        <dc:format>image/svg+xml</dc:format>
        <dc:type
           rdf:resource="http://purl.org/dc/dcmitype/StillImage" />
        <dc:title></dc:title>
      </cc:Work>
    </rdf:RDF>
  </metadata>
  <defs
     id="defs14" />
  <sodipodi:namedview
     pagecolor="#ffffff"
     bordercolor="#666666"
     borderopacity="1"
     objecttolerance="10"
     gridtolerance="10"
     guidetolerance="10"
     inkscape:pageopacity="0"
     inkscape:pageshadow="2"
     inkscape:window-width="1920"
     inkscape:window-height="1017"
     id="namedview12"
     showgrid="false"
     inkscape:zoom="0.86014721"
     inkscape:cx="425.5"
     inkscape:cy="475.5"
     inkscape:window-x="-8"
     inkscape:window-y="-8"
     inkscape:window-maximized="1"
     inkscape:current-layer="svg10" />
  <g
     id="g20"
     transform="translate(-1.1625937,1.1625917)">
    <path
       style="fill:#ececec"
       d="m 420.5,950.04239 c -1.1,-0.496 -4.025,-0.94909 -6.5,-1.00686 C 408.13661,948.89866 74.739676,853.62483 73.828597,851.82578 72.415681,849.03578 2.0949897,39.806674 1.5660164,20.25 L 1.0453381,1 H 426.1712 851.29706 l -0.71883,8.75 c -0.39536,4.8125 -1.06375,18.425 -1.48531,30.25 -0.77997,21.878785 -69.55434,809.1238 -70.92181,811.82632 -0.88911,1.75715 -330.35978,96.0269 -340.17111,97.33141 -12.63674,1.68017 -15.42334,1.82104 -17.5,0.88466 z M 526,719.25937 c 52.525,-17.29826 95.6257,-31.57138 95.77934,-31.71805 0.15364,-0.14667 4.54393,-69.96597 9.7562,-155.154 C 644.43226,321.60665 650.81444,218.89447 651.55203,210.25 L 652.17064,203 H 539.08532 426 v 48 48 h 60.87756 c 48.3977,0 61.09639,0.26369 61.94506,1.28627 1.28201,1.54472 -5.57909,99.46803 -7.10916,101.46373 -0.74701,0.97434 -13.61165,1.25 -58.3359,1.25 H 426 v 48 48 h 54.37756 c 47.96647,0 54.52968,0.1833 55.66786,1.55473 1.91708,2.30994 -5.25138,111.07981 -7.4667,113.29512 -0.82907,0.82908 -24.13596,9.21896 -51.79307,18.64419 L 426.5,649.63081 l -0.25912,51.25488 -0.25912,51.25487 2.25912,-0.7149 C 429.4834,751.03246 473.475,736.55763 526,719.25937 Z"
       id="path34"
       inkscape:connector-curvature="0" />
    <path
       style="fill:#a3cfe8"
       d="m 418.5,949.87428 c -2.2,-0.53763 -80.49054,-22.74183 -173.97897,-49.34266 L 74.54206,852.16646 38.430157,442.83323 C 18.568611,217.69995 2.0078406,26.1875 1.6284463,17.25 L 0.93863862,1 H 426.11785 851.29706 l -0.67352,8.75 c -0.37044,4.8125 -1.12409,16.85 -1.67478,26.75 -0.55069,9.9 -16.86122,197.47432 -36.24561,416.83183 L 777.4588,852.16366 608.44109,900.44771 c -92.95973,26.55623 -170.80046,48.56939 -172.97939,48.91814 -8.1838,1.30986 -13.08147,1.45667 -16.9617,0.50843 z M 524.04618,720.91624 c 53.5996,-17.64607 97.80355,-32.41829 98.23099,-32.82717 0.42744,-0.40887 5.04273,-70.45868 10.2562,-155.66624 C 644.82607,331.51412 651.78891,219.42154 652.57681,209.75 L 653.20816,202 H 425.5727 c -199.28056,0 -227.70568,0.18297 -228.19915,1.46893 -0.66111,1.72282 6.23711,94.09209 7.13543,95.5456 0.3962,0.64107 60.30676,0.98547 171.42759,0.98547 135.43593,0 171.03302,0.25892 171.85399,1.25 1.2632,1.52493 -5.54965,97.57175 -7.05779,99.5 -0.77189,0.9869 -24.84753,1.25 -114.3866,1.25 -102.43853,0 -113.46759,0.15284 -114.01525,1.58003 -0.33348,0.86902 0.46814,22.80652 1.78138,48.75 L 316.5,499.5 425.39109,500 c 97.38834,0.44718 108.99543,0.66541 109.87872,2.06583 1.46502,2.32273 -5.75692,109.89187 -7.48263,111.45222 -0.70795,0.6401 -24.01507,8.88118 -51.79359,18.3135 l -50.50642,17.14968 -49.99358,-17.04375 c -27.49648,-9.37407 -50.57025,-17.61257 -51.27505,-18.30779 -0.92671,-0.91411 -1.61878,-9.55032 -2.5,-31.19686 L 320.5,552.5 271.72227,552.24047 c -43.17568,-0.22972 -48.84566,-0.0825 -49.36925,1.28195 -0.32533,0.84781 1.0299,31.09128 3.01162,67.2077 2.61485,47.65484 3.95042,66.00182 4.86925,66.88973 0.94479,0.91299 192.86438,64.92342 195.81229,65.30876 0.30041,0.0393 44.40041,-14.3663 98,-32.01237 z"
       id="path32"
       inkscape:connector-curvature="0" />
    <path
       style="fill:#57aad8"
       d="M 249,901.11233 75.5,851.4305 38.319712,430.96525 C 17.870554,199.70936 1.1080538,8.3625 1.0697121,5.75 L 1,1 h 425 425 l -0.0697,4.75 c -0.0383,2.6125 -16.80084,193.95908 -37.25,425.21462 L 776.5,851.42924 l -174,49.7517 c -95.7,27.36343 -175.35,49.72054 -177,49.68246 -1.65,-0.0381 -81.075,-22.42606 -176.5,-49.75107 z m 275.04618,-179.191 c 53.5996,-17.64326 98.02813,-32.63364 98.73006,-33.31195 0.93825,-0.90668 3.78691,-42.26516 10.75665,-156.17133 5.21423,-85.21593 11.94642,-194.25323 14.96043,-242.30512 3.014,-48.05189 5.23445,-87.76439 4.93433,-88.25 C 653.11468,201.37653 555.66104,201 424.9096,201 c -208.62084,0 -228.0248,0.13663 -228.59004,1.60964 -0.70062,1.82576 6.23458,95.85993 7.18303,97.39455 C 203.90729,300.659 262.80477,301 375.5,301 c 94.26008,0 171.59479,0.34435 171.8549,0.76522 0.48872,0.79077 -6.19718,95.7609 -6.89814,97.98478 C 540.1446,400.74039 516.37342,401 426,401 c -105.45083,0 -114.11097,0.1256 -114.70114,1.66356 -0.3511,0.91495 0.45052,23.30245 1.78139,49.75 L 315.5,500.5 425,501 l 109.5,0.5 0.27738,3 c 0.15256,1.65 -1.27893,26.35291 -3.18108,54.89536 -2.52091,37.82722 -3.816,52.24819 -4.77738,53.19687 -0.72541,0.71582 -23.70383,8.93291 -51.06317,18.2602 l -49.74424,16.95869 -50.75576,-17.29853 c -34.89405,-11.89256 -50.85193,-17.7755 -51.06352,-18.82477 -0.16927,-0.83944 -0.84427,-14.7251 -1.5,-30.85703 L 321.5,551.5 271.7222,551.24065 c -45.42969,-0.2367 -49.83295,-0.1156 -50.4093,1.38632 -1.15657,3.01398 6.50477,134.62399 7.91621,135.98809 1.11725,1.0798 193.63951,65.13082 196.31707,65.31355 0.57541,0.0393 44.90041,-14.36401 98.5,-32.00728 z"
       id="path30"
       inkscape:connector-curvature="0" />
    <path
       style="fill:#0299e3"
       d="m 421,950.32481 c -0.825,-0.34358 -1.725,-0.92354 -2,-1.28878 -0.275,-0.36525 -77.47034,-22.64172 -171.5452,-49.50328 L 76.409597,850.69357 39.499998,432.09678 C 19.199719,201.86855 2.2325593,13.35 1.7951995,13.166667 1.3578398,12.983333 1,10.170833 1,6.9166667 V 1 h 425.12865 425.12866 l -0.72806,11.25 c -0.40043,6.1875 -1.03929,11.475 -1.41969,11.75 -0.3804,0.275 -17.07792,186.39358 -37.1056,413.59684 L 775.59,850.69368 604.545,899.53281 c -94.07475,26.86152 -171.33453,49.26689 -171.68841,49.78971 -0.76798,1.13462 -9.72146,1.8915 -11.85659,1.00229 z M 525.04618,722.92133 c 53.5996,-17.64326 98.02813,-32.63364 98.73006,-33.31195 0.93825,-0.90668 3.78693,-42.26522 10.75671,-156.17133 5.21425,-85.21593 11.96326,-194.52284 14.99779,-242.90424 3.03452,-48.38141 5.29563,-88.54391 5.02467,-89.25 C 654.15637,200.24392 610.66639,200 425.65383,200 c -206.46996,0 -228.53427,0.15101 -229.71372,1.57217 -1.0791,1.30023 -0.67725,9.87616 2.32335,49.58222 2.28283,30.20806 4.06443,48.53577 4.80478,49.42783 1.00718,1.21358 25.77941,1.41778 171.99519,1.41778 93.95019,0 171.00799,0.3375 171.23954,0.75 0.4535,0.80788 -6.18438,93.92264 -6.84356,96 C 539.14515,399.74038 515.37201,400 425,400 c -106.38478,0 -114.10664,0.11432 -114.71445,1.69826 -0.95245,2.48203 3.83264,97.5754 4.98427,99.05174 0.76938,0.98632 23.84356,1.25 109.38401,1.25 91.63597,0 108.49148,0.21509 108.94241,1.39021 0.75949,1.97918 -6.36466,107.80181 -7.31192,108.61188 C 524.9794,613.11802 427.49707,646 425.49368,646 c -2.19979,0 -98.63179,-32.75537 -99.77888,-33.89221 -0.43186,-0.428 -1.28717,-14.01485 -1.90069,-30.19299 -0.61352,-16.17814 -1.55278,-29.9773 -2.08724,-30.6648 C 320.97284,550.28007 309.71915,550 271.5,550 c -43.6026,0 -49.4051,0.18073 -50.56211,1.57483 -1.08047,1.3019 -0.67621,13.13938 2.33254,68.3009 2.00174,36.69933 3.93161,67.4872 4.28859,68.41748 0.4677,1.21881 23.60178,9.25516 82.79502,28.76147 45.18028,14.88853 89.34596,29.48147 98.14596,32.42874 8.8,2.94728 16.69578,5.39421 17.54618,5.43763 0.85041,0.0434 45.40041,-14.35645 99,-31.99972 z"
       id="path28"
       inkscape:connector-curvature="0" />
    <path
       style="fill:#0b88cd"
       d="m 421,950.32481 c -0.825,-0.34358 -1.725,-0.92354 -2,-1.28878 -0.275,-0.36525 -77.47034,-22.64172 -171.5452,-49.50328 L 76.409597,850.69357 39.499998,432.09678 C 19.199719,201.86855 2.2325593,13.35 1.7951995,13.166667 1.3578398,12.983333 1,10.170833 1,6.9166667 V 1 h 425.12865 425.12866 l -0.72806,11.25 c -0.40043,6.1875 -1.03929,11.475 -1.41969,11.75 -0.3804,0.275 -17.07792,186.39358 -37.1056,413.59684 L 775.59,850.69368 604.545,899.53281 c -94.07475,26.86152 -171.33453,49.26689 -171.68841,49.78971 -0.76798,1.13462 -9.72146,1.8915 -11.85659,1.00229 z M 567.84718,832.87132 C 643.38813,811.30348 705.35287,793.17173 705.54659,792.57853 705.74031,791.98534 719.64939,633.1 736.45567,439.5 753.26194,245.9 767.28656,85.1375 767.62149,82.25 L 768.23045,77 H 597.61522 427 V 138.5 200 H 312.12244 c -103.23703,0 -115.00976,0.15931 -116.18233,1.57217 -1.0791,1.30023 -0.67725,9.87616 2.32335,49.58222 2.28283,30.20806 4.06443,48.53577 4.80478,49.42783 C 204.07093,301.7904 220.71096,302 315.62244,302 H 427 v 49 49 h -58.03138 c -53.67192,0 -58.08035,0.12758 -58.68307,1.69826 -0.95245,2.48203 3.83264,97.5754 4.98427,99.05174 0.75916,0.97321 13.23729,1.25 56.35262,1.25 H 427 v 72 c 0,66.82692 -0.12098,72 -1.68383,72 -2.0811,0 -98.51323,-32.81379 -99.60137,-33.89221 -0.43186,-0.428 -1.28717,-14.01485 -1.90069,-30.19299 -0.61352,-16.17814 -1.55278,-29.9773 -2.08724,-30.6648 C 320.97284,550.28007 309.71915,550 271.5,550 c -43.6026,0 -49.4051,0.18073 -50.56211,1.57483 -1.08047,1.3019 -0.67621,13.13938 2.33254,68.3009 2.00174,36.69933 3.93161,67.4872 4.28859,68.41748 0.5931,1.5456 38.8496,14.45996 182.19098,61.50277 l 17.25,5.66123 v 58.83878 c 0,55.57012 0.0972,58.80964 1.75,58.31419 0.9625,-0.28853 63.55623,-18.17102 139.09718,-39.73886 z"
       id="path26"
       inkscape:connector-curvature="0" />
    <path
       style="fill:#037ac0"
       d="m 420.60485,950.28272 c -1.20035,-0.30736 -1.48373,-0.73955 -0.77295,-1.17883 0.61721,-0.38145 -75.92997,-22.68099 -170.10485,-49.55452 C 155.55217,872.67583 78.203394,850.42101 77.840876,850.0942 77.254822,849.56587 2.9348105,10.812985 2.9812307,5.2511709 L 3,3.0023419 426.25,2.7499969 849.5,2.4976519 425.7999,2.2488259 2.0998077,2 1.7389883,7.75 1.3781689,13.5 1.1890845,7.25 1,1 h 425 425 l -0.006,3.25 c -0.003,1.7875 -0.33952,7.075 -0.74715,11.75 -0.73709,8.453374 -0.74391,8.469831 -1.24401,3 -0.30516,-3.337749 -14.98591,158.83109 -37.34261,412.5 -20.26187,229.9 -37.13687,418.26739 -37.5,418.5942 -0.36313,0.32681 -77.71241,22.58163 -171.88729,49.45517 -94.17488,26.87353 -170.74933,49.15621 -170.16546,49.51706 2.32666,1.43796 -6.84822,2.40811 -11.50264,1.21629 z M 567.34402,834.32989 c 76.36712,-21.81857 139.00805,-40.15607 139.20206,-40.75 C 706.84921,792.6519 769.05924,78.802549 769.01585,76.75 769.00713,76.3375 691.825,76 597.5,76 H 426 V 137.5 199 H 311.57143 C 185.83764,199 194,198.59168 194,204.88155 c 0,1.50629 1.575,23.35257 3.5,48.5473 1.925,25.19473 3.5,45.94803 3.5,46.11844 0,0.17042 0.70714,1.017 1.57143,1.88128 1.40968,1.40968 12.98918,1.57143 112.5,1.57143 L 426,303 v 48 48 l -57.25,0.0153 c -33.09897,0.009 -57.86354,0.40343 -58.70439,0.93534 -1.26794,0.80208 -1.14514,7.29163 0.95787,50.62113 1.84862,38.08792 2.73088,50.01972 3.77582,51.06466 C 315.89761,502.75475 326.02223,503 371.07143,503 H 426 v 71 c 0,66.95955 -0.0996,70.99893 -1.75,70.98117 -0.9625,-0.0104 -23.35,-7.38531 -49.75,-16.38879 l -48,-16.36997 -0.63599,-6.36121 c -0.34979,-3.49866 -0.9703,-17.07457 -1.37891,-30.16868 -0.58215,-18.65548 -1.05508,-24.11965 -2.18544,-25.25 C 321.08194,549.2248 313.16556,549 271.5,549 c -55.09462,0 -52.5,-0.34405 -52.5,6.96149 0,11.46901 7.16495,131.47821 7.93567,132.91831 0.63258,1.18198 30.79804,11.54594 97.73965,33.58043 53.25357,17.52894 97.83718,32.31855 99.07468,32.8658 l 2.25,0.995 v 58.83949 C 426,861.4988 426.26502,874 427.24735,874 c 0.68604,0 63.72954,-17.85155 140.09667,-39.67011 z"
       id="path24"
       inkscape:connector-curvature="0" />
    <path
       style="fill:#0176bc"
       d="m 420.5,950.05432 c -1.87002,-0.75278 -1.84121,-0.82946 0.44323,-1.17971 1.34377,-0.20604 -75.40109,-22.60536 -170.54415,-49.77628 L 77.411711,849.69665 40.165909,427.09833 C 19.680718,194.66925 2.9380828,4.1630269 2.9600534,3.7511709 2.982024,3.339315 193.4625,2.8887866 426.25,2.7499969 L 849.5,2.4976519 425.7999,2.2488259 2.0998077,2 1.7389883,7.75 1.3781689,13.5 1.1890845,7.25 1,1 h 425 425 l -0.006,3.25 c -0.003,1.7875 -0.3408,7.075 -0.75,11.75 L 849.5,24.5 849,18 c -0.33311,-4.330443 -12.83455,133.38567 -37.45435,412.5979 l -36.95436,419.0979 -172.8981,49.39185 C 489.8328,931.04284 429.62558,948.67956 431.14755,949.04622 l 2.35245,0.56672 -2.5,0.67988 c -3.2498,0.88378 -7.97895,0.77636 -10.5,-0.2385 z M 567.75435,835.38971 c 76.31011,-21.78566 139.17367,-40.01119 139.69681,-40.50117 0.52314,-0.48997 14.76675,-159.62784 31.65247,-353.6397 C 755.98936,247.23698 770.06454,85.935355 770.38183,82.800788 771.37137,73.024836 790.52741,74 597.5,74 443.9632,74 426.9877,74.155156 425.57143,75.571429 424.17725,76.965609 424,84.014768 424,138.06721 v 60.92435 L 309.25,199.24578 194.5,199.5 194.20678,204 c -0.34126,5.2372 6.5148,96.7405 7.34968,98.09136 C 201.88774,302.62738 247.61343,303 313.05902,303 H 424 v 48 48 h -57.44098 c -31.59254,0 -57.62146,0.3375 -57.84204,0.75 -0.22058,0.4125 0.76536,23.7 2.19098,51.75 l 2.59204,51 55.25,0.25847 55.25,0.25846 v 70.93956 70.93955 l -16.75,-5.80137 c -9.2125,-3.19075 -31.15,-10.66995 -48.75,-16.62045 -17.6,-5.95049 -32.12086,-10.89984 -32.26857,-10.99855 -0.14771,-0.0987 -0.82271,-14.08362 -1.5,-31.07757 L 323.5,549.5 h -52 -52 l -0.28855,5.5 c -0.45469,8.66674 6.71946,134.33091 7.72642,135.33787 0.49677,0.49677 44.92647,15.40706 98.73267,33.13398 l 97.82946,32.23077 0.51985,59.39869 c 0.28591,32.66928 0.62341,59.51119 0.75,59.64869 0.92524,1.00503 19.62591,-4.14283 142.9845,-39.36029 z"
       id="path22"
       inkscape:connector-curvature="0" />
  </g>
  <path
     style="fill:#ffffff;stroke-width:1.1625917"
     d="m 424.73458,738.07133 c 0.41579,-8.15267 0.75811,-31.1084 0.76071,-51.01273 l 0.005,-36.1897 12.49786,-4.28776 c 89.67705,-30.7663 88.82464,-30.43504 89.96546,-34.96194 2.13445,-8.46966 7.2297,-86.29355 6.62082,-101.12519 l -0.38182,-9.30073 -54.64181,-0.5813 -54.64181,-0.5813 -0.30354,-47.9569 -0.30355,-47.95691 55.52665,-0.0159 c 30.53966,-0.009 56.6739,-0.32352 58.07608,-0.69953 1.56013,-0.41836 2.78509,-1.8784 3.15676,-3.76254 1.32241,-6.70404 6.45737,-78.87774 6.48401,-91.13495 l 0.017,-7.83721 -61.32671,-0.30093 -61.32672,-0.30093 -0.30354,-47.9569 -0.30355,-47.95691 H 537.7352 651.15851 l -0.68016,6.6849 c -0.3741,3.6767 -3.27308,48.79979 -6.44219,100.27354 -3.1691,51.47374 -9.17318,149.04425 -13.34239,216.82335 -7.80013,126.8073 -9.96311,160.22248 -10.40417,160.73103 -0.45368,0.52308 -194.07419,64.23046 -195.21029,64.23046 -0.67421,0 -0.80763,-5.74159 -0.34446,-14.82305 z"
     id="path38"
     inkscape:connector-curvature="0" />
</svg>
