<?xml version="1.0" encoding="UTF-8" standalone="no"?>
<!-- Created with Inkscape (http://www.inkscape.org/) -->

<svg
   xmlns:dc="http://purl.org/dc/elements/1.1/"
   xmlns:cc="http://creativecommons.org/ns#"
   xmlns:rdf="http://www.w3.org/1999/02/22-rdf-syntax-ns#"
   xmlns:svg="http://www.w3.org/2000/svg"
   xmlns="http://www.w3.org/2000/svg"
   xmlns:sodipodi="http://sodipodi.sourceforge.net/DTD/sodipodi-0.dtd"
   xmlns:inkscape="http://www.inkscape.org/namespaces/inkscape"
   version="1.1"
   id="svg10"
   width="512"
   height="512"
   viewBox="0 0 512 512"
   sodipodi:docname="html5.svg"
   inkscape:version="0.92.4 (5da689c313, 2019-01-14)">
  <metadata
     id="metadata16">
    <rdf:RDF>
      <cc:Work
         rdf:about="">
        <dc:format>image/svg+xml</dc:format>
        <dc:type
           rdf:resource="http://purl.org/dc/dcmitype/StillImage" />
        <dc:title></dc:title>
      </cc:Work>
    </rdf:RDF>
  </metadata>
  <defs
     id="defs14" />
  <sodipodi:namedview
     pagecolor="#ffffff"
     bordercolor="#666666"
     borderopacity="1"
     objecttolerance="10"
     gridtolerance="10"
     guidetolerance="10"
     inkscape:pageopacity="0"
     inkscape:pageshadow="2"
     inkscape:window-width="1920"
     inkscape:window-height="1017"
     id="namedview12"
     showgrid="false"
     inkscape:zoom="1.5976562"
     inkscape:cx="256"
     inkscape:cy="256"
     inkscape:window-x="-8"
     inkscape:window-y="-8"
     inkscape:window-maximized="1"
     inkscape:current-layer="svg10" />
  <g
     id="g20"
     transform="translate(1.2518297)">
    <path
       style="fill:#e9e9e9"
       d="m 250,511.0523 c -1.375,-0.46912 -3.85,-0.89529 -5.5,-0.94706 -1.65,-0.0518 -41.41241,-10.76 -88.36092,-23.79607 C 83.357144,466.1 70.653682,462.3046 69.933433,460.55361 68.685186,457.51901 28.695408,5.3497263 29.419963,2.4628697 L 30.038104,0 H 256 481.9619 l 0.62032,2.4715595 c 0.71292,2.840503 -39.28035,454.9862705 -40.51542,458.0489505 -0.68949,1.70978 -13.79055,5.62148 -85.1908,25.43617 -46.4068,12.87861 -86.851,23.78222 -89.876,24.23025 -10.14842,1.50304 -14.48404,1.72374 -17,0.86537 z m 63.58211,-114.48128 c 30.58506,-8.48594 55.83569,-15.65548 56.11251,-15.93231 0.49309,-0.49309 15.23686,-162.47287 15.28229,-167.89606 L 385,209.9853 320.75,210.24265 256.5,210.5 l -0.26653,26.21257 -0.26653,26.21257 34.46768,0.28743 c 22.13433,0.18458 34.8392,0.65936 35.50594,1.32684 1.30955,1.311 -4.79513,71.87945 -6.40902,74.08657 -0.63226,0.86467 -12.7354,4.65763 -28.56434,8.95168 -15.10696,4.0982 -29.1547,7.9121 -31.2172,8.47535 l -3.75,1.02408 v 27.46145 C 256,401.92827 256.36179,412 256.98646,412 c 0.54256,0 26.0106,-6.94304 56.59565,-15.42898 z M 391.05966,146.75 c 0.0328,-1.2375 1.0576,-13.1625 2.2773,-26.5 L 395.55462,96 H 325.77731 256 v 26.5 26.5 h 67.5 67.5 l 0.0597,-2.25 z"
       id="path34"
       inkscape:connector-curvature="0" />
    <path
       style="fill:#f3c6b7"
       d="M 248.5,510.78861 C 235.80223,507.74543 71.606346,462.00484 70.931585,461.32279 69.980211,460.36114 29.043429,3.1045617 29.742676,1.25 30.117801,0.2550824 76.28921,0 256,0 c 179.71256,0 225.88152,0.25507259 226.254,1.25 0.49562,1.3238231 -39.75437,454.62318 -40.70322,458.40371 -0.30549,1.21714 -1.34188,2.44883 -2.3031,2.73709 -13.86395,4.15757 -169.80966,46.90843 -175.25711,48.04488 -8.2578,1.72274 -9.64328,1.75431 -15.49057,0.35293 z m 64.74524,-113.3676 c 30.94012,-8.56844 56.56906,-15.88094 56.9532,-16.25 C 370.70667,380.68273 386,215.73049 386,210.737 386,210.33165 339.90156,210 283.55902,210 c -63.86048,0 -102.66285,-0.35898 -103.03008,-0.95318 -0.324,-0.52424 -1.73743,-13.62738 -3.14094,-29.11808 -1.90368,-21.01105 -2.26349,-28.45241 -1.41661,-29.29682 C 176.80227,149.80346 205.8453,149.5 284.30331,149.5 H 391.5 l 2.17492,-23.5 c 1.19621,-12.925 2.20871,-25.1875 2.25,-27.25 L 396,95 H 256.46862 c -118.122,0 -139.61314,0.213037 -140.06418,1.388427 -0.49363,1.286392 13.13642,160.349323 14.16979,165.361573 l 0.46387,2.25 96.23095,0.0153 c 52.95465,0.008 96.84978,0.40729 97.60701,0.88693 1.15637,0.73246 0.86631,6.59741 -1.81678,36.73469 -1.98986,22.35075 -3.63866,36.28769 -4.37606,36.99004 C 317.37678,339.87131 258.12553,356 254.8607,356 250.87396,356 193.48232,339.9249 192.41553,338.50943 191.57369,337.39242 187.87904,302.19972 187.979,296.25 187.99529,295.28035 181.94453,295 161,295 h -27 v 3.24176 c 0,4.92839 7.05976,82.15133 7.55565,82.64722 0.50936,0.50937 112.35668,31.86373 114.18959,32.01098 0.68488,0.055 26.55988,-6.9105 57.5,-15.47895 z"
       id="path32"
       inkscape:connector-curvature="0" />
    <path
       style="fill:#eead99"
       d="M 251.5,511.27093 C 245.28528,509.72636 79.711389,463.67302 75.801801,462.40158 71.361812,460.95765 71.073243,460.64357 70.551207,456.68684 69.974543,452.31605 30,3.3107272 30,1.2042541 30,0.26880102 80.445361,0 256,0 c 180.13411,0 225.9997,0.25368301 225.99854,1.25 -0.002,1.8540682 -39.81976,448.37965 -40.52126,454.41663 -0.4012,3.45271 -1.14068,5.37396 -2.22916,5.79165 -2.14859,0.82449 -165.56128,46.14948 -175.24812,48.60773 -7.66378,1.94485 -9.0033,2.07397 -12.5,1.20492 z m 61.35368,-112.91299 c 31.15548,-8.60313 57.15425,-16.14063 57.77506,-16.75 1.17315,-1.15153 16.68051,-170.29855 15.75084,-171.80279 C 386.10589,209.36232 339.99888,209 283.91954,209 H 181.95712 l -0.91326,-2.25 c -1.167,-2.87512 -5.43181,-53.29663 -4.67485,-55.26923 C 176.86594,150.18579 190.42316,150 284.4233,150 h 107.48607 l 0.52363,-3.25 c 1.74458,-10.82821 4.63704,-51.079964 3.73536,-51.981644 -1.51049,-1.51049 -281.16972,0.08623 -281.16445,1.605313 0.0165,4.740401 14.9816,166.793871 15.47692,167.595311 0.43046,0.6965 31.93803,1.03102 97.10957,1.03102 86.42698,0 96.53462,0.16223 97.07023,1.558 0.75601,1.97013 -5.38394,70.57349 -6.40483,71.5629 C 317.08347,339.25708 258.23384,355 255.15893,355 c -1.49989,0 -15.31174,-3.38586 -30.693,-7.52414 -33.87285,-9.11337 -31.17588,-8.27761 -31.77838,-9.8477 -0.27346,-0.71263 -1.23801,-9.808 -2.14344,-20.21193 C 189.63869,307.0123 188.68729,297.4875 188.42989,296.25 L 187.9619,294 h -27.48095 c -25.49721,0 -27.48255,0.12633 -27.50316,1.75 -0.0662,5.22002 7.36118,84.87524 7.97636,85.54241 0.5038,0.54637 109.18786,31.41326 114.89953,32.63212 0.19452,0.0415 25.84452,-6.96346 57,-15.56659 z"
       id="path30"
       inkscape:connector-curvature="0" />
    <path
       style="fill:#ed8c6c"
       d="M 163.62101,486.51915 C 113.63757,472.56173 72.403685,460.77257 71.990161,460.32101 71.576638,459.86946 62.18172,357.35 51.112567,232.5 40.043414,107.65 30.776046,4.2625 30.518417,2.75 L 30.05,0 h 225.91213 225.91213 l -0.46185,3.25 c -0.25402,1.7875 -9.45143,104.5 -20.43869,228.25 -10.98725,123.75 -20.20217,225.98251 -20.4776,227.18335 -0.27542,1.20084 -1.28722,2.41709 -2.24844,2.70276 -8.8863,2.64104 -180.2344,49.9724 -181.74768,50.20403 -1.1,0.16838 -42.89554,-11.11357 -92.87899,-25.07099 z M 314.423,398.44659 c 30.84235,-8.55437 56.45378,-15.92865 56.91429,-16.38729 1.11089,-1.10636 16.18486,-170.25621 15.36336,-172.39702 C 386.11173,208.1276 378.22834,208 284,208 203.25576,208 181.84351,207.7389 181.48854,206.75 180.81,204.8597 176.39772,153.30684 176.80889,152.07332 177.06074,151.31777 208.97826,151 284.61472,151 c 85.05653,0 107.53997,-0.26049 107.88914,-1.25 0.73261,-2.07617 5.30322,-54.192282 4.82353,-55 -0.58242,-0.980669 -282.06971,-0.980669 -282.6634,0 -0.45463,0.750978 14.07598,166.79107 14.77517,168.83453 0.26109,0.76308 29.06329,1.28437 97.17472,1.75876 53.242,0.37083 97.11495,1.00779 97.49544,1.41547 0.99692,1.06816 -5.41404,69.97006 -6.60932,71.03386 -0.55,0.4895 -14.77363,4.58937 -31.60807,9.11082 l -30.60807,8.22083 -30.39193,-8.17122 c -16.71556,-4.49417 -30.74024,-8.49294 -31.16595,-8.88615 -0.42571,-0.39321 -1.67115,-10.29996 -2.76766,-22.01498 -1.0965,-11.71503 -2.23725,-21.69422 -2.535,-22.17599 C 188.12558,293.39417 175.5194,293 160.4096,293 c -21.0685,0 -27.57846,0.29138 -27.92748,1.25 -0.62692,1.72185 7.07742,86.63711 7.94165,87.53084 1.06187,1.09813 111.66167,31.97512 114.99923,32.10522 1.60765,0.0627 28.15765,-6.88509 59,-15.43947 z"
       id="path28"
       inkscape:connector-curvature="0" />
    <path
       style="fill:#e77150"
       d="M 249.5,510.02903 C 246.75,509.02896 206.025,497.54466 159,484.50836 111.975,471.47207 73.137054,460.46421 72.693454,460.04646 72.249853,459.6287 62.729699,356.73485 51.537556,231.39345 40.345412,106.05205 30.872713,2.7125 30.487113,1.75 29.820646,0.08642453 40.957701,0 256,0 c 215.04176,0 226.17942,0.08642869 225.5143,1.75 -0.38483,0.9625 -9.87183,104.31636 -21.08224,229.67525 -11.21041,125.35889 -20.7312,228.24494 -21.15731,228.63566 -0.42611,0.39073 -40.14975,11.57144 -88.27475,24.84603 -48.125,13.27459 -88.18977,24.51882 -89.03282,24.98718 -3.32628,1.84793 -7.62871,1.89449 -12.46718,0.13491 z m 64.41204,-110.65868 c 31.12338,-8.59631 57.12997,-16.13381 57.79243,-16.75 0.79439,-0.73891 3.81508,-30.37425 8.87233,-87.04431 7.45384,-83.52568 7.61561,-85.96417 5.79553,-87.36448 -1.61438,-1.24205 -15.74178,-1.35119 -102.54239,-0.79217 -73.36942,0.47251 -100.85625,0.34705 -101.35667,-0.46263 -0.37763,-0.61104 -1.76386,-13.08706 -3.08049,-27.72451 -1.89721,-21.09201 -2.13442,-26.78067 -1.14333,-27.41908 0.6878,-0.44305 49.00786,-0.50872 107.37791,-0.14594 103.86215,0.64553 106.14884,0.61876 107.13373,-1.25381 1.25744,-2.3908 5.77561,-53.572412 4.92492,-55.78929 -0.5711,-1.488261 -12.35868,-1.622849 -140.90463,-1.608817 -84.71167,0.0092 -140.86378,0.383638 -141.7516,0.945122 -1.27736,0.807837 -0.51145,11.857765 5.83863,84.234685 4.01986,45.81769 7.70932,84.31738 8.19878,85.55488 l 0.88993,2.25 h 96.46242 c 55.40282,0 96.69695,0.37947 97.0134,0.8915 0.7091,1.14735 -5.36883,69.38547 -6.26076,70.29072 -0.80571,0.81774 -59.92545,16.81843 -62.13325,16.81629 -3.11069,-0.003 -60.38937,-15.9475 -61.03349,-16.9897 -0.3663,-0.59269 -1.47079,-10.16453 -2.45442,-21.27075 -0.98363,-11.10623 -2.00815,-20.76575 -2.27671,-21.4656 -0.70441,-1.83567 -56.86228,-1.85761 -57.48341,-0.0225 -0.65708,1.94136 7.21245,87.1449 8.1344,88.07133 0.83864,0.84272 113.44285,32.50989 115.98674,32.61842 0.77662,0.0331 26.87662,-6.97309 58,-15.5694 z"
       id="path26"
       inkscape:connector-curvature="0" />
    <path
       style="fill:#ef6428"
       d="m 253,510.98923 c -1.375,-0.43443 -2.05,-0.86228 -1.5,-0.95077 0.55,-0.0885 -39.23414,-11.365 -88.40921,-25.05889 C 113.91572,471.28567 73.380133,459.72572 73.011698,459.29079 72.643262,458.85586 63.227436,355.95166 52.087638,230.61479 40.94784,105.27792 31.597787,2.1154245 31.309741,1.36479 30.868229,0.21422824 66.110728,0 255.83014,0 h 225.04412 l -0.52482,3.25 c -0.28865,1.7875 -9.61122,105.03836 -20.71682,229.44636 -11.10561,124.408 -20.44992,226.45427 -20.76514,226.76949 -0.31521,0.31522 -40.57685,11.65208 -89.4703,25.19304 C 300.50373,498.19984 260.275,509.60542 260,510.00462 c -0.89207,1.29496 -4.43875,1.79383 -7,0.98461 z m 62.41467,-111.41331 c 30.75307,-8.52789 56.39192,-15.98251 56.97521,-16.5658 1.1782,-1.1782 16.79848,-171.45538 15.98523,-174.25544 -0.47738,-1.64364 -6.48684,-1.76015 -103.16382,-2 L 182.55439,206.5 180.32789,182 c -1.22457,-13.475 -2.24931,-25.7375 -2.27719,-27.25 L 178,152 h 107.44098 c 69.35829,0 107.65647,-0.34866 108.04892,-0.98365 0.33436,-0.54101 1.7565,-13.45122 3.16031,-28.68935 2.47877,-26.906515 2.49899,-27.746102 0.70109,-29.106861 C 395.774,92.026342 374.70554,91.92125 255,92.510073 177.725,92.890183 114.11402,93.5644 113.64226,94.008333 112.42319,95.155497 127.58445,263.79436 129.06728,265.58107 130.06924,266.78835 144.62074,267 226.62244,267 H 323 l -0.0284,3.25 c -0.0528,6.04683 -5.75573,65.86744 -6.33457,66.44629 -1.01406,1.01406 -58.03106,16.22884 -60.96004,16.26697 -2.83294,0.0369 -59.58083,-14.76341 -60.85775,-15.87217 -0.37441,-0.3251 -1.41845,-9.59109 -2.32009,-20.59109 -0.90165,-11 -2.04817,-21.0125 -2.54782,-22.25 L 189.04286,292 h -28.55283 c -25.52078,0 -28.61953,0.17385 -29.18105,1.63713 -0.95748,2.49517 6.75595,87.66344 8.06656,89.06734 1.54217,1.65193 115.62971,33.33325 118.12444,32.80234 1.1,-0.23409 27.1616,-7.40299 57.91467,-15.93089 z"
       id="path24"
       inkscape:connector-curvature="0" />
    <path
       style="fill:#e34c25"
       d="m 253.08789,511.26879 c -1.34635,-0.25138 -1.93286,-0.74657 -1.32744,-1.12074 0.59657,-0.3687 -39.38048,-11.885 -88.83789,-25.59177 C 113.46515,470.8495 72.991462,459.60452 72.981026,459.56743 72.970591,459.53035 63.791031,356.9 52.582003,231.5 41.372976,106.1 31.88337,2.7125 31.493988,1.75 30.820983,0.08641791 41.907463,0 256,0 c 214.09156,0 225.17914,0.08642551 224.50858,1.75 -0.38797,0.9625 -9.87684,104.30323 -21.08638,229.64606 -11.20954,125.34283 -20.50276,227.98976 -20.65159,228.10428 -0.14884,0.11453 -40.63149,11.38484 -89.96146,25.04514 -49.32997,13.6603 -89.46592,25.20087 -89.19099,25.64571 0.27493,0.44485 0.0601,0.80881 -0.47736,0.80881 -0.53747,0 -1.57653,0.16182 -2.30901,0.35959 -0.73249,0.19777 -2.41724,0.15692 -3.7439,-0.0908 z m 78.17364,-59.27915 c 39.70327,-11.0057 72.6938,-20.5682 73.31229,-21.25 0.93452,-1.03018 35.58076,-382.559598 35.46039,-390.494874 L 440,37.989532 348.25,38.244766 256.5,38.5 256.23367,65.25 255.96733,92 186.73367,92.01365 c -38.07852,0.0075 -70.24617,0.284994 -71.48367,0.616631 -1.87964,0.503725 -2.24545,1.283341 -2.22237,4.736345 0.0502,7.507644 14.6173,167.249824 15.36156,168.454064 C 128.93657,266.70637 144.91333,267 192.55902,267 H 256 v 43 c 0,32.11498 -0.29557,43 -1.1676,43 -2.60921,0 -58.41634,-15.39982 -59.46626,-16.40955 -0.64575,-0.62102 -1.85306,-9.70026 -2.8045,-21.09045 -0.91884,-11 -1.90143,-20.7875 -2.18352,-21.75 -0.47339,-1.61521 -2.77095,-1.75 -29.82888,-1.75 -27.09116,0 -29.34828,0.13281 -29.74162,1.75 -0.23411,0.9625 1.26834,20.425 3.33877,43.25 2.07043,22.825 3.79138,42.175 3.82433,43 0.0329,0.825 0.39772,2.03118 0.8106,2.68041 C 139.33554,383.55187 253.07628,416 255.57682,416 255.80957,416 256,428.3 256,443.33333 c 0,15.03334 0.3,27.63334 0.66667,28 0.36666,0.36667 1.05826,0.66667 1.53688,0.66667 0.47862,0 33.35471,-9.00466 73.05798,-20.01036 z M 182.97196,206.76247 c -1.71835,-16.08782 -4.73525,-53.33646 -4.36802,-53.93065 0.66052,-1.06875 74.4791,-1.06585 76.16302,0.003 0.98163,0.62308 1.20683,6.75634 1,27.23469 L 255.5,206.5 l -36.25,0.26247 c -19.9375,0.14436 -36.26262,0.14436 -36.27804,0 z"
       id="path22"
       inkscape:connector-curvature="0" />
  </g>
  <path
     style="fill:#ffffff;stroke-width:0.6259169"
     d="M 257.25183,122.42934 V 96.140831 h 69.82808 69.82809 l -0.35886,2.660147 c -0.64506,4.781712 -4.09926,44.654952 -4.09926,47.319452 v 2.59742 h -67.59902 -67.59903 z"
     id="path36"
     inkscape:connector-curvature="0" />
  <path
     style="fill:#ffffff;stroke-width:0.6259169"
     d="m 257.66132,406.43912 c -0.22109,-2.8401 -0.40367,-15.08455 -0.40573,-27.2099 l -0.004,-22.04608 3.28607,-0.93329 c 1.80733,-0.51331 11.73594,-3.22142 22.06357,-6.01802 21.99972,-5.95727 36.62483,-10.39563 37.67945,-11.43478 0.41269,-0.40664 1.03674,-2.57016 1.38676,-4.80781 1.52158,-9.72714 4.72229,-45.42568 5.47649,-61.08105 0.369,-7.65951 0.31755,-8.22219 -0.79287,-8.67041 -0.65312,-0.26364 -16.39727,-0.7063 -34.987,-0.98371 -18.58973,-0.27741 -33.91281,-0.53024 -34.05129,-0.56186 -0.33685,-0.0769 0.57946,-51.60603 0.9238,-51.95037 0.44528,-0.44528 127.26286,-0.33198 127.70893,0.11409 0.50815,0.50814 -0.36655,11.10947 -6.67358,80.88392 -6.14329,67.96308 -8.10644,88.12959 -8.63337,88.68653 -0.92641,0.97917 -109.08475,31.17655 -111.66545,31.17655 -0.69009,0 -1.0072,-1.24805 -1.31202,-5.16381 z"
     id="path38"
     inkscape:connector-curvature="0" />
  <path
     style="fill:#ffffff;stroke-width:0.6259169"
     d="M 257.25183,122.42934 V 96.140831 h 69.78973 c 38.38436,0 69.78974,0.09277 69.78974,0.206152 0,0.113383 -0.83361,9.478667 -1.85246,20.811737 -1.01884,11.33307 -2.04339,23.07013 -2.27678,26.08236 l -0.42433,5.47677 h -67.51295 -67.51295 z"
     id="path40"
     inkscape:connector-curvature="0" />
  <path
     style="fill:#ffffff;stroke-width:0.6259169"
     d="m 257.58648,406.43912 c -0.222,-2.8401 -0.3177,-15.14069 -0.21266,-27.33463 l 0.19097,-22.17083 10.01467,-2.72153 c 25.97008,-7.05749 38.16441,-10.50774 45.20581,-12.79051 7.63958,-2.47669 7.65168,-2.48374 8.24879,-4.79987 1.15358,-4.47459 4.34344,-37.51061 5.74347,-59.48268 0.55862,-8.76705 0.55799,-11.64427 -0.003,-12.20538 -0.94342,-0.94403 -17.55876,-1.54262 -44.87771,-1.61678 -11.40342,-0.031 -21.65813,-0.2412 -22.78825,-0.46723 l -2.05475,-0.41095 0.38381,-25.641 c 0.21109,-14.10256 0.56084,-25.81788 0.77721,-26.03404 0.57178,-0.57124 127.15773,-0.48044 127.72979,0.0916 0.60936,0.60936 -0.41574,13.18173 -6.97773,85.57892 -6.11095,67.42092 -7.70127,83.3594 -8.38842,84.07012 -1.06851,1.10516 -108.64433,31.09497 -111.54968,31.09763 -0.8518,7.8e-4 -1.11194,-0.9301 -1.44281,-5.16286 z"
     id="path42"
     inkscape:connector-curvature="0" />
</svg>
