<?xml version="1.0" encoding="UTF-8" standalone="no"?>
<!-- Created with Inkscape (http://www.inkscape.org/) -->

<svg
   xmlns:dc="http://purl.org/dc/elements/1.1/"
   xmlns:cc="http://creativecommons.org/ns#"
   xmlns:rdf="http://www.w3.org/1999/02/22-rdf-syntax-ns#"
   xmlns:svg="http://www.w3.org/2000/svg"
   xmlns="http://www.w3.org/2000/svg"
   xmlns:sodipodi="http://sodipodi.sourceforge.net/DTD/sodipodi-0.dtd"
   xmlns:inkscape="http://www.inkscape.org/namespaces/inkscape"
   version="1.1"
   id="svg71"
   width="1052"
   height="1052"
   viewBox="0 0 1052 1052"
   sodipodi:docname="JavaScript.svg"
   inkscape:version="0.92.4 (5da689c313, 2019-01-14)">
  <metadata
     id="metadata77">
    <rdf:RDF>
      <cc:Work
         rdf:about="">
        <dc:format>image/svg+xml</dc:format>
        <dc:type
           rdf:resource="http://purl.org/dc/dcmitype/StillImage" />
        <dc:title></dc:title>
      </cc:Work>
    </rdf:RDF>
  </metadata>
  <defs
     id="defs75" />
  <sodipodi:namedview
     pagecolor="#ffffff"
     bordercolor="#666666"
     borderopacity="1"
     objecttolerance="10"
     gridtolerance="10"
     guidetolerance="10"
     inkscape:pageopacity="0"
     inkscape:pageshadow="2"
     inkscape:window-width="1920"
     inkscape:window-height="1017"
     id="namedview73"
     showgrid="false"
     inkscape:zoom="0.2243346"
     inkscape:cx="526"
     inkscape:cy="526"
     inkscape:window-x="-8"
     inkscape:window-y="-8"
     inkscape:window-maximized="1"
     inkscape:current-layer="svg71" />
  <g
     id="g81"
     transform="translate(5.4576271,3.4576271)">
    <path
       style="fill:#eed94e"
       d="M 0,526.5 V 1 H 525.5 1051 V 526.5 1052 H 525.5 0 Z"
       id="path99"
       inkscape:connector-curvature="0" />
    <path
       style="fill:#d9c649"
       d="M 409.5,969.9566 C 358.98835,966.51603 317.59621,944.50167 290.6905,906.76791 281.79836,894.29717 274.16269,879.59308 275.5,877.51539 276.98095,875.21452 353.7483,829 356.08932,829 c 1.20445,0 2.6832,1.23155 3.70719,3.08745 0.93692,1.69811 4.6655,7.66061 8.28573,13.25 15.80384,24.40011 29.07647,32.808 51.91776,32.88864 28.62644,0.10106 41.9228,-9.40415 48.57655,-34.72609 1.74635,-6.64605 1.85548,-15.92109 2.15815,-183.42976 0.22766,-125.99096 0.63204,-176.80721 1.41449,-177.75 0.87997,-1.0603 10.60452,-1.32024 49.39147,-1.32024 26.56267,0 49.00757,0.27314 49.87755,0.60699 1.43416,0.55034 1.58179,17.15875 1.58179,177.94878 0,153.71277 -0.2047,178.91419 -1.53632,189.14301 -4.42192,33.96694 -15.91715,60.23753 -35.181,80.40077 -19.3346,20.23729 -43.11112,32.3458 -75.28268,38.3387 -7.09229,1.32115 -36.14908,3.81789 -39.5,3.39408 -0.55,-0.0696 -5.95,-0.46364 -12,-0.87573 z m 377.80209,-0.0293 c -63.0991,-3.90464 -116.51092,-31.39898 -149.01518,-76.7073 -6.89494,-9.61099 -14.28537,-22.47283 -14.28618,-24.86276 -6e-4,-1.76914 6.9639,-6.17178 39.9428,-25.25 C 685.91248,830.39826 704.50573,820 705.26187,820 c 0.75615,0 4.48732,4.6125 8.29151,10.25 7.79026,11.54456 21.93815,26.28085 30.93119,32.2176 16.95087,11.1901 31.12031,15.48486 53.51543,16.22055 12.95574,0.4256 17.06887,0.18424 25.05781,-1.47041 13.35134,-2.76529 23.53334,-7.69867 31.31864,-15.17449 7.36796,-7.07508 11.09948,-14.00294 12.59933,-23.39165 2.33493,-14.61605 -2.46676,-28.15576 -13.76481,-38.81377 C 842.15668,789.40978 830.71719,783.36523 783.5,763.00304 754.44246,750.47211 738.55134,742.65631 725.38912,734.4221 685.7928,709.65085 664.41703,681.10611 655.80426,641.5 c -2.91184,-13.39017 -3.60994,-41.94563 -1.36007,-55.63282 7.92643,-48.22077 40.24459,-85.49005 87.90449,-101.37138 37.09165,-12.35975 84.5433,-11.90814 120.89935,1.15062 29.47731,10.58797 56.03538,33.41548 73.94043,63.55414 4.03908,6.79879 4.08269,6.9712 2.21585,8.76131 C 936.58169,560.66848 864.09853,607 862.6868,607 c -0.66525,0 -3.90442,-4.09816 -7.19817,-9.10703 -10.73115,-16.31908 -23.82061,-26.64805 -38.76396,-30.58889 -9.46547,-2.49622 -25.47687,-2.29164 -34.26177,0.43777 -17.8822,5.55589 -28.48246,19.97085 -28.45103,38.68965 0.0224,13.34569 3.84243,22.35756 13.2476,31.25257 10.16219,9.61098 20.54292,15.17527 60.24053,32.29021 54.2463,23.38735 79.62565,38.03738 101.16279,58.39542 21.26159,20.09757 33.4313,42.62707 38.96245,72.1303 2.5856,13.79162 2.63678,46.11355 0.0929,58.68222 -9.98615,49.33952 -42.80134,84.54853 -94.25969,101.13578 -25.31061,8.15871 -55.38751,11.51327 -86.15639,9.60927 z"
       id="path97"
       inkscape:connector-curvature="0" />
    <path
       style="fill:#c8b847"
       d="m 403,968.86545 c -45.92663,-4.69421 -84.30529,-25.68525 -110.19096,-60.26844 -8.32177,-11.11786 -17.07311,-26.74066 -16.63547,-29.69744 0.2544,-1.71878 9.03107,-7.46734 39.77589,-26.05249 C 337.64667,839.73119 355.76908,829 356.22149,829 c 0.45241,0 2.13986,2.1375 3.74989,4.75 10.66475,17.30499 14.31414,22.40786 20.62196,28.83525 11.3597,11.57503 23.13355,16.41475 39.9331,16.41475 27.08838,0 41.11577,-9.4913 48.11288,-32.55445 1.70053,-5.60509 1.83408,-16.13834 2.33225,-183.94555 0.29064,-97.9 0.89249,-178.5625 1.33745,-179.25 0.6292,-0.97218 11.77396,-1.25 50.14301,-1.25 44.06366,0 49.39884,0.16898 49.94098,1.58179 1.09292,2.84809 0.6837,340.17339 -0.42947,354.02299 -3.34831,41.6582 -16.48557,72.5343 -40.62964,95.49065 -9.50243,9.03498 -16.68746,14.05697 -28.8339,20.15351 -26.83967,13.47138 -63.77356,19.26815 -99.5,15.61651 z m 383.5,0.47431 c -65.61829,-5.3157 -115.24261,-31.33337 -148.66242,-77.94261 -7.29211,-10.17 -13.97164,-22.56221 -13.00463,-24.12685 C 625.8828,865.5716 703.08262,821 704.97498,821 c 0.85209,0 3.86554,3.4875 6.69657,7.75 23.80537,35.84221 55.56433,52.79802 95.32845,50.89495 27.98319,-1.33924 48.61554,-11.96213 57.23341,-29.46751 5.74251,-11.66469 4.95052,-29.18196 -1.84352,-40.77512 -3.11264,-5.31131 -12.40227,-14.15569 -19.91835,-18.96367 -8.11461,-5.19086 -31.6216,-16.42045 -58.47154,-27.9326 -39.07126,-16.75216 -56.22496,-25.92091 -74.72682,-39.94191 -30.63697,-23.21718 -47.85006,-51.15787 -53.93728,-87.55225 -2.18365,-13.05567 -2.20088,-38.71161 -0.034,-50.64758 8.79174,-48.42833 41.35617,-84.67696 90.08749,-100.27959 33.31534,-10.6668 79.5328,-10.43978 113.11062,0.55559 31.34597,10.26453 57.32826,31.62754 77.51343,63.73267 3.31591,5.27405 4.08584,7.24609 3.30955,8.47676 -1.37203,2.17513 -74.39355,49.07019 -76.47796,49.11482 -0.94122,0.0202 -2.84471,-2.01312 -4.41361,-4.71456 -6.99516,-12.04474 -18.87396,-24.49845 -28.15899,-29.52185 -11.60906,-6.28074 -32.4718,-8.65051 -45.73746,-5.19524 -21.79703,5.6774 -34.02804,24.15602 -30.77264,46.49131 1.37357,9.42409 4.70952,16.42525 11.07181,23.2364 9.12788,9.77185 21.98879,16.87631 60.16587,33.23603 57.6353,24.69799 83.44794,39.89192 106.09494,62.45001 26.36432,26.26081 37.92066,55.93009 37.99753,97.55334 0.0415,22.49781 -2.62658,37.93369 -9.50584,54.99397 -16.70565,41.42929 -55.40616,70.2674 -108.58663,80.9145 -19.28998,3.86199 -45.57728,5.4642 -64.5,3.93129 z"
       id="path95"
       inkscape:connector-curvature="0" />
    <path
       style="fill:#aa9d42"
       d="m 395.24708,967.4363 c -17.77781,-2.59149 -35.94044,-8.228 -51.07893,-15.85162 -25.70715,-12.94592 -49.95531,-37.14867 -64.21985,-64.09961 -4.4331,-8.37575 -4.44147,-8.41094 -2.4483,-10.29882 3.83006,-3.62776 77.56016,-47.37714 78.947,-46.84496 0.76823,0.29479 2.64416,2.7011 4.16873,5.34735 13.91927,24.16 25.79907,36.05116 41.38427,41.42381 5.31308,1.83156 8.69124,2.24281 18.5,2.25211 28.57851,0.0271 41.67857,-9.15476 48.80915,-34.21045 l 2.17827,-7.65411 0.28047,-176.42667 c 0.20076,-126.29301 0.59255,-176.8027 1.37873,-177.75 0.88328,-1.06428 10.42164,-1.32033 48.72582,-1.30802 26.19516,0.008 48.20178,0.37973 48.90361,0.82512 1.02905,0.65306 1.21216,35.92649 0.94597,182.23469 -0.32972,181.22937 -0.3324,181.43692 -2.49409,192.59452 -12.44587,64.23967 -51.81837,101.18568 -117.09157,109.87533 -13.29999,1.77059 -44.405,1.71117 -56.88928,-0.10867 z m 377.46047,0.0993 C 715.2634,960.2746 668.78778,933.87572 638.31009,891.19575 630.2831,879.955 624.16226,868.44424 625.5,867.10524 626.8371,865.76688 704.21365,821 705.18982,821 c 0.42024,0 1.54866,1.2375 2.50761,2.75 11.10682,17.51831 28.7563,35.75973 41.79127,43.19289 15.8296,9.0268 32.04509,13.05711 52.5338,13.05711 25.4117,0 43.85045,-6.45953 55.96989,-19.60757 14.71516,-15.96406 14.20926,-42.06903 -1.14075,-58.86438 -9.58727,-10.49 -24.16529,-18.49502 -68.35164,-37.53296 -53.4521,-23.03014 -75.81507,-36.28029 -96.67641,-57.28115 -18.04826,-18.16897 -29.24747,-39.29252 -35.00519,-66.02553 -3.02897,-14.06351 -3.28138,-46.80531 -0.45982,-59.64792 5.64441,-25.69112 16.59203,-46.12699 34.0742,-63.60614 20.81835,-20.81476 48.38219,-33.90963 81.83247,-38.87652 12.10595,-1.79756 39.97292,-2.07935 52.76098,-0.53351 48.34912,5.8445 82.77916,27.46075 109.34596,68.65079 2.5453,3.9463 4.61821,7.9963 4.60649,9 -0.0262,2.23749 -74.77907,50.54806 -76.59244,49.49938 -0.64148,-0.37097 -3.92113,-4.802 -7.28811,-9.84674 -13.27877,-19.89553 -28.49637,-29.20144 -50.61527,-30.95237 -21.87508,-1.73163 -40.56184,7.71868 -48.26077,24.40655 -2.11596,4.58648 -2.71774,7.62045 -3.04086,15.33101 -0.65955,15.73908 3.45871,25.94974 14.39923,35.70087 10.2571,9.14201 20.10355,14.16009 70.91954,36.14299 74.33269,32.15618 108.28578,61.20454 122.92767,105.17002 5.5135,16.55549 6.94861,26.58609 6.99241,48.87318 0.0528,26.87128 -3.31458,42.84747 -13.17348,62.5 -6.33285,12.62379 -11.31183,19.6126 -21.42182,30.06902 -22.12638,22.88458 -51.64246,37.18002 -90.83872,43.99565 -13.02474,2.26481 -55.40969,2.85039 -70.27851,0.97095 z"
       id="path93"
       inkscape:connector-curvature="0" />
    <path
       style="fill:#91873e"
       d="m 403.76826,967.88751 c -11.08393,-1.06907 -26.46854,-4.19544 -37.0417,-7.5274 -35.48131,-11.18134 -66.66862,-37.43511 -86.072,-72.45621 -2.01001,-3.62785 -3.65167,-7.45285 -3.64814,-8.5 0.005,-1.43381 9.20226,-7.44378 37.25,-24.34065 20.48397,-12.34021 38.20539,-23.04626 39.38094,-23.79121 2.76469,-1.75199 3.09134,-1.39655 11.36264,12.36409 8.51254,14.16198 20.65403,26.7565 30,31.11938 8.45379,3.94639 15.0048,5.24844 26.29922,5.22713 23.05753,-0.0435 36.70373,-7.23856 44.24135,-23.32651 C 472.34673,842.12936 472,852.67891 472,660.12395 472,564.44574 472.27314,485.45177 472.60699,484.58179 473.14903,483.16926 478.44377,483 522.08794,483 h 48.87396 l 0.56017,2.25 c 0.30809,1.2375 0.40483,81.675 0.21496,178.75 -0.31352,160.3028 -0.50123,177.46357 -2.04546,187 -7.03242,43.42901 -24.06022,73.1909 -53.19157,92.97044 -28.35391,19.25168 -69.8424,28.05384 -112.73174,23.91707 z M 787.5,968.40639 c -17.28299,-1.7539 -24.73545,-2.80011 -34.62896,-4.86136 -29.19523,-6.08263 -54.65578,-17.39328 -76.85799,-34.14358 -10.65942,-8.04191 -27.02888,-24.45054 -34.54528,-34.62793 -7.58044,-10.2641 -15.58447,-23.97804 -15.25894,-26.14438 0.20849,-1.38751 11.22297,-8.27723 38.79117,-24.26445 21.175,-12.27972 39.03778,-22.33529 39.69507,-22.34572 0.65728,-0.0104 4.00658,4.08596 7.44289,9.1031 16.78304,24.50389 37.5173,39.98562 62.36204,46.56409 8.9999,2.38302 11.75017,2.64746 27.5,2.64409 14.8478,-0.003 18.70364,-0.33283 25.44198,-2.17518 18.48875,-5.05507 31.66637,-14.75489 37.77825,-27.80793 2.7018,-5.77018 3.26952,-8.29213 3.60945,-16.03418 0.53351,-12.15107 -1.96596,-20.72983 -8.59852,-29.51205 -9.27938,-12.28689 -24.60714,-21.10386 -72.73116,-41.83707 -40.29999,-17.36238 -58.72927,-27.10624 -77.27251,-40.85521 -31.13671,-23.08647 -48.8652,-52.53515 -54.30286,-90.20215 -1.78958,-12.39655 -1.55747,-36.56286 0.45976,-47.86738 12.05394,-67.55009 72.37845,-109.97618 151.67865,-106.67525 26.84647,1.11751 47.76697,5.9492 67.43696,15.57491 15.01474,7.34761 25.25854,14.95907 38.16082,28.35468 C 922.74826,530.72834 939,552.81429 939,555.72913 939,556.80808 864.75112,605 863.0888,605 c -0.49741,0 -3.48633,-3.88042 -6.64204,-8.62316 C 841.03413,573.21308 824.85043,564 799.57361,564 c -10.66967,0 -18.59751,1.82947 -26.74425,6.17163 -25.29435,13.48175 -28.00163,51.48339 -5.03273,70.64369 10.50538,8.76344 21.99305,14.70314 59.70337,30.86964 54.56685,23.39293 81.96049,39.63583 103.62652,61.44474 20.10995,20.24256 31.14294,42.72188 35.47859,72.2863 2.21517,15.1051 1.47009,45.29926 -1.42097,57.584 -13.46135,57.20016 -57.87052,93.59806 -126.3011,103.51678 -10.15213,1.47151 -43.4401,2.69567 -51.38304,1.88961 z"
       id="path91"
       inkscape:connector-curvature="0" />
    <path
       style="fill:#847b3b"
       d="M 410.5,967.97289 C 357.34633,964.70594 316.27966,941.82726 288.49034,900 c -3.4714,-5.225 -7.57147,-12.0893 -9.11127,-15.254 -2.43829,-5.01135 -2.61116,-5.92742 -1.33935,-7.09755 2.07536,-1.90945 75.09646,-45.8713 77.03456,-46.37812 1.14919,-0.30053 3.5654,2.74551 8.5151,10.73471 11.69214,18.87203 19.60956,27.11801 31.91062,33.23482 7.64408,3.80108 14.94285,5.19647 26.5,5.06629 22.96984,-0.25873 36.54279,-7.55676 44.10372,-23.7141 6.69773,-14.31272 6.25753,-1.68853 6.85512,-196.59205 L 473.5,483.5 h 48.5 48.5 l 0.26045,176.5 c 0.22474,152.30415 0.0544,178.09225 -1.24283,188.1149 C 561.33033,911.37331 527.22812,950.27335 468,963.915 c -15.83969,3.64826 -38.33514,5.23581 -57.5,4.05789 z m 379,-0.0433 C 725.77172,964.55646 674.04683,938.43474 640.24884,892.55591 634.73403,885.06987 626,870.39944 626,868.62232 c 0,-1.08188 72.97584,-44.18298 78.0493,-46.09759 1.11273,-0.41993 3.135,1.74848 7.17668,7.6953 17.83452,26.24124 36.93401,40.66147 63.59859,48.01733 6.5109,1.79614 10.55815,2.12841 26.67543,2.19002 16.89048,0.0646 19.86507,-0.17812 26.79149,-2.1857 16.36591,-4.74357 30.20787,-14.39387 36.05478,-25.13655 7.5494,-13.87075 6.62987,-33.56228 -2.16384,-46.33821 -8.94488,-12.99555 -23.10224,-21.70375 -64.68243,-39.78624 -40.95068,-17.80872 -46.40029,-20.31571 -58,-26.68187 -19.98142,-10.96622 -31.84481,-19.58304 -45.10973,-32.76491 -20.59204,-20.4631 -30.42982,-38.28226 -36.61471,-66.32023 -1.79661,-8.14458 -2.15347,-13.10588 -2.20915,-30.71367 -0.0721,-22.81361 0.68641,-28.76308 5.60207,-43.93773 12.30369,-37.98152 42.02548,-66.98221 82.49318,-80.49175 31.25328,-10.43344 75.0383,-11.25089 108.28522,-2.02162 30.37766,8.43276 56.73001,27.41558 76.03659,54.77268 8.76571,12.42086 10.65207,15.95356 9.48606,17.76509 -1.46733,2.27965 -73.65325,48.2904 -74.89197,47.73556 -0.59266,-0.26546 -3.55256,-4.32333 -6.57756,-9.01749 -6.69155,-10.38386 -17.47596,-20.73708 -26.12097,-25.07659 -17.21437,-8.64103 -40.51597,-9.0658 -56.27556,-1.02586 -6.55034,3.34174 -14.35938,11.51642 -17.88655,18.72405 -3.07864,6.29109 -3.21692,7.08948 -3.21692,18.57366 0,11.41424 0.15547,12.32819 3.18498,18.72333 7.91143,16.70062 20.15583,24.62817 73.81502,47.79104 55.56794,23.98682 81.1522,39.37647 102.58816,61.70969 24.00247,25.00716 34.22349,50.80044 35.57522,89.77594 1.11794,32.23441 -5.14917,57.05214 -20.29153,80.35428 -6.75833,10.40021 -22.75033,26.59626 -33.43991,33.86659 -31.8237,21.64431 -75.15925,31.81676 -124.43194,29.20874 z"
       id="path89"
       inkscape:connector-curvature="0" />
    <path
       style="fill:#6f6938"
       d="m 396.60913,966.44709 c -19.79916,-2.69603 -42.11632,-9.96161 -57.10913,-18.59245 -24.42792,-14.06231 -46.74028,-37.51009 -59.15802,-62.16842 -1.92097,-3.81454 -3.12127,-7.26556 -2.66733,-7.66893 C 279.36218,876.51775 355.15783,831 355.96731,831 c 0.46298,0 2.29497,2.5875 4.0711,5.75 16.99749,30.265 32.91132,42.52262 56.96159,43.87461 29.46117,1.65617 46.58366,-9.80717 53.75808,-35.9905 1.53943,-5.61823 1.70619,-21.01609 1.98289,-183.0884 0.23653,-138.54946 0.56871,-177.12366 1.53056,-177.73469 1.63601,-1.03929 93.86773,-1.00932 95.50715,0.031 1.03255,0.65524 1.2141,35.54056 0.94319,181.23468 -0.33405,179.64648 -0.34472,180.47062 -2.47795,191.42326 -3.35038,17.20187 -6.82483,28.00508 -13.2241,41.11807 -19.37772,39.7076 -53.37539,62.28762 -103.72028,68.88726 -13.92147,1.82495 -41.07296,1.79603 -54.69041,-0.0582 z M 776.5,966.82446 c -49.4525,-4.979 -95.60342,-27.50226 -125.16244,-61.08364 -7.9154,-8.99251 -15.86309,-19.98376 -21.38325,-29.57191 -3.57836,-6.21538 -4.0102,-7.53536 -2.83751,-8.6733 C 629.32596,865.35191 702.99558,823 704.51531,823 c 0.75615,0 4.07688,3.9375 7.37939,8.75 21.20786,30.90464 45.7838,46.01338 80.11117,49.25055 47.99102,4.5257 82.39826,-20.19459 77.30604,-55.54143 -2.06404,-14.32714 -9.95727,-25.76165 -24.39872,-35.34511 -8.91168,-5.91386 -29.82104,-15.99495 -60.41319,-29.12719 -40.157,-17.23812 -60.72211,-28.54567 -79.56519,-43.74823 -27.64635,-22.30501 -43.70038,-51.15077 -48.44178,-87.03981 -5.94356,-44.98859 6.59901,-84.66013 35.64706,-112.74992 22.88922,-22.13415 50.07895,-34.27164 86.35815,-38.55028 12.83677,-1.51393 43.88743,-0.61703 56.50176,1.63205 34.98921,6.23841 62.31069,21.55585 83.77857,46.96937 7.66067,9.06865 19.22143,25.96282 19.22143,28.08899 0,1.13729 -71.09385,47.3559 -74.02959,48.12715 -1.01577,0.26686 -3.50505,-2.50636 -7.4104,-8.25566 -14.59025,-21.47921 -29.94437,-30.78031 -53.06001,-32.14226 -22.47644,-1.32429 -39.87247,7.53215 -48.23699,24.55779 -2.58794,5.26764 -2.76301,6.44904 -2.76301,18.64502 0,12.73154 0.074,13.17128 3.32725,19.77963 7.86932,15.98486 20.01112,23.83173 70.67275,45.67362 56.6081,24.4056 81.60731,39.14625 103.49571,61.02572 22.93642,22.92706 33.74976,46.91481 37.16274,82.43994 4.09186,42.59148 -8.64315,81.23189 -35.63016,108.10859 -23.67885,23.58206 -56.9725,38.12966 -98.3375,42.96838 -13.82855,1.61761 -42.15276,1.77127 -56.69079,0.30755 z"
       id="path87"
       inkscape:connector-curvature="0" />
    <path
       style="fill:#504d33"
       d="M 406.44866,967.03976 C 355.07709,962.4136 314.66936,939.05509 288.74711,899 283.1747,890.38951 278,880.82928 278,879.14479 c 0,-0.99192 74.02732,-46.07767 76.88148,-46.82405 1.28698,-0.33655 3.04596,1.79913 7.04227,8.55045 13.93701,23.54501 27.84447,35.64929 45.07625,39.23185 8.38041,1.74233 29.06259,0.60166 36.5,-2.01305 11.27486,-3.96381 20.36182,-12.79089 24.50863,-23.80768 5.7172,-15.18883 5.37214,-3.46911 5.72782,-194.54189 l 0.32717,-175.75959 48.21819,0.25959 L 570.5,484.5 V 660 c 0,140.17418 -0.2672,177.51287 -1.32748,185.5 -5.14902,38.78799 -16.93148,64.6023 -39.13529,85.74188 -19.45332,18.52091 -43.47956,29.57088 -74.38403,34.21012 -12.33909,1.85229 -37.31682,2.65829 -49.20454,1.58776 z M 784,966.99132 c -61.88819,-5.12042 -111.88987,-31.3938 -143.34966,-75.32308 -6.8904,-9.6215 -13.65979,-20.96848 -13.62752,-22.84271 0.0258,-1.50094 76.7159,-46.10504 77.95452,-45.33954 0.44061,0.27231 3.88845,4.85866 7.66188,10.19188 17.44045,24.64967 39.08504,39.98511 64.86078,45.9546 11.33484,2.62507 37.91809,2.63071 48.5,0.0103 16.2823,-4.03202 30.91815,-13.48459 37.78742,-24.40502 5.05394,-8.0345 6.48355,-14.08196 6.04642,-25.57727 -0.33763,-8.8787 -0.78865,-11.01675 -3.57516,-16.94807 C 857.92256,794.96828 843.79881,785.96773 783.5,759.97327 753.88672,747.20716 743.66358,742.23704 729.5,733.72039 714.62364,724.77515 702.63534,715.39668 691.97044,704.36093 674.75269,686.54448 665.23676,668.95671 659.31192,644 c -3.3616,-14.15979 -4.37159,-44.66802 -1.94117,-58.63569 8.27182,-47.53826 38.9893,-82.51695 86.37872,-98.36142 18.78948,-6.28218 32.09218,-8.25622 55.75053,-8.27302 42.71213,-0.0303 72.37521,8.89908 99,29.80178 12.90263,10.12965 22.73856,21.18251 33.71921,37.89108 4.75328,7.23276 5.61928,9.15745 4.57235,10.16205 -2.72724,2.61692 -73.15752,47.30708 -73.8652,46.86971 -0.41059,-0.25376 -3.24132,-4.21083 -6.29051,-8.79348 -10.61966,-15.96036 -24.89387,-26.65478 -40.39255,-30.26263 -3.79739,-0.88398 -11.11195,-1.5609 -16.7433,-1.5495 -17.16424,0.0347 -27.48722,4.10658 -37.47237,14.78073 -6.97863,7.46018 -9.98822,14.56388 -10.74855,25.37039 -0.96276,13.68365 2.98323,25.16766 11.88019,34.57489 9.87774,10.44425 22.13971,17.19372 64.34073,35.41566 55.9394,24.15401 82.5548,40.00286 103.56909,61.67294 17.78984,18.34502 27.51527,36.74124 33.07285,62.55926 2.59979,12.07745 3.60149,39.83286 1.91977,53.19357 -3.63891,28.90989 -15.20519,52.97993 -34.9369,72.70549 -9.23871,9.23584 -22.51285,18.97387 -33.43038,24.52483 -15.4696,7.86545 -39.07443,14.93354 -59.2879,17.75283 -13.94554,1.94507 -40.68233,2.72735 -54.40653,1.59185 z"
       id="path85"
       inkscape:connector-curvature="0" />
    <path
       style="fill:#31322f"
       d="m 403,965.87736 c -40.38587,-4.07128 -76.19615,-21.76545 -100.17581,-49.49774 -9.33635,-10.79742 -23.83588,-33.0873 -23.81765,-36.61447 0.006,-1.23263 74.50461,-46.78223 76.49346,-46.76951 0.55,0.004 2.31388,2.36844 3.91973,5.25538 10.50414,18.88396 22.86344,32.43347 34.71646,38.05969 9.23836,4.38513 15.50624,5.69392 27.16303,5.67193 27.76833,-0.0524 42.89855,-10.71599 50.34523,-35.48264 1.70448,-5.66889 1.82029,-15.80918 2.09855,-183.75 L 474.03751,485 H 522.01875 570 v 169.85478 c 0,108.63041 -0.37458,174.46767 -1.03919,182.65232 -2.48958,30.65887 -10.37575,55.48802 -23.99288,75.54013 -9.77649,14.39651 -27.3432,29.56063 -43.96323,37.9504 -24.75575,12.49666 -63.41714,18.36649 -98.0047,14.87973 z m 378.16858,0.0177 C 718.68577,960.33782 668.95221,932.50581 637.50911,885.5 629.07017,872.88421 627.25403,869.3355 628.57713,868.04702 629.56123,867.08866 703.7322,824 704.39778,824 c 0.21673,0 3.47839,4.37543 7.24814,9.72318 8.14046,11.54805 21.39915,25.25192 30.14835,31.16066 9.35962,6.32098 21.46217,11.78466 32.70573,14.76497 8.98115,2.38061 11.78298,2.65246 27.5,2.66819 14.85667,0.0149 18.70838,-0.30973 25.5,-2.14899 18.71113,-5.06723 32.4309,-15.17915 39.2126,-28.90099 3.29004,-6.65695 3.75027,-8.53155 4.10916,-16.73732 0.65541,-14.98524 -2.95038,-24.67117 -13.13131,-35.27354 -10.9598,-11.4135 -23.86566,-18.43547 -72.19045,-39.27819 -48.79957,-21.04751 -68.99101,-32.88692 -89.25372,-52.33463 -24.11101,-23.14123 -36.11089,-49.33672 -39.31376,-85.82119 -4.82699,-54.98504 19.9878,-101.59014 66.93019,-125.7028 26.17047,-13.44285 60.3496,-19.29257 94.63729,-16.19704 39.65037,3.57966 68.35834,16.32225 92.53483,41.07336 7.84754,8.03407 18.14889,21.44186 23.74402,30.90421 l 2.27884,3.85393 -35.77884,22.95326 c -19.67837,12.62429 -36.29943,23.25533 -36.93568,23.62453 -0.71339,0.41395 -3.27889,-2.51797 -6.69268,-7.64858 -6.75484,-10.1519 -18.04004,-21.05775 -26.34307,-25.45758 -12.83189,-6.79968 -33.00384,-9.25136 -46.84732,-5.69378 -23.87543,6.13566 -37.31574,26.16793 -33.64332,50.14414 1.69864,11.09 5.70436,18.68814 13.94877,26.45841 10.84599,10.22222 21.10886,15.76857 60.73445,32.82264 29.6523,12.76176 54.80204,25.07662 68.22035,33.40486 50.99958,31.65355 72.24641,67.79943 72.38168,123.13829 0.076,31.08398 -6.31248,53.92989 -21.39187,76.5 -10.71052,16.03099 -31.94576,33.61675 -51.8642,42.95085 -30.65641,14.36608 -71.31094,20.53436 -111.67738,16.94418 z"
       id="path83"
       inkscape:connector-curvature="0" />
  </g>
</svg>
