<?xml version="1.0" encoding="UTF-8" standalone="no"?>
<!-- Created with Inkscape (http://www.inkscape.org/) -->

<svg
   xmlns:dc="http://purl.org/dc/elements/1.1/"
   xmlns:cc="http://creativecommons.org/ns#"
   xmlns:rdf="http://www.w3.org/1999/02/22-rdf-syntax-ns#"
   xmlns:svg="http://www.w3.org/2000/svg"
   xmlns="http://www.w3.org/2000/svg"
   xmlns:sodipodi="http://sodipodi.sourceforge.net/DTD/sodipodi-0.dtd"
   xmlns:inkscape="http://www.inkscape.org/namespaces/inkscape"
   version="1.1"
   id="svg36"
   width="400"
   height="400"
   viewBox="0 0 400 400"
   sodipodi:docname="less.svg"
   inkscape:version="0.92.4 (5da689c313, 2019-01-14)">
  <metadata
     id="metadata42">
    <rdf:RDF>
      <cc:Work
         rdf:about="">
        <dc:format>image/svg+xml</dc:format>
        <dc:type
           rdf:resource="http://purl.org/dc/dcmitype/StillImage" />
        <dc:title></dc:title>
      </cc:Work>
    </rdf:RDF>
  </metadata>
  <defs
     id="defs40" />
  <sodipodi:namedview
     pagecolor="#ffffff"
     bordercolor="#666666"
     borderopacity="1"
     objecttolerance="10"
     gridtolerance="10"
     guidetolerance="10"
     inkscape:pageopacity="0"
     inkscape:pageshadow="2"
     inkscape:window-width="1920"
     inkscape:window-height="1017"
     id="namedview38"
     showgrid="false"
     inkscape:zoom="0.59"
     inkscape:cx="200"
     inkscape:cy="200"
     inkscape:window-x="-8"
     inkscape:window-y="-8"
     inkscape:window-maximized="1"
     inkscape:current-layer="svg36" />
  <g
     id="g46"
     transform="translate(-2.2033898e-6,5.0847427)">
    <path
       style="fill:#b9c4d2"
       d="m 41.343746,271.95858 c -5.447554,-1.07776 -11.188621,-4.08516 -14.540698,-7.617 -5.149618,-5.42578 -6.086297,-9.38375 -6.718934,-28.39112 -0.65232,-19.59876 -1.353017,-21.87787 -7.245783,-23.56789 L 9.5,211.42515 v -7.87336 -7.87335 l 3.5,-1.15357 c 5.795579,-1.91017 6.996618,-5.62364 6.998446,-21.63838 0.0019,-16.26291 1.101053,-22.87201 4.801726,-28.87117 3.618748,-5.86635 11.113827,-9.78326 21.512629,-11.24246 C 56.033559,131.40882 57,132.06604 57,140.04066 c 0,7.61036 -0.556503,8.78551 -4.511864,9.52754 -1.825319,0.34244 -4.369371,1.74085 -5.653449,3.10758 -2.19602,2.33738 -2.369332,3.47506 -2.917992,19.1546 -0.648785,18.54091 -1.881547,23.06533 -7.797161,28.61674 l -3.140467,2.94712 3.46164,3.55288 c 5.83394,5.98771 6.8253,9.6605 7.476452,27.69875 0.645599,17.8844 1.252768,19.59187 7.436533,20.91292 1.73047,0.36969 3.708808,1.12529 4.396308,1.67913 1.625199,1.30922 1.665158,12.94692 0.05,14.56208 -1.337683,1.33768 -8.12039,1.41209 -14.456254,0.15858 z m 305.128104,-0.17133 c -0.31614,-0.82385 -0.43913,-4.32872 -0.27332,-7.7886 0.31881,-6.65244 0.39096,-6.75068 6.67448,-9.08834 C 357.96354,253.01649 359,249.4308 359,233.71362 c 0,-15.44398 1.45502,-21.86347 5.95693,-26.28166 3.28436,-3.22329 3.7766,-4.9365 1.65252,-5.75159 -0.7648,-0.29348 -2.6773,-3.15412 -4.25,-6.35698 -2.70799,-5.51494 -2.88593,-6.69984 -3.35945,-22.37057 -0.57478,-19.02193 -1.22706,-20.86412 -8.20963,-23.18573 l -4.29037,-1.42648 -0.29774,-6.76032 c -0.39826,-9.04252 0.41503,-9.93714 8.21111,-9.03231 12.62088,1.46481 19.39861,5.61998 23.39901,14.34506 2.36146,5.15048 2.6181,7.07241 3.1523,23.60696 0.35739,11.0618 1.04321,18.82092 1.77926,20.12975 0.65874,1.17136 3.0297,2.86276 5.26879,3.75867 l 4.07109,1.62892 -0.29191,7.6552 -0.29191,7.6552 -3.5,1.15048 c -5.8343,1.91778 -6.99662,5.58186 -6.99845,22.06168 -0.002,22.36177 -3.09491,30.32441 -13.65455,35.15878 -6.77573,3.10203 -19.97932,4.42305 -20.87515,2.08857 z M 82.5,247.12907 c -2.2,-1.00486 -5.454962,-3.32269 -7.233249,-5.15074 C 68.866109,235.39856 68.923645,236.00319 69.226305,178.5 L 69.5,126.5 H 82 94.5 L 95,174 c 0.37227,35.36564 0.819054,48.05748 1.748939,49.68228 1.534142,2.68061 4.090721,3.55498 9.557481,3.26872 6.98525,-0.36577 6.69358,-0.75474 6.69358,8.92656 0,5.88601 -0.42122,9.22466 -1.25,9.9076 -3.95745,3.26111 -23.124495,4.14175 -29.25,1.34391 z m 63.04985,0.33104 c -7.66691,-1.93879 -13.10904,-5.17336 -18.44648,-10.96379 -7.43199,-8.06276 -10.80749,-19.4753 -9.84755,-33.29452 1.31749,-18.9666 11.27256,-32.68049 27.74418,-38.21979 9.05115,-3.04385 22.06183,-2.52858 30,1.18811 9.04848,4.23654 15.43315,11.81463 18.4157,21.85797 2.20842,7.43655 2.21011,24.51779 0.003,25.36492 C 192.54823,213.72686 181.0429,214 167.85082,214 h -23.9856 l 0.69408,2.25 c 2.78757,9.03655 8.03508,12.13908 20.4407,12.08531 6.86595,-0.0298 9.79581,-0.5586 15.24056,-2.75093 3.70731,-1.49274 7.19481,-2.43334 7.75,-2.09021 0.55715,0.34434 1.00944,4.61961 1.00944,9.54179 0,8.15554 -0.19235,9.04085 -2.25,10.35575 -7.37733,4.71432 -29.86465,6.93488 -41.20015,4.0684 z M 170,194.46788 c 0,-3.8635 -3.03549,-8.58476 -6.43189,-10.00387 -4.50577,-1.88263 -6.96039,-1.84623 -11.20109,0.16612 -2.91446,1.383 -8.36702,8.36093 -8.36702,10.70773 0,0.36418 5.85,0.66214 13,0.66214 11.01001,0 13,-0.23453 13,-1.53212 z m 48.5,53.93054 c -1.1,-0.27571 -4.40276,-0.96841 -7.33947,-1.53933 C 203.05056,245.28245 202,243.71496 202,233.19113 c 0,-5.54362 0.47085,-9.4528 1.27025,-10.54605 1.18516,-1.62079 1.67088,-1.53241 7.25,1.31919 12.63248,6.45669 29.47975,6.23698 29.47975,-0.38444 0,-2.82401 -2.58754,-4.65106 -10,-7.06096 -20.31157,-6.60361 -27.125,-13.39913 -27.125,-27.05366 0,-10.79636 6.12494,-18.93272 17.74417,-23.57136 5.21489,-2.08189 7.46619,-2.3429 19.88083,-2.30497 9.54759,0.0292 15.27212,0.49956 18,1.47906 l 4,1.43628 0.28823,9.91524 c 0.18312,6.29945 -0.10403,10.15768 -0.78744,10.58005 -0.59162,0.36564 -3.64632,-0.23648 -6.78823,-1.33806 -6.97431,-2.44523 -20.99378,-2.91478 -23.55742,-0.78901 -2.15225,1.78465 -2.10519,4.41029 0.11505,6.41958 0.9736,0.8811 5.8111,3.02554 10.75,4.76542 10.66954,3.75868 13.21259,5.00539 17.40378,8.53204 5.44582,4.58235 7.32565,9.57721 6.92492,18.40003 -0.29914,6.58613 -0.77669,8.30039 -3.34889,12.02154 -3.47942,5.03361 -9.8868,9.40663 -17,11.60247 -4.95006,1.52809 -24.14327,2.75158 -28,1.7849 z m 71,0 c -1.1,-0.27571 -4.40276,-0.96841 -7.33947,-1.53933 C 273.95552,245.26397 273,243.77898 273,232.62244 c 0,-12.04015 0.64275,-12.68359 8.60517,-8.61438 C 294.1583,230.42336 311,230.178 311,223.57983 c 0,-2.94782 -2.57403,-4.64072 -11.5,-7.56337 -19.01304,-6.22549 -25.70381,-13.05852 -25.79421,-26.34267 -0.0728,-10.69644 6.28637,-19.1382 17.91338,-23.77994 5.21489,-2.08189 7.46619,-2.3429 19.88083,-2.30497 9.54759,0.0292 15.27212,0.49956 18,1.47906 l 4,1.43628 0.28823,9.91524 c 0.18312,6.29945 -0.10403,10.15768 -0.78744,10.58005 -0.59162,0.36564 -3.54026,-0.16724 -6.55255,-1.18418 -10.62634,-3.58743 -24.29902,-3.25253 -25.78954,0.6317 -1.04487,2.72288 3.19741,6.34252 10.10274,8.61996 21.18069,6.98558 27.24814,12.92245 27.22918,26.64317 -0.008,5.6724 -0.49268,7.63246 -2.94597,11.90981 -3.3507,5.84199 -9.75256,10.59072 -17.49941,12.98061 -4.98628,1.53825 -24.1736,2.76826 -28.04524,1.79784 z"
       id="path60"
       inkscape:connector-curvature="0" />
    <path
       style="fill:#a8b5c6"
       d="M 37.365675,269.96459 C 32.902183,268.534 30.261905,266.92542 27.672111,264.05883 22.38441,258.20597 21,252.23592 21,235.28638 21,217.86714 20.0188,214.63212 14.020834,212.27605 L 10,210.69662 v -7.27076 -7.27076 l 3.535421,-1.16679 c 6.238507,-2.05889 6.880115,-4.15587 7.490079,-24.47996 0.517899,-17.2565 0.67512,-18.37615 3.347297,-23.83788 2.269777,-4.63926 3.775294,-6.28572 7.903587,-8.64348 C 37.444941,135.0751 48.43017,132.48521 53,133.14115 c 2.327533,0.33409 2.520695,0.79604 2.799984,6.69616 C 56.11826,146.56107 55.078385,149 51.893332,149 c -1.023978,0 -3.322641,1.30528 -5.108138,2.90062 l -3.246359,2.90062 -0.584782,16.84938 c -0.652454,18.79925 -1.582516,22.31511 -7.513346,28.40226 l -3.46164,3.55288 3.102049,2.94712 c 6.251061,5.93886 7.225275,9.30475 7.85091,27.12477 0.649086,18.48796 1.518776,20.78634 8.619258,22.77853 L 55.5,257.56408 v 6.96796 6.96796 l -6,0.21535 c -3.765988,0.13516 -8.284025,-0.51671 -12.134325,-1.75076 z m 310.099945,0.8064 c -0.31552,-0.82221 -0.43685,-4.10899 -0.26964,-7.30396 l 0.30402,-5.80902 4.29037,-1.42579 c 6.90949,-2.2962 7.54855,-4.09419 8.22138,-23.13101 0.63197,-17.88078 1.53505,-21.5766 6.35937,-26.02552 3.26992,-3.01547 3.26441,-3.9403 -0.0421,-7.07569 -4.7731,-4.52601 -5.64119,-8.20478 -6.31183,-26.7481 -0.7134,-19.72571 -1.44232,-21.70079 -8.89786,-24.10982 l -4.20254,-1.35793 0.29163,-7.13147 c 0.34366,-8.40382 0.58057,-8.54683 11.05683,-6.67462 8.94652,1.59883 15.28151,5.82059 18.6632,12.43752 2.34165,4.58189 2.54839,6.18056 3.04551,23.5495 0.59842,20.90811 1.20975,22.95034 7.49067,25.02323 L 391,196.1551 v 7.19833 7.19833 l -4.25,1.97412 c -5.74598,2.669 -6.61791,5.65083 -6.718,22.97412 -0.12795,22.14434 -2.59963,28.58144 -12.76077,33.23336 -6.89938,3.15865 -18.9016,4.39345 -19.80561,2.03763 z M 82.5,246.17541 c -4.943756,-2.37697 -8.834144,-6.4336 -11.196952,-11.67541 -1.645227,-3.64988 -1.828887,-8.33275 -2.098244,-53.5 -0.162358,-27.225 -0.04129,-50.5125 0.269052,-51.75 0.545522,-2.17533 0.958323,-2.25 12.438207,-2.25 9.905007,0 11.974611,0.26229 12.480948,1.58179 C 94.726855,129.45177 95,151.00192 95,176.471 95,230.80979 94.340848,227.5 105.16253,227.5 H 111.5 l 0.28908,8.75989 0.28907,8.7599 -2.78907,1.08715 c -1.534,0.59794 -7.28908,1.29067 -12.78908,1.53942 -8.431526,0.38132 -10.62739,0.15061 -14,-1.47095 z m 60.80052,-0.25234 c -11.54136,-3.65742 -19.79073,-12.14194 -23.41871,-24.08626 -1.78068,-5.86251 -2.05383,-8.71674 -1.64445,-17.18353 0.77179,-15.96249 5.31679,-25.36406 16.10882,-33.32201 C 141.6663,165.93349 148.07441,164 158.64399,164 c 19.46494,0 32.57853,11.32506 35.31677,30.5 1.3943,9.76381 1.28884,16.04796 -0.29134,17.35939 -0.86994,0.72199 -9.78445,1.19712 -25.75,1.37245 L 143.5,213.5 l 0.33296,2.5 c 0.59392,4.45934 3.61532,8.44957 8.18992,10.81607 3.9954,2.06687 5.55307,2.276 14.47712,1.94372 7.74496,-0.28838 11.00075,-0.86703 14.43783,-2.56606 C 187.91187,222.74629 188,222.8309 188,232.97432 v 8.97432 l -3.08623,1.59595 c -8.89496,4.59976 -30.67536,5.84466 -41.61325,2.37848 z m 27.18522,-49.9 c 1.1105,-1.79682 -1.50472,-8.89284 -4.00115,-10.85653 -6.66689,-5.24418 -16.92989,-2.47844 -21.17896,5.70744 -1.24872,2.4057 -2.02678,4.7682 -1.729,5.25 0.74949,1.21271 26.15614,1.11743 26.90911,-0.10091 z m 41.17121,50.07774 c -3.76368,-0.98115 -7.24429,-2.41771 -7.73469,-3.19236 -1.16694,-1.84334 -1.18878,-19.6257 -0.025,-20.34496 0.4935,-0.305 3.981,0.90373 7.75,2.68607 5.76137,2.72453 8.20642,3.28684 15.35272,3.53081 9.88928,0.33763 13.3362,-0.91729 13.81408,-5.02927 0.38229,-3.2895 -3.05097,-5.67027 -12.81408,-8.88584 -8.90798,-2.93392 -13.89955,-5.51518 -17.83532,-9.22306 -12.36211,-11.64633 -7.93431,-30.39793 9.0271,-38.22951 C 225.24071,164.61972 226.09599,164.5 240,164.5 c 9.50193,0 15.7926,0.4576 18.25,1.32755 l 3.75,1.32755 v 9.25579 c 0,5.09068 -0.24621,9.50199 -0.54714,9.80291 -0.30092,0.30093 -3.33842,-0.3483 -6.75,-1.44272 C 242.59056,180.88551 229,182.52306 229,187.86807 c 0,2.91768 3.17871,5.03329 13.11053,8.72578 16.45379,6.11726 21.59488,10.3541 23.95439,19.74113 1.57741,6.27558 -0.0165,13.84545 -4.0784,19.36871 -3.61871,4.92068 -12.39766,9.73976 -20.42018,11.20936 -8.71295,1.59607 -22.06166,1.23357 -29.90939,-0.81224 z m 72.05409,0.33021 C 273.77081,244.02304 274,244.33946 274,233.02383 c 0,-5.44819 0.42035,-10.16558 0.9341,-10.4831 0.51376,-0.31752 3.77626,0.87286 7.25,2.64528 5.46044,2.78611 7.53491,3.26878 15.3159,3.56364 10.4141,0.39464 13.82576,-0.79673 14.31408,-4.99855 0.38225,-3.28916 -3.04946,-5.66917 -12.81408,-8.88703 -16.52126,-5.44444 -22.87119,-11.15383 -24.50226,-22.03061 -1.1346,-7.566 1.50257,-14.75023 7.3386,-19.992 7.57835,-6.80668 13.0378,-8.34168 29.66366,-8.34031 9.07581,7.5e-4 15.31898,0.46768 17.75,1.32755 l 3.75,1.3264 v 9.36344 c 0,5.14988 -0.34912,9.5792 -0.77583,9.84292 -0.42671,0.26372 -3.46421,-0.43768 -6.75,-1.55866 -7.0678,-2.41125 -17.66454,-2.85539 -22.22417,-0.93148 -6.48097,2.73461 -3.13249,8.49563 6.75,11.61329 9.91492,3.12789 19.71119,8.34166 22.86711,12.17034 7.63977,9.26837 5.75225,24.60448 -3.96205,32.19171 -4.26374,3.33014 -10.32396,5.94455 -16.37044,7.06231 -7.94269,1.46828 -21.73345,1.23961 -28.82358,-0.47795 z"
       id="path58"
       inkscape:connector-curvature="0" />
    <path
       style="fill:#8d9fb6"
       d="M 42.131739,270.92239 C 32.245331,268.97945 25.858174,263.9866 23.042113,256 22.363361,254.075 21.513715,244.5597 21.15401,234.85488 20.430763,215.34175 20.056649,214.22915 13.25,211.34856 10.059701,209.99843 10,209.85425 10,203.5 c 0,-6.35425 0.0597,-6.49843 3.25,-7.84856 6.855938,-2.90145 7.186504,-3.91601 7.844832,-24.07719 0.544477,-16.67452 0.809376,-18.68526 3.129192,-23.75241 3.949112,-8.62599 9.422816,-12.06985 22.024675,-13.85711 8.729017,-1.238 9.756801,-0.56157 9.735988,6.40771 -0.0187,6.26242 -0.478039,7.00954 -5.270108,8.57189 -6.324352,2.06192 -7.136312,4.35451 -7.793737,22.00578 -0.689948,18.52449 -1.891135,23.10222 -7.494104,28.56009 l -4.116811,4.01019 4.263152,4.11348 c 2.409827,2.32522 4.777173,5.79864 5.44554,7.9898 0.650313,2.13198 1.415633,10.62633 1.700712,18.87633 0.57937,16.7666 1.42552,19.56492 6.483511,21.44173 5.877115,2.18076 6.286724,2.61929 6.612952,7.0799 0.556678,7.61161 -0.236112,8.99437 -5.084846,8.8688 -2.327021,-0.0603 -6.196666,-0.49588 -8.599209,-0.96804 z m 305.335031,-0.1484 c -0.31615,-0.82386 -0.438,-4.1325 -0.27079,-7.35252 0.30286,-5.83227 0.31792,-5.85785 3.9499,-6.71274 2.00523,-0.47199 4.70523,-1.98496 6,-3.36216 2.22315,-2.36469 2.38506,-3.43148 2.91034,-19.17528 0.60967,-18.27322 1.58383,-22.12797 7.00871,-27.73359 l 2.96356,-3.06231 -2.65008,-2.43769 c -5.45524,-5.01805 -6.71037,-9.87986 -7.3415,-28.4377 -0.69805,-20.52567 -0.68895,-20.50414 -10.28691,-24.35405 -2.56455,-1.02869 -2.75,-1.50088 -2.75,-7.00207 0,-7.84606 0.89519,-8.5185 9.50843,-7.14253 8.17475,1.30592 13.18239,3.74354 17.2817,8.4124 4.50122,5.12661 5.33907,9.08482 6.06144,28.63579 0.7248,19.61654 1.4516,21.92571 7.72621,24.54741 3.39658,1.41918 3.42222,1.47839 3.42222,7.90305 0,6.35425 -0.0597,6.49843 -3.25,7.84856 -6.85223,2.89988 -7.18675,3.92385 -7.84257,24.006 -0.49759,15.2368 -0.91756,18.86677 -2.62,22.64544 -3.82795,8.49636 -10.24994,12.32574 -22.83258,13.61487 -5.1985,0.5326 -6.52215,0.37333 -6.98808,-0.84088 z M 84.5,246.79345 c -5.295361,-1.85101 -9.67153,-5.92643 -12.129965,-11.29636 L 69.981686,230.28024 70.240843,178.89012 70.5,127.5 H 82 93.5 l 0.5,47.83743 0.5,47.83743 2.805764,2.41257 C 99.590826,227.55227 101.21467,228 106.05576,228 H 112 v 7.87756 c 0,5.08601 -0.44296,8.24257 -1.25,8.9076 -3.29462,2.7149 -20.46947,4.02889 -26.25,2.00829 z m 63.5,0.17473 c -17.48541,-3.67177 -28.21386,-16.64842 -29.65621,-35.87081 -1.94105,-25.86868 13.48629,-45.37227 37.05243,-46.84251 17.1643,-1.07085 28.88323,5.45486 35.44893,19.73979 2.06421,4.49108 2.60723,7.47895 2.9731,16.35883 0.35147,8.53059 0.15057,11.0523 -0.93532,11.74003 -0.76061,0.48173 -12.35168,0.88276 -25.75793,0.89118 L 142.75,213 l 0.63655,3.25 c 1.35747,6.93079 6.54575,11.30088 15.36357,12.94072 7.27599,1.35312 17.01582,-0.0103 23.42269,-3.27888 2.14268,-1.09312 4.33035,-1.7189 4.86149,-1.39064 0.53113,0.32826 0.9657,4.1599 0.9657,8.51476 0,7.2881 -0.19389,8.04497 -2.43742,9.51499 -6.16091,4.03678 -27.45144,6.54048 -37.56258,4.41723 z m 22.79711,-52.50038 c 0.35098,-3.58184 -3.15751,-9.33164 -6.82713,-11.18849 -3.34294,-1.69155 -8.45349,-1.59776 -11.96795,0.21964 -4.85649,2.51139 -10.11669,10.88847 -8.48995,13.52059 0.40496,0.65525 5.4943,0.93485 13.81455,0.75895 L 170.5,197.5 Z m 45.43393,52.48701 c -2.89794,-0.5191 -6.83544,-1.59833 -8.75,-2.39829 L 204,243.10205 V 232.9344 c 0,-11.56599 -0.95013,-10.94659 9.85809,-6.42656 7.63183,3.19166 15.1373,4.11903 20.84691,2.57584 4.21382,-1.13892 7.295,-3.34876 7.295,-5.23203 0,-2.4535 -6.01669,-6.69111 -12.51252,-8.81267 -20.13137,-6.575 -26.22205,-13.1618 -25.31677,-27.37895 0.74366,-11.67903 8.24588,-19.05894 22.62742,-22.25853 8.53794,-1.89951 23.86107,-1.51669 30.70187,0.76703 l 4,1.33535 0.28917,9.37213 c 0.33013,10.69967 1.49036,9.93619 -10.24927,6.74442 -10.35666,-2.81577 -20.36327,-1.6875 -22.63208,2.55181 -1.58158,2.95521 1.14558,6.31546 6.80065,8.37938 24.46645,8.92947 29.34985,13.00054 30.12095,25.11042 1.0892,17.10559 -11.20469,26.94125 -34.82942,27.86509 -5.225,0.20432 -11.87103,-0.0532 -14.76896,-0.57232 z m 71,0 c -2.89794,-0.5191 -6.83544,-1.59833 -8.75,-2.39829 L 275,243.10205 V 233.05103 C 275,226.80142 275.39079,223 276.03324,223 c 0.56829,0 3.18427,1.09 5.81329,2.42223 10.41849,5.27945 23.46309,5.79601 28.87216,1.14332 2.60831,-2.24358 2.63499,-2.37682 0.98126,-4.90073 -2.09733,-3.20093 -3.41217,-3.91358 -14.33093,-7.76742 -12.6664,-4.47069 -17.10954,-7.56117 -20.56762,-14.3061 -3.01278,-5.87635 -2.28244,-16.7549 1.50953,-22.48496 6.064,-9.16333 19.35539,-13.82104 36.6013,-12.82623 5.27327,0.30419 11.38777,1.15398 13.58777,1.88842 l 4,1.33535 0.28917,9.37213 c 0.33013,10.69967 1.49036,9.93619 -10.24927,6.74442 -19.6203,-5.33437 -32.56911,4.52995 -14.86216,11.3219 19.65559,7.53942 25.15195,11.03184 27.97513,17.77555 1.92693,4.60286 1.65803,14.00093 -0.539,18.83793 -2.64343,5.81979 -9.3097,11.10926 -17.07205,13.54613 -7.54234,2.36779 -22.81034,3.28597 -30.81078,1.85287 z"
       id="path56"
       inkscape:connector-curvature="0" />
    <path
       style="fill:#7489a5"
       d="m 45.402109,271.0203 c -7.763087,-1.16463 -12.219735,-2.92128 -16.136835,-6.36054 -5.812582,-5.10351 -6.565687,-8.04438 -7.23653,-28.2586 C 21.354909,216.09677 20.809625,214.33869 14.224118,211.23781 10.535525,209.50099 10.5,209.42718 10.5,203.5 c 0,-5.9264 0.03598,-6.0012 3.721434,-7.73655 6.222929,-2.93015 7.072147,-5.79585 7.782893,-26.26345 0.643932,-18.54353 1.388264,-22.09735 5.681212,-27.12498 4.157511,-4.86902 13.543383,-8.34071 22.610151,-8.36315 L 55.09138,134 l -0.29569,6.6703 c -0.285108,6.4316 -0.40305,6.70455 -3.29569,7.62728 -4.266921,1.36112 -7.345819,4.48793 -8.495944,8.62816 -0.546096,1.96584 -0.995412,9.23008 -0.998479,16.14276 -0.007,15.81668 -1.471165,21.31253 -7.011296,26.3177 C 32.797426,201.37093 31,203.23471 31,203.52795 c 0,0.29323 1.597987,1.9362 3.551083,3.65105 6.202573,5.44593 6.795187,7.52473 7.416865,26.01725 0.643489,19.14129 1.436375,21.24592 8.914359,23.66217 l 4.20413,1.35842 -0.293219,6.64158 c -0.332142,7.52323 -0.329276,7.52135 -9.391109,6.16188 z m 303.227641,0.27612 c -1.22896,-1.22896 -0.68228,-13.34301 0.62025,-13.74428 0.6875,-0.2118 2.50146,-0.65976 4.03102,-0.99545 5.25439,-1.1532 6.40566,-4.8727 6.91999,-22.35681 0.50573,-17.19164 1.97577,-22.75835 7.21237,-27.31151 2.91644,-2.53581 3.32466,-4.66793 1.06011,-5.53692 -2.80104,-1.07486 -6.39955,-8.77529 -7.42877,-15.89679 -0.5528,-3.82506 -1.01402,-11.95061 -1.02491,-18.05678 -0.0176,-9.88429 -0.27031,-11.47484 -2.30344,-14.5 -1.53115,-2.27823 -3.48156,-3.69662 -5.91908,-4.30448 -3.60889,-0.89997 -3.63785,-0.9494 -3.96636,-6.76781 -0.18201,-3.22367 -0.18093,-6.30321 0.002,-6.84341 0.4976,-1.46618 8.11789,-1.18584 13.82355,0.50857 7.00269,2.07957 11.42538,5.33598 14.32574,10.54795 2.31713,4.16392 2.52091,5.69447 3.05718,22.9613 0.65288,21.02147 1.45806,23.8061 7.73877,26.76345 3.68545,1.73535 3.72143,1.81015 3.72143,7.73655 0,5.9264 -0.036,6.0012 -3.72143,7.73655 -6.22808,2.93257 -7.07419,5.79346 -7.76745,26.26345 -0.6938,20.48622 -1.89576,24.44549 -8.78087,28.92434 -5.02365,3.26795 -19.85856,6.61402 -21.6005,4.87208 z M 85.749387,246.60918 c -7.399401,-2.02533 -11.965213,-6.55805 -14.250909,-14.14762 -1.285229,-4.26756 -1.477693,-12.68257 -1.257934,-55 L 70.5,127.5 H 82 93.5 L 94,175 c 0.37227,35.36564 0.819054,48.05748 1.748939,49.68228 1.5614,2.72824 4.362271,3.71058 10.751061,3.77068 l 5,0.047 0.29153,7.13704 c 0.35779,8.75917 -0.60568,9.9822 -8.54093,10.84194 -3.16283,0.34267 -7.3256,0.80472 -9.2506,1.02678 -1.925,0.22205 -5.637776,-0.1814 -8.250613,-0.89658 z m 65.464143,0.32063 C 138.01444,245.2153 127.50736,237.82694 122.32707,226.61743 119.66601,220.85923 119.5,219.70724 119.5,207 c 0,-13.09091 0.0962,-13.70305 3.1744,-20.20071 8.84261,-18.66554 28.76855,-26.77359 49.54584,-20.16067 5.94133,1.89099 14.13511,9.1557 17.24212,15.28711 3.06822,6.05484 4.75064,14.96894 4.35495,23.07427 l -0.31731,6.5 -25,0.5 -25,0.5 0.10441,3.64117 c 0.237,8.26486 7.25059,13.08166 19.90627,13.67123 6.33457,0.29509 9.26385,-0.0744 14,-1.76611 3.29413,-1.1766 6.77682,-2.39584 7.73932,-2.70942 1.57461,-0.51299 1.75,0.28623 1.75,7.97465 v 8.54478 l -5.51258,2.06252 c -4.3917,1.64315 -21.25331,4.4761 -23.48742,3.94617 -0.275,-0.0652 -3.32891,-0.48606 -6.78647,-0.93518 z M 171.11069,196.75 c 0.50923,-5.75061 -1.94609,-11.0964 -6.07796,-13.23307 -4.19485,-2.16925 -10.65657,-1.91253 -14.69578,0.58384 C 146.80163,186.28572 143,192.43065 143,195.96016 143,197.91614 143.57553,198 157,198 c 10.4743,0 14.02788,-0.31479 14.11069,-1.25 z M 220.5,246.92962 c -3.85,-0.43589 -9.025,-1.40474 -11.5,-2.15299 l -4.5,-1.36046 -0.28498,-10.20808 C 204.05828,227.59364 204.12025,223 204.35274,223 c 0.23249,0 3.49031,1.4355 7.2396,3.19 12.67841,5.93295 29.39716,4.69188 30.20499,-2.24218 0.43451,-3.72959 -2.27505,-5.62916 -14.20841,-9.96098 -13.08438,-4.74963 -17.83802,-8.00307 -21.0885,-14.43318 -6.05576,-11.97954 -0.61233,-25.66647 12.49958,-31.42886 5.86189,-2.57618 19.67783,-4.4215 26.84272,-3.58525 8.67996,1.01308 14.5281,2.44595 15.36669,3.76505 1.02546,1.61302 1.00237,16.44648 -0.0266,17.08241 -0.44945,0.27777 -2.81195,-0.2086 -5.25,-1.08082 -2.43806,-0.87223 -8.14139,-1.80416 -12.67409,-2.07097 -9.68306,-0.56997 -13.96302,0.73837 -14.92262,4.56171 -0.90362,3.60031 3.65272,7.38186 12.29362,10.2031 19.7135,6.43644 26.42015,13.53858 25.07669,26.55547 -1.0223,9.90513 -7.16867,17.23626 -17.50147,20.87503 -3.82598,1.34735 -6.81157,1.84992 -17.70496,2.98032 -1.65,0.17122 -6.15,-0.0453 -10,-0.48123 z m 71,0 c -3.85,-0.43589 -9.025,-1.40474 -11.5,-2.15299 l -4.5,-1.36046 -0.28498,-10.20808 C 275.05828,227.59364 275.12025,223 275.35274,223 c 0.23249,0 3.49031,1.4355 7.2396,3.19 15.7519,7.37121 36.14877,3.06914 28.70503,-6.05441 -1.0542,-1.29209 -6.19591,-3.79656 -12.43527,-6.05706 -15.00029,-5.43457 -20.05202,-9.2125 -22.70205,-16.97775 -3.91044,-11.45852 1.96354,-23.75656 13.83995,-28.97598 5.86189,-2.57618 19.67783,-4.4215 26.84272,-3.58525 8.67996,1.01308 14.5281,2.44595 15.36669,3.76505 1.02922,1.61893 1.00052,16.44762 -0.0331,17.08641 -0.45301,0.27997 -3.6431,-0.36847 -7.08909,-1.44098 -7.04584,-2.19292 -18.58612,-2.59112 -22.56418,-0.77859 -1.41407,0.64429 -2.85327,2.29594 -3.19822,3.67034 -0.89009,3.54639 3.70321,7.34521 12.30488,10.17654 19.74663,6.49984 26.41254,13.59398 25.06269,26.67276 -1.00738,9.76057 -7.21423,17.12165 -17.48747,20.73945 -3.82598,1.34735 -6.81157,1.84992 -17.70496,2.98032 -1.65,0.17122 -6.15,-0.0453 -10,-0.48123 z"
       id="path54"
       inkscape:connector-curvature="0" />
    <path
       style="fill:#506b8e"
       d="m 40.273611,269.58622 c -7.510597,-1.85264 -12.611779,-5.58761 -15.34617,-11.23611 -2.070129,-4.27631 -2.375053,-6.68843 -2.884249,-22.81598 -0.637981,-20.20654 -1.3466,-22.48907 -7.6251,-24.56116 C 11.01285,209.84914 11,209.82143 11,203.60292 c 0,-6.04679 0.0994,-6.28672 3.178607,-7.67245 6.546165,-2.94597 7.251473,-5.139 7.960491,-24.7518 0.380298,-10.51975 1.186983,-19.29525 1.992077,-21.67075 2.979366,-8.79087 12.140913,-14.22061 24.926037,-14.77283 L 54.5,134.5 l 0.307212,5.39279 c 0.337679,5.92762 -0.283847,6.99921 -4.962804,8.55647 -6.380276,2.12349 -7.278324,4.78197 -7.922645,23.45331 -0.656362,19.02025 -2.047998,23.66813 -8.57779,28.64864 l -3.555355,2.7118 4.110153,3.75705 c 6.388353,5.83953 7.350659,9.14294 8.018388,27.52556 0.670436,18.45711 1.375029,20.38511 8.292476,22.69092 L 54.5,258.66667 v 5.91666 5.91667 l -4.5,0.18771 c -2.475,0.10323 -6.851875,-0.39244 -9.726389,-1.10149 z M 348,265.11985 c 0,-5.82211 0.15478,-6.22541 2.75,-7.16524 9.26787,-3.35626 9.55798,-4.04777 10.25939,-24.45461 0.51307,-14.92733 0.85449,-17.51639 2.80032,-21.23538 1.21881,-2.32945 3.33523,-4.96871 4.70315,-5.865 3.19046,-2.09048 3.12981,-2.98797 -0.40279,-5.96046 -5.18913,-4.36636 -6.39685,-9.14375 -7.06302,-27.93916 -0.69155,-19.51167 -1.3313,-21.29743 -8.62817,-24.08413 L 348,146.72828 v -5.89552 c 0,-7.06411 0.48758,-7.37636 9.08416,-5.8175 10.67412,1.93559 16.18596,5.74158 19.54839,13.49839 1.33698,3.08428 1.85693,8.10007 2.29773,22.16526 0.63242,20.1797 1.28888,22.28036 7.89111,25.25156 3.06998,1.38158 3.17861,1.63986 3.17861,7.55755 v 6.12708 l -3.84036,1.69437 c -5.79346,2.55607 -6.47014,4.88978 -7.15923,24.69053 -0.50831,14.60624 -0.94692,18.24957 -2.65251,22.03303 -3.66666,8.13368 -9.33212,11.37367 -22.0979,12.63745 L 348,271.28921 Z M 84.684977,246.05115 C 80.06646,244.55328 75.340189,240.33418 73.102368,235.71146 71.049014,231.4698 71,230.1636 71,179.68428 V 128 h 11 11 l 0.0056,44.75 c 0.0034,27.58533 0.400218,46.17093 1.034445,48.45451 1.524127,5.48774 5.248833,7.98214 11.424605,7.65096 l 5.03537,-0.27002 0.29222,7.71597 c 0.289,7.63093 0.26145,7.72782 -2.5,8.79077 -3.73901,1.43924 -20.07966,2.10302 -23.60724,0.95896 z M 146.5,245.59098 c -17.77053,-4.4033 -27.5,-18.17673 -27.5,-38.9301 0,-17.36974 8.56394,-31.81521 22.82485,-38.50047 5.08082,-2.3818 6.82713,-2.65806 16.67515,-2.63795 9.95696,0.0203 11.53876,0.28492 16.68187,2.79039 6.68581,3.257 11.13141,7.98614 14.70372,15.64152 2.28699,4.90098 2.58936,6.82432 2.60111,16.54563 l 0.0133,11 -24.46827,0.26827 c -13.45755,0.14755 -24.85281,0.65281 -25.3228,1.1228 -0.4727,0.4727 -0.37091,2.65053 0.2278,4.87397 1.35865,5.04563 7.5368,10.82406 12.75361,11.92845 7.31835,1.5493 17.44028,0.73717 24.04084,-1.92892 3.40834,-1.37669 6.43815,-2.26191 6.7329,-1.96715 0.29476,0.29475 0.53592,3.82436 0.53592,7.84357 0,7.15357 -0.0651,7.3413 -3.08623,8.9036 -7.87439,4.07201 -26.99236,5.62867 -37.41377,3.04639 z m 23.95019,-47.9309 c 2.43706,-1.78202 1.42736,-7.46372 -2.06368,-11.61258 -5.69464,-6.7677 -15.44986,-6.29625 -21.73846,1.05057 -4.38291,5.12045 -5.44599,8.8453 -3.02888,10.61273 2.4977,1.82636 24.32038,1.78511 26.83102,-0.0507 z m 43.05606,47.74456 c -3.84656,-0.86038 -7.57557,-2.04721 -8.2867,-2.63739 -0.91833,-0.76215 -1.20989,-3.56402 -1.00625,-9.67016 0.3296,-9.88358 -0.078,-9.65349 9.7867,-5.52405 10.97173,4.59283 25.91525,3.53332 27.95566,-1.98208 1.82936,-4.94492 -1.6126,-7.55909 -17.18555,-13.05247 -14.58723,-5.14566 -19.88958,-11.30854 -19.95816,-23.19717 -0.0311,-5.39686 0.43177,-7.2011 2.85187,-11.11553 5.42396,-8.77304 16.73374,-13.3007 32.79628,-13.12936 4.97194,0.053 11.5149,0.61553 14.5399,1.25 l 5.5,1.15357 0.28893,8.75 c 0.15927,4.82318 -0.12089,8.75 -0.62427,8.75 -0.50226,0 -2.88228,-0.73015 -5.28893,-1.62255 -2.61727,-0.97049 -7.80755,-1.67376 -12.91539,-1.75 C 231.76635,181.47531 228,183.18119 228,187.95047 c 0,3.79942 3.24882,6.31086 11.80409,9.12498 13.14129,4.3226 20.65052,9.12323 23.84769,15.24575 2.36399,4.52701 1.92642,14.9045 -0.83928,19.90463 -2.93258,5.30182 -9.41937,10.26642 -16.10663,12.32704 -7.57881,2.33535 -24.61306,2.77238 -33.19962,0.85177 z m 71,0 c -3.84656,-0.86038 -7.57557,-2.04721 -8.2867,-2.63739 -0.91833,-0.76215 -1.20989,-3.56402 -1.00625,-9.67016 0.32968,-9.88602 -0.0736,-9.659 9.7867,-5.50975 5.07478,2.1355 8.14449,2.74448 14,2.77736 9.51401,0.0534 14,-1.98175 14,-6.35142 0,-4.21091 -2.89183,-6.37898 -13.33638,-9.99858 -16.40455,-5.68507 -21.80992,-10.24018 -23.64706,-19.9274 -2.53585,-13.37145 4.99298,-23.512 20.44354,-27.5353 6.91952,-1.80183 21.44724,-1.90293 29.5399,-0.20557 l 5.5,1.15357 0.28893,8.75 c 0.15927,4.82318 -0.12089,8.75 -0.62427,8.75 -0.50226,0 -2.79946,-0.66551 -5.10487,-1.47891 -10.10424,-3.56498 -23.36736,-2.77545 -26.41264,1.57229 -3.12254,4.45804 0.67201,8.53323 11.15694,11.98207 13.04798,4.2919 20.65182,9.12716 23.78519,15.12489 2.2464,4.29996 1.81097,14.58472 -0.83928,19.82339 -2.74946,5.43478 -9.09014,10.38633 -16.04413,12.52914 -7.57881,2.33535 -24.61306,2.77238 -33.19962,0.85177 z"
       id="path52"
       inkscape:connector-curvature="0" />
    <path
       style="fill:#2a4b76"
       d="M 38.516089,268.33188 C 31.834776,266.28239 28.386679,263.66319 25.790953,258.66579 23.893038,255.01183 23.553084,252.28842 23.024072,236.5 22.62277,224.52308 21.97675,217.66346 21.09344,216 c -1.690005,-3.18264 -5.088509,-5.94911 -7.34344,-5.97776 -1.479974,-0.0188 -1.746661,-0.98662 -1.728358,-6.27224 0.02087,-6.02709 0.134609,-6.3035 3.188961,-7.75 6.596353,-3.12395 7.228703,-5.16482 7.846175,-25.32313 0.586123,-19.1349 1.516805,-23.46517 6.089339,-28.3324 3.079376,-3.27785 11.11557,-6.35078 18.383061,-7.02942 L 54,134.71079 v 6.14461 c 0,5.18391 -0.273607,6.14518 -1.75,6.14834 -2.569938,0.005 -7.930311,3.54044 -9.390642,6.19275 -0.801633,1.45596 -1.494896,8.55847 -1.884177,19.30351 -0.686184,18.94022 -2.168745,23.99166 -8.021815,27.33226 -4.239034,2.4194 -4.30927,3.7945 -0.34813,6.81581 6.59696,5.03174 7.723644,8.74468 8.35945,27.54818 0.646377,19.11611 1.446286,21.24772 8.874403,23.64864 L 54,259.18979 v 5.4051 V 270 l -5.25,-0.0697 c -2.8875,-0.0383 -7.49276,-0.75762 -10.233911,-1.59847 z M 349,264.46862 c 0,-4.38709 0.36203,-5.64772 1.75,-6.09374 9.85011,-3.16526 10.4112,-4.45549 11.22104,-25.8029 0.70954,-18.70321 1.51751,-21.65531 7.04547,-25.74231 3.71306,-2.74518 3.73713,-3.89636 0.13713,-6.55796 -5.40444,-3.99567 -6.49645,-8.07142 -7.17295,-26.77171 -0.47642,-13.16979 -0.99795,-17.72843 -2.31476,-20.23307 C 357.98002,150.06024 353.5284,147 350.54966,147 349.3183,147 349,145.73832 349,140.85754 v -6.14245 l 5.9939,0.62648 c 7.2344,0.75615 12.52435,2.84299 16.37926,6.46148 5.21334,4.89361 5.95118,8.07134 6.5985,28.41867 0.66,20.74566 1.24177,22.66399 7.81774,25.77828 3.03765,1.43859 3.1682,1.74765 3.18896,7.54911 0.0212,5.93333 -0.041,6.07178 -3.25281,7.23317 -6.1407,2.2205 -7.12382,5.47572 -7.76709,25.71772 -0.63233,19.89798 -1.45251,23.21359 -6.86991,27.77203 C 367.32971,267.43489 359.37189,270 353.3185,270 H 349 Z M 82.5,244.40092 C 78.011919,241.93062 76.013315,239.92197 73.64359,235.5 71.531665,231.55909 71.5,230.73924 71.5,180 V 128.5 H 82 92.5 l 0.5,47.728 0.5,47.72801 2.774666,2.77199 c 2.375496,2.37321 3.562363,2.76439 8.250004,2.7191 L 110,229.3942 v 7.19591 c 0,5.90615 -0.31366,7.32785 -1.75,7.93204 -0.9625,0.40487 -6.475,0.91475 -12.25,1.13307 -8.425983,0.31853 -11.092576,0.0708 -13.5,-1.2543 z m 61.17757,-0.3112 c -11.57553,-3.81338 -18.27093,-10.67859 -21.83301,-22.38673 -1.69472,-5.57036 -1.98672,-8.63832 -1.61799,-17 0.56819,-12.88466 3.02975,-19.63395 9.90394,-27.15541 7.3369,-8.02774 13.85007,-10.89583 25.83616,-11.37701 10.93868,-0.43913 15.65344,0.56847 22.25759,4.7567 9.42868,5.97949 14.01875,16.03567 14.18293,31.07273 l 0.0928,8.5 -24.72414,0.26741 c -27.96376,0.30246 -27.78734,0.2495 -25.26592,7.58382 2.98908,8.69468 9.84261,12.59374 22.19457,12.62681 6.18905,0.0166 9.82228,-0.56526 14.79009,-2.36848 l 6.58558,-2.39043 -0.29009,7.64043 L 185.5,241.5 180,243.40083 c -8.31644,2.87421 -28.52544,3.25749 -36.32243,0.68889 z m 28.80683,-47.04055 c 1.09921,-3.46331 -1.32358,-9.70078 -5.03314,-12.95782 C 164.36267,181.37953 163.20233,181 158,181 c -5.26475,0 -6.34589,0.3648 -9.632,3.25 -4.07962,3.58191 -7.72199,10.66395 -6.76594,13.15536 0.52199,1.3603 2.79065,1.59464 15.43754,1.59464 13.82282,0 14.86751,-0.13195 15.4448,-1.95083 z m 39.65922,47.37829 c -2.94601,-0.79251 -5.75851,-1.68945 -6.25,-1.99321 C 205.40213,242.1305 205,238.08352 205,233.44098 c 0,-8.38862 0.85935,-10.18163 3.57721,-7.46377 2.27678,2.27678 12.99857,5.02279 19.61146,5.02279 8.37307,0 13.5006,-1.91378 14.36603,-5.36193 1.4542,-5.79398 -1.12034,-7.78534 -18.24351,-14.11107 -13.37047,-4.93938 -18.12662,-10.05564 -19.00056,-20.43915 -0.96964,-11.5206 7.68911,-21.28521 21.39833,-24.13123 6.93378,-1.43945 20.77117,-1.41394 27.82918,0.0513 L 260,168.1418 v 7.9291 c 0,4.361 -0.26824,7.9291 -0.59609,7.9291 -0.32785,0 -3.07079,-0.71941 -6.09542,-1.5987 -7.63167,-2.21858 -21.26954,-1.65306 -24.20421,1.00369 -5.17022,4.68056 -1.00684,10.61445 9.89572,14.10394 20.62554,6.60145 28.00736,14.88927 25.1967,28.28919 -2.02732,9.66532 -9.17371,16.04552 -21.12327,18.85859 -7.29574,1.7175 -24.15767,1.59252 -30.92981,-0.22925 z m 71,0 c -2.94601,-0.79251 -5.75851,-1.68945 -6.25,-1.99321 C 276.40213,242.1305 276,238.08352 276,233.44098 c 0,-8.38862 0.85935,-10.18163 3.57721,-7.46377 2.27678,2.27678 12.99857,5.02279 19.61146,5.02279 8.37307,0 13.5006,-1.91378 14.36603,-5.36193 1.4147,-5.6366 -1.17977,-7.69834 -17.19842,-13.66705 -13.98915,-5.21248 -18.86843,-10.0563 -20.03275,-19.88712 -1.43698,-12.13303 6.78275,-21.8582 21.20668,-25.09067 6.32283,-1.41698 21.53786,-1.38644 28.26713,0.0567 L 331,168.1657 v 7.91713 c 0,4.35443 -0.26824,7.91714 -0.59609,7.91714 -0.32785,0 -3.07079,-0.71941 -6.09542,-1.5987 -7.63167,-2.21858 -21.26954,-1.65306 -24.20421,1.00369 -2.74808,2.48781 -2.68212,6.70353 0.14646,9.36084 1.2379,1.16295 6.3004,3.54185 11.25,5.28643 12.01986,4.23665 15.60272,6.16261 19.30186,10.3757 4.35038,4.9548 5.75453,10.62793 4.33775,17.52563 -1.9485,9.48641 -9.17737,15.90418 -21.06692,18.70312 -7.29574,1.7175 -24.15767,1.59252 -30.92981,-0.22925 z"
       id="path50"
       inkscape:connector-curvature="0" />
    <path
       style="fill:#1d406e"
       d="M 45.403024,268.95055 C 35.22268,267.62171 29.916119,264.50121 26.306659,257.721 24.946882,255.16672 24.471879,250.76631 24.011856,236.46202 23.35328,215.98382 22.419141,212.96445 15.722164,209.66764 12.268053,207.96724 12,207.51861 12,203.43797 c 0,-4.11964 0.251292,-4.52552 3.979393,-6.42746 6.549893,-3.3415 7.30388,-5.89318 7.999108,-27.07098 0.59139,-18.0147 0.691875,-18.70135 3.417324,-23.35198 3.385331,-5.77663 9.963559,-9.23769 19.440077,-10.22819 L 53,135.71509 v 5.03405 c 0,4.49296 -0.26043,5.09941 -2.422928,5.64216 -4.284804,1.07542 -8.2611,5.29678 -9.454843,10.03756 -0.617226,2.45123 -1.124739,9.99501 -1.127806,16.76396 -0.0072,15.88662 -0.924093,19.11339 -7.089756,24.95047 C 30.2071,200.69709 28,203.28046 28,203.88409 c 0,0.60364 1.554098,2.11416 3.453552,3.35672 6.63208,4.33847 7.912992,8.245 8.610137,26.25919 0.340558,8.8 1.106941,17.1784 1.703074,18.61868 C 43.180579,255.5345 47.646643,259 50.634859,259 52.83503,259 53,259.38363 53,264.5 c 0,3.025 -0.3375,5.44294 -0.75,5.3732 -0.4125,-0.0697 -3.493639,-0.48494 -6.846976,-0.92265 z M 350,264.40484 C 350,260.19023 350.34126,259 351.54966,259 c 2.8254,0 7.39631,-2.9941 8.80399,-5.76693 0.93782,-1.84729 1.54798,-7.96945 1.88265,-18.88996 0.55192,-18.00966 1.94284,-22.88144 7.76085,-27.18288 1.65157,-1.22106 3.00285,-2.70929 3.00285,-3.30719 0,-0.59789 -1.69225,-2.72936 -3.76056,-4.73658 -2.06831,-2.00723 -4.34081,-5.44207 -5.05,-7.63298 -0.7092,-2.19092 -1.55819,-11.28585 -1.88665,-20.21098 -0.68377,-18.57953 -1.62261,-21.29612 -8.33377,-24.11434 -3.80858,-1.59933 -3.94904,-1.82669 -3.95885,-6.40816 -0.0101,-4.71446 0.0147,-4.75 3.30833,-4.75 5.00638,0 13.22225,2.74268 16.51462,5.51304 5.62048,4.72931 6.52255,8.23401 7.20352,27.98696 0.73737,21.38845 1.69764,24.69648 7.92885,27.31387 3.94812,1.65838 4.01434,1.77121 4.02434,6.85667 0.01,4.89403 -0.14472,5.20457 -2.88614,5.80669 -1.59297,0.34987 -3.56014,1.39812 -4.3715,2.32945 -3.62527,4.16131 -4.12773,6.80568 -4.69203,24.69332 -0.49095,15.56257 -0.84857,18.54165 -2.64099,22 -3.31454,6.39519 -9.09722,9.49646 -20.14917,10.80608 L 350,269.80969 Z M 87.916544,244.97396 C 82.587126,244.07422 77.73082,240.63495 74.96191,235.79941 L 72.5,231.5 72.207424,180.25 71.914849,129 H 81.957424 92 l 0.0037,46.75 c 0.0036,44.53947 0.09567,46.90077 1.947982,49.93863 2.238159,3.67067 7.214388,5.48323 12.637588,4.60316 l 3.5084,-0.56933 -0.29886,6.8474 -0.29885,6.8474 -3.5,0.68462 c -5.67248,1.10958 -14.231723,1.52234 -18.083454,0.87208 z m 63.937156,-0.0284 c -12.51115,-1.43116 -22.34959,-8.13926 -27.57906,-18.8041 -2.41663,-4.92843 -2.81189,-7.05808 -3.12703,-16.84861 -0.28201,-8.76134 0.031,-12.45267 1.43448,-16.91456 3.49447,-11.10984 12.48955,-20.54882 22.91791,-24.04889 5.77127,-1.93701 17.98457,-2.18509 24.05917,-0.4887 5.83966,1.63079 12.76604,6.54119 15.89408,11.26797 4.102,6.19854 5.63181,11.47997 6.26354,21.6238 l 0.57497,9.23252 -25.39588,0.26748 L 141.5,210.5 l -0.31357,3.80368 c -0.44326,5.37704 3.64429,12.05175 9.10671,14.87066 7.65358,3.94968 21.67593,3.61212 33.16978,-0.79848 1.28602,-0.4935 1.53708,0.4762 1.53708,5.93678 v 6.52663 l -4.75,1.57119 c -4.33677,1.43451 -8.52088,2.11866 -18.25,2.98409 -1.925,0.17123 -6.49083,-0.0308 -10.1463,-0.44894 z m 21.2299,-47.22975 c 1.6912,-3.71179 -1.75789,-12.61626 -5.98148,-15.4423 -4.15878,-2.78268 -11.6672,-3.04831 -16.83586,-0.59562 -5.94273,2.82001 -11.67217,14.58282 -8.59959,17.65539 C 142.03333,199.7 149.01798,200 157.18811,200 c 14.50031,0 14.8796,-0.0545 15.89549,-2.28414 z M 221.5,244.90644 c -3.85,-0.32646 -8.9125,-1.13131 -11.25,-1.78855 L 206,241.92291 v -7.84521 -7.84522 l 6.25,2.6145 c 5.26146,2.20098 7.78001,2.61755 15.92345,2.63376 8.29268,0.0165 10.0769,-0.28134 12.5,-2.08672 3.09861,-2.30868 3.82036,-4.2904 2.89923,-7.96047 -0.80343,-3.20111 -3.39933,-4.76977 -15.46471,-9.34505 -5.57941,-2.11575 -11.88167,-4.99651 -14.00503,-6.40168 -4.74583,-3.14064 -8.11095,-9.7004 -8.08098,-15.75254 0.0896,-18.08601 20.46739,-27.2012 48.72804,-21.79652 l 5.25,1.00404 v 6.9291 c 0,3.811 -0.3375,6.92423 -0.75,6.91828 -0.4125,-0.006 -2.95902,-0.68096 -5.65893,-1.5 -5.46065,-1.65655 -18.14659,-1.98887 -21.87079,-0.57293 -3.59932,1.36846 -5.72028,3.90846 -5.72028,6.85046 0,4.46601 4.44015,7.88185 14.67961,11.29313 17.53512,5.84183 23.94877,12.63821 22.97378,24.34475 -1.27999,15.36861 -17.41614,23.59944 -42.15339,21.50185 z m 71,0 c -3.85,-0.32646 -8.9125,-1.13131 -11.25,-1.78855 L 277,241.92291 v -7.84521 -7.84522 l 6.25,2.55223 c 8.02731,3.27801 20.50535,4.18 26.00966,1.88016 4.22261,-1.76432 6.30181,-5.29164 5.35138,-9.07848 -0.83725,-3.33587 -3.55754,-5.02964 -14.77728,-9.20096 -16.05349,-5.96843 -20.73637,-9.87225 -22.36234,-18.6421 -1.25843,-6.78748 0.28081,-12.51922 4.62871,-17.23613 8.48541,-9.20559 23.86162,-12.15382 43.64987,-8.36944 l 5.25,1.00404 v 6.9291 c 0,3.811 -0.20304,6.9291 -0.45121,6.9291 -0.24817,0 -3.04271,-0.675 -6.2101,-1.5 -10.90237,-2.83971 -24.16475,-1.56204 -26.3598,2.53944 -3.27015,6.11034 0.99653,10.78799 13.70072,15.0204 17.53512,5.84183 23.94877,12.63821 22.97378,24.34475 -1.27999,15.36861 -17.41614,23.59944 -42.15339,21.50185 z"
       id="path48"
       inkscape:connector-curvature="0" />
  </g>
</svg>
