<?xml version="1.0" encoding="UTF-8" standalone="no"?>
<!-- Created with Inkscape (http://www.inkscape.org/) -->

<svg
   xmlns:dc="http://purl.org/dc/elements/1.1/"
   xmlns:cc="http://creativecommons.org/ns#"
   xmlns:rdf="http://www.w3.org/1999/02/22-rdf-syntax-ns#"
   xmlns:svg="http://www.w3.org/2000/svg"
   xmlns="http://www.w3.org/2000/svg"
   xmlns:sodipodi="http://sodipodi.sourceforge.net/DTD/sodipodi-0.dtd"
   xmlns:inkscape="http://www.inkscape.org/namespaces/inkscape"
   version="1.1"
   id="svg10"
   width="192"
   height="192"
   viewBox="0 0 192 192"
   sodipodi:docname="moon-icon.svg"
   inkscape:version="0.92.4 (5da689c313, 2019-01-14)">
  <metadata
     id="metadata16">
    <rdf:RDF>
      <cc:Work
         rdf:about="">
        <dc:format>image/svg+xml</dc:format>
        <dc:type
           rdf:resource="http://purl.org/dc/dcmitype/StillImage" />
        <dc:title></dc:title>
      </cc:Work>
    </rdf:RDF>
  </metadata>
  <defs
     id="defs14" />
  <sodipodi:namedview
     pagecolor="#ffffff"
     bordercolor="#666666"
     borderopacity="1"
     objecttolerance="10"
     gridtolerance="10"
     guidetolerance="10"
     inkscape:pageopacity="0"
     inkscape:pageshadow="2"
     inkscape:window-width="1920"
     inkscape:window-height="1017"
     id="namedview12"
     showgrid="false"
     inkscape:zoom="4.2604167"
     inkscape:cx="96"
     inkscape:cy="96"
     inkscape:window-x="-8"
     inkscape:window-y="-8"
     inkscape:window-maximized="1"
     inkscape:current-layer="svg10" />
  <g
     id="g22"
     transform="translate(0.93887513,-3.7555015)">
    <path
       style="fill:#e6e8e9;stroke-width:0.95999998"
       d="M 91.2,177.10292 C 58.516421,171.38225 31.159427,146.34768 23.029893,114.72 15.48807,85.378788 23.991228,53.691545 45.070864,32.583743 55.195999,22.445079 74.88,11.101507 74.88,15.40522 c 0,0.552871 -1.69006,4.116871 -3.755688,7.92 -20.532691,37.803734 -8.592886,86.39655 27.295714,111.08856 6.998474,4.81508 19.601054,10.33112 28.898064,12.64844 10.02208,2.49805 29.86456,2.95435 39.07805,0.89865 3.07786,-0.68673 5.87436,-0.97037 6.21442,-0.6303 2.2417,2.24169 -9.54332,12.87294 -22.37056,20.18044 -16.74016,9.53664 -38.84141,13.12731 -59.04,9.59191 z"
       id="path36"
       inkscape:connector-curvature="0" />
    <path
       style="fill:#dee1e2;stroke-width:0.95999998"
       d="M 89.380429,176.17172 C 78.594079,173.73307 71.307662,170.87047 62.906941,165.77112 43.751356,154.14341 31.42954,138.5901 24.364017,117.12 21.850377,109.48177 21.678261,107.91646 21.672296,92.64 21.666122,76.83091 21.761854,76.033601 24.730269,67.171551 29.677018,52.403287 39.737334,37.400459 50.583829,28.616448 60.491502,20.592742 73.92,13.167727 73.92,15.713187 c 0,0.194253 -1.8898,4.056777 -4.199556,8.583389 -6.942434,13.605635 -8.72604,21.573238 -8.744629,39.063424 -0.01811,17.038422 1.211818,23.170908 7.286273,36.329779 16.879383,36.565191 58.670852,57.415221 98.124152,48.954771 2.54444,-0.54564 4.87095,-0.74735 5.17004,-0.44827 2.01405,2.01405 -12.06405,13.61788 -24.19956,19.94641 -3.6942,1.92649 -10.38872,4.68731 -14.87672,6.13515 -7.10033,2.2906 -10.02999,2.67463 -22.56,2.95721 -10.142957,0.22874 -16.215028,-0.0856 -20.539571,-1.06333 z"
       id="path34"
       inkscape:connector-curvature="0" />
    <path
       style="fill:#ccd1d3;stroke-width:0.95999998"
       d="M 92.971258,176.16614 C 73.897722,172.95551 57.278219,164.04591 44.033314,149.93088 32.515022,137.6559 25.542064,123.64553 22.610838,106.88794 20.754839,96.277334 20.735474,89.807144 22.529063,79.56575 26.200961,58.599204 36.184196,41.012895 51.661514,28.246482 57.86241,23.131694 71.387665,15.387664 72.382474,16.382474 c 0.277342,0.277342 -1.418422,4.372743 -3.768365,9.100892 -6.681308,13.442975 -8.440631,21.337792 -8.440631,37.876634 0,11.283449 0.394537,15.374649 2.08301,21.6 2.307096,8.5062 8.074732,21.22858 12.616586,27.82993 11.116288,16.15697 28.820216,28.76075 48.690136,34.66345 10.37924,3.08334 28.12618,4.14799 39.245,2.35432 3.99695,-0.64477 7.52668,-0.9128 7.84387,-0.59563 1.64286,1.64288 -14.71306,14.26596 -25.51031,19.6882 -9.42302,4.73212 -27.5458,8.77174 -38.58177,8.6 -3.432,-0.0534 -9.546931,-0.65376 -13.588742,-1.33413 z"
       id="path32"
       inkscape:connector-curvature="0" />
    <path
       style="fill:#bcc2c5;stroke-width:0.95999998"
       d="M 91.52791,175.21971 C 46.390341,167.02905 16.436422,125.49855 23.098611,80.343891 25.737866,62.455671 33.738132,46.770583 46.97424,33.534027 52.859546,27.648522 68.011698,17.28 70.727239,17.28 c 0.75534,0 -0.179138,2.786004 -2.495517,7.44 -16.368326,32.886732 -10.804517,71.365632 14.22867,98.40446 12.016266,12.979 26.196498,21.21348 45.219608,26.25909 6.81477,1.80751 27.24723,2.40706 36.24,1.06339 3.25718,-0.48668 5.04,-0.40926 5.04,0.21888 0,1.914 -13.00145,11.64834 -21.06446,15.77121 -18.21126,9.312 -37.17092,12.26612 -56.36763,8.78268 z"
       id="path30"
       inkscape:connector-curvature="0" />
    <path
       style="fill:#b6bdc1;stroke-width:0.95999998"
       d="M 93.905131,175.2021 C 72.207517,171.55081 52.256469,160.001 40.378674,144.21526 26.729788,126.07571 20.280822,104.03654 22.889198,84.445445 26.465453,57.584772 39.936149,36.230766 61.965983,22.500174 c 3.975798,-2.478007 7.431443,-4.302749 7.679208,-4.054983 0.247766,0.247767 -1.041652,3.680018 -2.865374,7.627226 -5.215611,11.288508 -7.353266,20.087984 -7.950424,32.727252 -0.822042,17.399119 1.859244,30.071169 9.621043,45.470091 15.923453,31.59114 53.800104,51.71453 89.429104,47.51258 5.18682,-0.61172 9.62006,-0.92275 9.85163,-0.69117 0.90002,0.90002 -12.39108,10.8754 -19.62677,14.73049 -8.74705,4.66032 -17.15289,7.45229 -28.39166,9.4302 -9.34013,1.64376 -15.81822,1.63127 -25.807609,-0.0497 z"
       id="path28"
       inkscape:connector-curvature="0" />
    <path
       style="fill:#b2b9bd;stroke-width:0.95999998"
       d="M 91.262709,174.69134 C 60.657788,168.28068 36.356132,146.98786 26.651794,118.08 c -2.951527,-8.79218 -3.061346,-9.68937 -3.055204,-24.96 0.006,-14.803866 0.183667,-16.373766 2.716808,-24 6.676464,-20.100057 17.638466,-34.716678 33.804477,-45.074545 8.494096,-5.442327 11.078055,-6.211567 8.706329,-2.591855 -0.812139,1.23948 -2.595331,4.911549 -3.96265,8.160154 -11.670866,27.728742 -8.000904,60.384124 9.571314,85.165706 5.983256,8.43802 19.083477,20.38278 27.775552,25.32571 15.71896,8.93894 33.07596,13.11325 50.91158,12.24409 5.808,-0.28302 11.37494,-0.83423 12.37099,-1.2249 3.68258,-1.44439 0.90243,1.96767 -5.71431,7.01313 -8.08743,6.16689 -17.5784,10.95625 -28.3295,14.2957 -6.81357,2.11639 -10.27937,2.56222 -22.00718,2.83095 -7.656,0.17543 -15.835781,-0.0824 -18.177291,-0.5728 z"
       id="path26"
       inkscape:connector-curvature="0" />
    <path
       style="fill:#acb4b8;stroke-width:0.95999998"
       d="M 93.12,174.19114 C 77.379307,171.31283 64.520438,165.36176 52.51032,155.397 43.832554,148.19708 37.613214,140.1843 32.114717,129.12 16.625788,97.952544 21.931694,62.507745 46.019582,36.23199 c 4.65198,-5.074511 20.71798,-16.854427 21.677805,-15.894603 0.226349,0.22635 -1.127675,3.971738 -3.008944,8.323084 -10.168318,23.51917 -9.252814,51.621357 2.439281,74.875779 12.546742,24.95423 36.176216,42.52651 64.792386,48.18348 6.26062,1.23763 23.55281,1.53937 30.31989,0.52908 l 4.32,-0.64496 -3.36,2.99585 c -11.44633,10.20578 -26.15825,16.97951 -42.72,19.66934 -10.43062,1.69405 -17.78409,1.67312 -27.36,-0.0779 z"
       id="path24"
       inkscape:connector-curvature="0" />
  </g>
  <path
     style="fill:#000000;stroke-width:0.95999998"
     d=""
     id="path20"
     inkscape:connector-curvature="0" />
</svg>
