<?xml version="1.0" encoding="UTF-8" standalone="no"?>
<!-- Created with Inkscape (http://www.inkscape.org/) -->

<svg
   xmlns:dc="http://purl.org/dc/elements/1.1/"
   xmlns:cc="http://creativecommons.org/ns#"
   xmlns:rdf="http://www.w3.org/1999/02/22-rdf-syntax-ns#"
   xmlns:svg="http://www.w3.org/2000/svg"
   xmlns="http://www.w3.org/2000/svg"
   xmlns:sodipodi="http://sodipodi.sourceforge.net/DTD/sodipodi-0.dtd"
   xmlns:inkscape="http://www.inkscape.org/namespaces/inkscape"
   version="1.1"
   id="svg10"
   width="512"
   height="362"
   viewBox="0 0 512 362"
   sodipodi:docname="reactjs.svg"
   inkscape:version="0.92.4 (5da689c313, 2019-01-14)">
  <metadata
     id="metadata16">
    <rdf:RDF>
      <cc:Work
         rdf:about="">
        <dc:format>image/svg+xml</dc:format>
        <dc:type
           rdf:resource="http://purl.org/dc/dcmitype/StillImage" />
        <dc:title></dc:title>
      </cc:Work>
    </rdf:RDF>
  </metadata>
  <defs
     id="defs14" />
  <sodipodi:namedview
     pagecolor="#ffffff"
     bordercolor="#666666"
     borderopacity="1"
     objecttolerance="10"
     gridtolerance="10"
     guidetolerance="10"
     inkscape:pageopacity="0"
     inkscape:pageshadow="2"
     inkscape:window-width="1920"
     inkscape:window-height="1017"
     id="namedview12"
     showgrid="false"
     inkscape:zoom="2.2596685"
     inkscape:cx="256"
     inkscape:cy="181"
     inkscape:window-x="-8"
     inkscape:window-y="-8"
     inkscape:window-maximized="1"
     inkscape:current-layer="svg10" />
  <g
     id="g20"
     transform="matrix(1.3395377,0,0,1.3095532,-86.717492,-58.511111)">
    <path
       style="fill:#e8f9fd"
       d="m 188.33198,314.0407 c -11.18901,-2.66504 -19.25885,-12.40827 -23.00001,-27.76938 -2.2807,-9.36447 -2.22968,-29.66738 0.10945,-43.55903 0.99907,-5.93325 1.64596,-10.91707 1.43753,-11.07517 C 166.67053,231.47903 162.45,229.85705 157.5,228.03272 132.48427,218.81316 114.56006,205.73575 108.11269,192 c -3.43613,-7.32047 -3.47055,-16.34461 -0.0893,-23.41309 6.51599,-13.62167 26.38604,-27.89048 50.97662,-36.6066 3.575,-1.26716 6.86642,-2.62004 7.31428,-3.00639 0.44785,-0.38636 0.0878,-4.47605 -0.80021,-9.0882 C 164.62611,115.27358 163.64383,106.1 163.33124,99.5 161.4761,60.331371 178.17811,40.243345 206.5399,47.531591 c 12.17761,3.12933 27.7406,11.898622 41.33259,23.289716 C 251.92737,74.219588 255.55028,77 255.92342,77 c 0.37314,0 3.80551,-2.640903 7.6275,-5.868673 20.43942,-17.261614 39.51948,-25.912966 54.92909,-24.906159 14.71831,0.961639 23.26431,9.413412 28.1955,27.884614 2.29875,8.610622 2.25207,30.863918 -0.0926,44.123928 -1.7057,9.6466 -1.57553,11.75773 0.72608,11.77547 2.61521,0.0202 23.14053,9.06426 30.91847,13.62366 10.75674,6.30557 21.50952,16.51982 25.33152,24.06287 5.7215,11.29186 3.28932,23.67346 -6.85431,34.89355 -8.57751,9.48776 -27.04461,20.40009 -44.97771,26.5776 -6.27717,2.16233 -6.73432,2.51616 -6.2445,4.83314 1.91836,9.07435 3.50403,24.04955 3.49425,33 -0.0582,53.28893 -35.42869,62.78018 -84.64278,22.71288 l -8.16605,-6.64833 -7.10892,5.9541 c -23.32186,19.53328 -45.46508,28.65721 -60.72701,25.02205 z m 19.87437,-19.02711 c 9.8399,-3.73887 32.89434,-19.50646 34.45047,-23.56167 0.32932,-0.8582 -1.53692,-3.72863 -4.61118,-7.09236 -2.84043,-3.10788 -8.05878,-9.35734 -11.59634,-13.8877 l -6.43192,-8.237 -6.27129,-0.6716 c -3.44921,-0.36938 -11.53235,-1.69522 -17.96253,-2.9463 l -11.69123,-2.2747 -1.02113,4.76137 c -4.20924,19.62699 -2.95432,42.86101 2.79673,51.77975 3.45783,5.36239 11.75074,6.15321 22.33842,2.13021 z m 116.78298,-0.84907 c 5.66994,-5.66994 8.14647,-22.03443 6.08325,-40.19714 -1.54783,-13.62571 -2.77164,-18.29684 -4.60897,-17.59179 -2.35218,0.90262 -21.54021,4.39154 -28.20665,5.12877 l -6.24303,0.6904 -6.75012,8.65262 c -3.71257,4.75894 -8.8907,11.01988 -11.50697,13.91321 -2.61626,2.89332 -4.75684,5.69162 -4.75684,6.21845 0,1.45744 17.38284,14.57706 24.87617,18.77517 9.08684,5.09087 15.57243,7.17461 22.45075,7.21314 5.08859,0.0285 6.18621,-0.32664 8.66241,-2.80283 z M 262.4161,251.82959 c 3.07114,-3.39373 5.5839,-6.54373 5.5839,-7 C 268,244.37331 262.6,244 256,244 c -6.6,0 -12,0.28759 -12,0.6391 0,1.02173 11.08295,13.3609 12.00066,13.3609 0.45734,0 3.34429,-2.77669 6.41544,-6.17041 z m 14.44669,-25.47304 6.15617,-0.64344 6.40868,-10.20897 C 297.58055,202.51663 308,182.88593 308,180.51299 c 0,-2.51831 -11.35488,-23.98884 -18.85568,-35.65354 -3.91724,-6.0918 -7.01735,-9.85986 -8.42176,-10.23634 -3.00251,-0.80488 -46.61219,-0.59506 -49.58236,0.23856 -1.60694,0.45101 -4.53455,4.13647 -9.17637,11.55181 C 213.97422,159.17692 204,178.04814 204,180.40103 c 0,2.33581 7.03668,16.02864 14.35832,27.94017 11.02001,17.9284 10.67614,17.52105 15.14168,17.93689 7.28886,0.67876 37.10329,0.73271 43.36279,0.0785 z M 249.5,209.12808 c -13.08179,-3.41932 -22.64393,-15.16438 -22.76447,-27.96135 -0.11014,-11.69317 5.32721,-21.11631 15.40567,-26.69858 C 246.90352,151.83038 248.44612,151.5 256,151.5 c 7.65473,0 9.04694,0.30815 14,3.09878 6.12494,3.45089 12.12119,10.52466 13.87036,16.36285 1.81166,6.0468 1.36747,15.91465 -0.94704,21.03837 -2.62357,5.80792 -8.18568,11.53952 -14.16956,14.60134 -5.12461,2.62215 -14.28799,3.82469 -19.25376,2.52674 z M 205.77145,220.75 c -0.80221,-1.2375 -3.6381,-6.04008 -6.30197,-10.67241 l -4.84341,-8.42241 -1.88111,4.42241 c -2.44801,5.7552 -4.29583,12.70488 -3.57081,13.42989 0.61757,0.61757 13.13212,3.24444 16.19086,3.39855 1.70179,0.0858 1.73736,-0.10294 0.40644,-2.15603 z m 109.01246,0.6596 c 4.23478,-0.87471 8.00782,-1.78088 8.38453,-2.0137 0.71456,-0.44163 -3.87503,-15.28297 -5.16971,-16.71723 -0.40777,-0.45174 -2.8947,2.92326 -5.52651,7.5 -2.63181,4.57673 -5.44146,9.33383 -6.24367,10.57133 -1.76966,2.7299 -1.54968,2.74686 8.55536,0.6596 z M 173.52223,209.25 c 0.91527,-3.1625 3.64721,-10.77295 6.07095,-16.91212 2.42375,-6.13916 4.40682,-11.5587 4.40682,-12.04341 0,-0.48471 -1.97398,-5.81176 -4.38663,-11.83788 -2.41264,-6.02612 -5.19482,-13.54409 -6.18262,-16.70659 -0.9878,-3.1625 -2.22475,-5.75 -2.74878,-5.75 -2.46461,0 -21.8043,8.53051 -28.93068,12.76098 -8.96282,5.32065 -18.22545,14.56838 -19.24603,19.21509 -1.49459,6.80481 6.06545,16.10488 19.66485,24.19095 5.7072,3.39345 26.97765,12.79635 29.00893,12.8238 0.37347,0.005 1.42791,-2.57832 2.34319,-5.74082 z m 186.28561,-1.83821 c 19.39594,-8.85178 31.55112,-20.94802 29.66757,-29.52374 -0.95014,-4.32597 -9.65551,-13.23495 -18.03711,-18.45897 -6.78651,-4.22985 -27.35538,-13.39829 -30.10677,-13.4199 -0.64266,-0.005 -2.15513,3.02832 -3.36106,6.74082 -1.20592,3.7125 -4.0116,11.3801 -6.23483,17.03912 l -4.04224,10.28912 3.63656,9.21088 c 2.0001,5.06598 4.74198,12.47248 6.09304,16.45888 1.35107,3.9864 2.72701,7.6857 3.05763,8.22067 0.67681,1.09508 8.01626,-1.39487 19.32721,-6.55688 z m -158.26768,-60.29232 5.48539,-9.38052 -5.26278,0.68881 c -2.89452,0.37885 -7.14032,1.15721 -9.4351,1.72969 l -4.17232,1.04086 1.26809,4.21356 c 2.80412,9.31737 4.95126,13.94348 5.80121,12.49894 0.45656,-0.77594 3.29854,-5.63205 6.31551,-10.79134 z m 119.09424,3.41029 c 1.51715,-4.65863 2.46581,-8.76289 2.10813,-9.12057 -0.92884,-0.92883 -11.72809,-3.37501 -14.98175,-3.39357 L 305.02156,138 l 3.92112,6.40635 c 2.15662,3.52349 4.86091,8.24849 6.00954,10.5 1.14864,2.25151 2.27637,4.09365 2.50608,4.09365 0.22971,0 1.65895,-3.81161 3.1761,-8.47024 z M 202.5,120.91439 c 6.6,-1.10871 13.39126,-2.22504 15.09169,-2.48073 2.27896,-0.34268 3.98285,-1.70946 6.48169,-5.19927 1.86449,-2.60392 6.93531,-8.93302 11.26848,-14.064671 l 7.87849,-9.330282 -2.78494,-2.90685 C 236.03073,82.335083 221.15238,72.062744 213.61466,68.414944 191.22774,57.581034 182.13684,63.209694 180.36756,89 c -0.54325,7.918655 1.74119,31.74891 3.28263,34.24301 0.3258,0.52716 2.00029,0.67244 3.72109,0.32284 1.7208,-0.34959 8.52872,-1.54275 15.12872,-2.65146 z M 328.39623,122.25 c 2.49447,-8.22078 3.86408,-27.754382 2.63443,-37.572602 -2.52771,-20.182674 -8.52292,-24.857838 -25.25094,-19.69108 -3.53702,1.092475 -10.37517,4.462576 -15.19588,7.489114 -8.58225,5.388099 -20.74455,14.853013 -21.42912,16.676508 -0.1899,0.505846 2.99343,4.841097 7.07407,9.63389 4.08065,4.79279 9.16752,11.07391 11.30416,13.95804 2.87533,3.88124 4.67506,5.36164 6.92593,5.69708 1.67262,0.24926 9.11612,1.54181 16.54112,2.87234 16.98846,3.04427 16.76045,3.03199 17.39623,0.93671 z M 268,115.92552 C 268,115.1366 257.08393,102.56901 256.09164,102.21551 255.27426,101.92432 244,114.61848 244,115.82998 c 0,0.36851 5.4,0.67002 12,0.67002 6.6,0 12,-0.25852 12,-0.57448 z"
       id="path38"
       inkscape:connector-curvature="0" />
    <path
       style="fill:#d7f5fd"
       d="M 185.74797,312.57325 C 171.60925,307.52764 163.99396,291.20008 164.02587,266 c 0.01,-7.50857 1.71066,-22.77212 3.51586,-31.54613 0.62564,-3.04088 0.61148,-3.05186 -8.2075,-6.36161 -35.40494,-13.28741 -54.75084,-31.53301 -53.0715,-50.05306 0.66488,-7.33246 3.63117,-13.02804 10.57821,-20.31129 9.03443,-9.47165 20.64626,-16.48723 40.15906,-24.2631 8.47816,-3.37855 10.45891,-4.54824 10.28659,-6.07453 -0.11738,-1.03966 -0.90488,-6.44803 -1.75,-12.01862 -0.84513,-5.57058 -1.52878,-15.24558 -1.51923,-21.499998 0.0302,-19.753835 4.01373,-32.11793 12.93117,-40.135476 5.74432,-5.164635 10.35567,-6.740904 19.66749,-6.722808 14.77528,0.02871 32.01483,8.805256 56.12914,28.574984 l 3.24516,2.660493 4.57949,-3.874427 c 9.88797,-8.365613 23.26555,-17.439754 31.43213,-21.32071 C 319.46452,40.002824 337.64449,46.446195 345.45886,72 c 2.63364,8.612307 3.09214,27.262179 1.02025,41.5 -0.96044,6.6 -1.79864,12.85361 -1.86268,13.89691 -0.0926,1.50908 2.03032,2.75132 10.38357,6.07596 20.15597,8.02219 30.90294,14.50428 40.12489,24.20152 8.19519,8.61758 10.30216,13.16585 10.34227,22.32561 0.0259,5.90355 -0.46881,8.51879 -2.32388,12.28618 -6.54252,13.28697 -26.06768,27.20599 -50.14328,35.74596 -3.575,1.2681 -6.97227,2.65986 -7.54949,3.09279 -0.72242,0.54183 -0.49982,3.99532 0.71424,11.08111 3.76776,21.99032 1.80839,46.3386 -4.6104,57.29143 -13.22734,22.57076 -43.61817,17.89633 -79.16216,-12.17596 C 259.58289,284.94468 256.72401,283 256.03912,283 c -0.6849,0 -3.56138,2.08781 -6.39219,4.63958 -12.11809,10.92356 -30.61465,21.74254 -42.38737,24.79316 -7.31899,1.89654 -16.42421,1.95601 -21.51159,0.14051 z m 28.37187,-19.75739 C 226.59568,286.62004 244,273.60898 244,270.47815 c 0,-0.62124 -1.17798,-2.22046 -2.61774,-3.55384 -1.43976,-1.33337 -6.68456,-7.49575 -11.65511,-13.69419 -5.21707,-6.50585 -9.92292,-11.43419 -11.13226,-11.65858 -2.35888,-0.4377 -27.39754,-4.54125 -32.23819,-5.28347 l -3.14329,-0.48197 -1.35512,7.34695 c -0.78491,4.25548 -1.34717,14.07948 -1.33623,23.34695 0.0169,14.32309 0.25921,16.60025 2.31176,21.72724 3.34273,8.3497 5.95613,10.04723 14.78602,9.60424 6.068,-0.30443 8.50559,-1.0454 16.5,-5.01562 z m 110.75022,2.80174 c 3.24282,-2.93472 6.13853,-11.1533 6.97372,-19.79278 0.87121,-9.01211 -0.0182,-25.53123 -1.8497,-34.35335 -1.1135,-5.3637 -1.32171,-5.64768 -3.83575,-5.23153 -1.46208,0.24201 -8.95833,1.45208 -16.65833,2.68905 -7.7,1.23696 -14.95378,2.4278 -16.11951,2.64632 -1.16573,0.21851 -4.00519,2.89486 -6.30991,5.94743 -2.30472,3.05258 -7.53844,9.4475 -11.63049,14.21094 -4.09205,4.76344 -7.44009,8.98167 -7.44009,9.37384 0,1.17456 14.83306,12.64635 22.65716,17.5229 10.27311,6.40295 19.38586,9.52268 26.55537,9.09119 3.65619,-0.22005 6.41267,-0.97743 7.65753,-2.10401 z m -61.94965,-43.35372 c 3.34377,-3.70486 6.07956,-7.19236 6.07953,-7.75 -4e-5,-0.63146 -4.90337,-1.02647 -13,-1.04726 -8.31332,-0.0213 -12.99304,0.33917 -12.98081,1 0.024,1.29491 11.85519,14.53338 12.98847,14.53338 0.45827,0 3.56903,-3.03125 6.91281,-6.73612 z m 19.13957,-25.73289 c 2.15939,-0.82934 13.71428,-19.53369 21.20955,-34.33275 L 309.5,179.89647 303.28402,167.98574 c -3.41879,-6.55091 -9.38384,-16.81278 -13.25567,-22.80416 l -7.03968,-10.89343 -6.74433,-0.63697 c -8.42849,-0.79602 -34.91251,-0.67195 -42.2015,0.19772 l -5.45717,0.6511 -6.27271,10 C 214.9435,156.24844 203,178.14365 203,179.90514 c 0,2.95569 18.15057,35.85062 24.60628,44.59486 1.10954,1.50285 3.14414,2.16574 8.18514,2.66678 7.68308,0.76364 43.92137,0.26567 46.26856,-0.63579 z M 246.71759,207.62354 C 234.202,202.95751 225.68146,189.63644 227.36343,177.36513 229.4437,162.18792 241.142,151.70588 256,151.70588 c 24.83372,0 37.88833,28.85513 21.36775,47.22999 -2.55344,2.84004 -6.49327,6.11244 -8.75518,7.27201 -5.23216,2.68225 -16.53706,3.41319 -21.89498,1.41566 z M 208,223.57625 c 0,-0.3626 -7.39715,-13.22408 -11.70877,-20.35812 -0.7585,-1.25502 -1.73571,-2.06146 -2.17157,-1.79209 -1.33435,0.82468 -6.60841,17.41854 -5.79477,18.23219 1.24362,1.24361 19.67511,4.91399 19.67511,3.91802 z m 107.6055,-1.64016 c 9.26631,-1.72933 9.2048,-1.63333 6.48993,-10.12827 -1.28451,-4.0193 -2.90349,-8.40991 -3.59772,-9.75692 -1.25238,-2.42998 -1.28303,-2.40806 -3.926,2.80759 -1.46507,2.89117 -4.44305,8.16369 -6.61774,11.71671 -2.17468,3.55301 -3.95397,6.71286 -3.95397,7.02187 0,0.30901 1.2375,0.31808 2.75,0.0202 1.5125,-0.29793 5.49747,-1.05444 8.8555,-1.68113 z M 173.52117,211.75 c 0.37404,-1.7875 3.10817,-9.60046 6.07585,-17.36213 l 5.39577,-14.11213 -4.89838,-12.38787 C 177.40031,161.07454 174.62607,153.475 173.92944,151 c -0.69663,-2.475 -1.56671,-4.85347 -1.93352,-5.2855 -0.80925,-0.95313 -14.45751,3.97673 -23.16687,8.36806 -13.32197,6.71705 -24.95496,16.58659 -26.4172,22.41262 -1.02374,4.0789 0.24232,9.36263 3.16002,13.18793 5.34593,7.00888 19.76049,16.00454 35.92813,22.4216 9.49132,3.76717 11.169,3.71767 12.02117,-0.35471 z m 175.706,0.88793 c 16.31697,-6.14423 32.25544,-16.18009 37.75618,-23.77365 3.38925,-4.67872 3.98251,-10.12661 1.59686,-14.66394 -1.78199,-3.3892 -8.68843,-9.98619 -14.58021,-13.92691 -9.87087,-6.60214 -32.4848,-16.27555 -34.03902,-14.56065 -0.3924,0.43297 -1.7307,3.93722 -2.97399,7.78722 -1.24329,3.85 -4.0157,11.4385 -6.16091,16.86334 l -3.90037,9.86334 4.41395,11.13666 c 2.42768,6.12516 5.20431,13.61166 6.1703,16.63666 2.68089,8.39526 2.22173,8.21351 11.71721,4.63793 z M 201.62335,148.24985 c 3.43742,-5.89049 6.07191,-10.88792 5.85442,-11.10541 -0.21749,-0.21749 -4.68896,0.37763 -9.9366,1.32249 -10.82514,1.94911 -10.73245,1.8203 -7.64666,10.62652 3.23582,9.23437 4.13896,11.20641 4.82022,10.52515 0.36232,-0.36232 3.47121,-5.47826 6.90862,-11.36875 z m 119.75247,2.24674 c 1.4433,-4.40187 2.62418,-8.50855 2.62418,-9.12594 0,-1.11906 -16.92235,-4.91187 -18.87167,-4.22971 -0.56432,0.19748 1.93867,5.44883 5.56221,11.66967 3.62354,6.22083 6.91964,10.94583 7.32468,10.5 0.40503,-0.44584 1.9173,-4.41214 3.3606,-8.81402 z m -116.20236,-29.35703 15.67347,-2.65148 3.75996,-4.99404 c 2.06797,-2.74672 7.32355,-9.19093 11.67905,-14.320461 l 7.9191,-9.326421 -2.35252,-2.515116 C 235.14178,80.157488 218.2489,69.153891 208.00809,65.28663 c -21.25912,-8.028128 -28.80945,1.005292 -27.73981,33.188664 0.27465,8.263586 1.07223,17.654336 1.7724,20.868336 1.2717,5.83752 1.27627,5.8429 4.36618,5.14552 1.70123,-0.38396 10.1462,-1.89128 18.7666,-3.34959 z m 123.7303,1.61044 c 1.93722,-5.1024 3.34743,-21.2237 2.88318,-32.959988 -0.71531,-18.082817 -4.78807,-26.309835 -13.61039,-27.493157 -5.47107,-0.733825 -15.73987,2.530777 -25.46495,8.095679 -7.79749,4.461892 -24.70949,17.402079 -24.71087,18.907477 -4e-4,0.440006 3.55522,5.005187 7.90137,10.144847 4.34616,5.139662 9.56245,11.568802 11.59176,14.286982 l 3.68965,4.94214 11.65825,1.73622 c 6.41203,0.95493 14.35824,2.33217 17.65824,3.06054 3.3,0.72838 6.34864,1.37043 6.77475,1.42679 0.42611,0.0564 1.15917,-0.91003 1.62901,-2.14753 z M 269,116.24264 c 0,-0.95025 -10.83326,-13.48501 -12.50546,-14.46961 -1.10684,-0.65171 -3.26256,1.52776 -13.33009,13.47697 -1.39288,1.65321 -0.71921,1.75 12.18056,1.75 C 262.85526,117 269,116.65919 269,116.24264 Z"
       id="path36"
       inkscape:connector-curvature="0" />
    <path
       style="fill:#c8f1fc"
       d="M 186.17275,312.15791 C 176.3922,308.66433 168.86034,298.37499 165.92699,284.5 c -1.7813,-8.42567 -1.54254,-28.02265 0.4975,-40.83382 0.94884,-5.95859 1.50876,-11.39773 1.24428,-12.08697 -0.26449,-0.68924 -4.01066,-2.49838 -8.32483,-4.02031 -10.0048,-3.52944 -23.34782,-10.12538 -30.92839,-15.28901 -7.92287,-5.39682 -17.01781,-15.12296 -19.62908,-20.99139 -4.58222,-10.2978 -1.9955,-22.23883 7.00986,-32.35954 7.78653,-8.75091 24.93181,-18.97342 43.45367,-25.90831 4.8125,-1.80189 8.74938,-3.77891 8.74863,-4.3934 -7.5e-4,-0.61449 -0.68655,-4.94225 -1.52401,-9.61725 -4.49015,-25.065819 -2.30423,-47.594751 5.7847,-59.619291 C 185.56516,39.60103 212.96869,43.98866 246.77554,71.311638 251.32709,74.990237 255.64485,78 256.37056,78 c 0.7257,0 2.17671,-0.952042 3.22445,-2.115649 4.56198,-5.06646 22.34564,-17.303161 31.70975,-21.819062 11.79868,-5.689983 19.00959,-7.499933 27.44819,-6.88954 23.58039,1.705651 33.33829,27.516522 26.67681,70.563481 -0.78637,5.08158 -1.42976,9.84174 -1.42976,10.57813 0,0.76572 3.74586,2.74808 8.75,4.63062 41.5886,15.64549 60.40052,37.92843 49.97418,59.19503 -3.61507,7.37365 -14.69104,17.88991 -25.54048,24.24982 C 369.71295,220.77216 348.64614,230 346.11905,230 c -2.03866,0 -2.16732,2.14876 -0.61219,10.22464 0.87645,4.55145 1.86284,13.75598 2.19197,20.45451 1.29032,26.26068 -4.94123,43.37831 -18.14293,49.8373 -14.7033,7.19365 -37.68306,-0.0645 -61.79027,-19.51645 -4.43057,-3.575 -8.88358,-7.11289 -9.89556,-7.86198 -1.6431,-1.21625 -2.45682,-0.83672 -7.60502,3.54717 -25.39812,21.62742 -48.80909,30.93183 -64.0923,25.47272 z m 17.89409,-14.7704 c 8.55809,-2.54148 17.95837,-7.71772 28.67191,-15.78812 5.44303,-4.10017 10.48863,-8.16844 11.21245,-9.04059 1.13351,-1.3658 0.49256,-2.5201 -4.62114,-8.32227 -4.65422,-5.28085 -11.62435,-13.86251 -17.96024,-22.11275 -0.1589,-0.20692 -7.84462,-1.63454 -17.07937,-3.17251 -9.23475,-1.53796 -17.54344,-3.09106 -18.46376,-3.45134 -2.27599,-0.89098 -3.38783,1.50061 -4.64897,10.00007 -1.95711,13.18988 -2.33357,22.00636 -1.281,30 1.42118,10.79311 2.69419,14.86038 5.81015,18.56348 4.41679,5.24906 9.05188,6.08824 18.35997,3.32403 z m 121.63599,-2.90919 c 4.98187,-5.20458 6.78075,-12.61934 6.78777,-27.97832 0.005,-12.00799 -1.74103,-27.66913 -3.38166,-30.32374 -0.50017,-0.80929 -3.32265,-0.59234 -10.15087,0.78024 -5.20194,1.04566 -13.35845,2.44622 -18.12558,3.11235 -4.76713,0.66613 -9.05375,1.48565 -9.52584,1.82115 -0.47208,0.3355 -2.40191,2.635 -4.28852,5.11 -1.8866,2.475 -6.93747,8.64295 -11.22416,13.70656 C 271.50729,265.77017 268,270.33031 268,270.8402 c 0,3.3184 22.22656,19.09887 33.84383,24.02853 11.62673,4.93368 18.87628,4.81505 23.859,-0.39041 z M 263.47044,252.3474 C 267.0617,248.13847 270,244.31347 270,243.8474 270,243.38133 263.7,243 256,243 c -7.7,0 -14,0.29115 -14,0.64701 0,1.39937 13.11154,16.35299 14.33852,16.35299 0.3313,0 3.54067,-3.44367 7.13192,-7.6526 z M 283.9038,225.5 c 2.89771,-2.95847 14.50587,-22.4449 20.70138,-34.75108 l 5.41261,-10.75107 -5.87053,-11.29573 c -7.50283,-14.43651 -18.68352,-32.2639 -21.45003,-34.20164 -2.87578,-2.01427 -48.7582,-2.19695 -52.69723,-0.20981 -3.98897,2.01233 -25.21854,37.55204 -26.6213,44.56581 -0.48816,2.44084 0.62949,5.38278 5.82464,15.33196 3.53579,6.77136 9.40306,16.89305 13.03838,22.49266 5.86984,9.04152 6.98176,10.23257 9.93397,10.64096 1.82837,0.25292 13.77441,0.39643 26.54675,0.3189 21.80134,-0.13233 23.34232,-0.26335 25.18136,-2.14096 z m -36.69884,-18.33457 c -6.73805,-2.40327 -11.90442,-6.57285 -15.69323,-12.6654 -2.45888,-3.95396 -3.05456,-6.11779 -3.36241,-12.21406 -0.46224,-9.15384 1.48947,-14.85392 7.21152,-21.06161 5.27992,-5.72803 10.64993,-8.37526 18.22264,-8.98312 12.16327,-0.97635 23.64626,5.89162 28.42551,17.00129 3.11344,7.2374 2.52256,18.46836 -1.31629,25.01887 -6.87846,11.73719 -21.24168,17.27186 -33.48774,12.90403 z M 207.82332,222.75 c -0.79559,-3.07583 -13.18885,-22.78 -13.87336,-22.0574 -1.51786,1.60231 -6.99401,18.66305 -6.23135,19.4135 0.83834,0.82491 14.25871,3.64061 18.10471,3.79851 1.39725,0.0574 2.19445,-0.40286 2,-1.15461 z m 107.81972,-0.3492 c 4.32133,-0.87956 8.20839,-1.92849 8.63791,-2.33095 0.82793,-0.77577 -4.5884,-17.7773 -6.16609,-19.35499 -0.57155,-0.57155 -1.47879,-0.0223 -2.35925,1.42824 C 312.22527,207.95938 304,222.81781 304,223.37886 c 0,1.00159 3.26405,0.72739 11.64304,-0.97806 z M 177.12827,202.42304 c 2.54554,-7.10767 5.4424,-15.02625 6.43746,-17.59684 l 1.80919,-4.6738 -3.73029,-9.3262 c -2.05166,-5.12941 -4.98769,-12.9262 -6.52452,-17.3262 -3.31536,-9.49202 -3.38537,-9.51024 -16.42418,-4.27488 -25.72531,10.32925 -40.83301,24.75764 -36.61966,34.97309 2.94934,7.15079 13.30374,15.92571 26.92373,22.81674 7.63862,3.86476 21.06743,9.00157 22.5,8.60674 0.55,-0.15159 3.08272,-6.09098 5.62827,-13.19865 z m 171.06213,10.97391 c 14.02252,-4.9936 26.70887,-12.32662 34.46256,-19.92017 5.45342,-5.3408 7.33733,-7.9081 7.86431,-10.71712 1.48063,-7.89247 -6.18978,-17.21051 -21.26981,-25.83865 -7.92835,-4.53625 -21.85829,-10.49318 -26.89187,-11.49989 -2.84158,-0.56832 -2.99728,-0.39639 -4.7504,5.24565 -0.99689,3.20828 -3.87208,11.16351 -6.38932,17.67829 l -4.57681,11.84506 1.82498,4.65494 c 1.62975,4.15699 9.97158,26.73592 11.04843,29.90494 0.54879,1.61501 0.18337,1.67198 8.67793,-1.35305 z M 201.82729,148.77739 c 6.56389,-11.40214 7.20484,-13.20215 4.42271,-12.4205 -0.9625,0.27042 -5.02911,1.05078 -9.03691,1.73414 -10.83811,1.84797 -10.80279,1.78923 -7.30235,12.1449 3.35627,9.92917 4.02685,11.27597 5.02941,10.1012 0.39293,-0.46042 3.49214,-5.66231 6.88714,-11.55974 z M 321.83603,150.5 c 3.57787,-10.65788 3.61616,-10.59047 -7.04912,-12.40897 -4.0078,-0.68336 -8.07441,-1.46372 -9.03691,-1.73414 -0.9625,-0.27041 -1.75,-0.0162 -1.75,0.56501 0,2.01211 13.33087,24.14705 14.07122,23.36424 0.40892,-0.43238 2.10309,-4.83614 3.76481,-9.78614 z M 203,122.02357 c 7.425,-1.21352 14.4427,-2.38131 15.59489,-2.59511 1.20934,-0.22439 5.91519,-5.15273 11.13226,-11.65858 4.97055,-6.19844 10.21535,-12.360821 11.65511,-13.694194 C 242.82202,92.742313 244,90.861494 244,89.896088 244,88.903279 240.56536,85.395296 236.09316,81.820402 215.9839,65.745893 196.8127,58.507997 188.41388,63.819561 c -8.4251,5.328186 -11.64165,27.862801 -7.37676,51.680439 1.74174,9.7269 1.75921,9.75721 5.31134,9.21289 1.73335,-0.26561 9.22654,-1.4758 16.65154,-2.68932 z M 329.39623,123.25 c 0.89082,-2.93578 2.45592,-14.30126 3.13283,-22.75 1.35556,-16.919171 -2.98265,-33.61472 -9.62737,-37.050836 -4.7712,-2.467285 -13.65542,-1.502209 -22.29084,2.421413 -8.43477,3.832456 -21.26817,12.307928 -28.49984,18.821958 l -5.38899,4.854207 7.38941,8.476629 c 4.06417,4.662149 9.55113,11.286689 12.19325,14.721199 2.64212,3.43451 5.79193,6.44149 6.99959,6.68217 1.20765,0.24068 7.14573,1.16253 13.19573,2.04854 6.05,0.88602 12.575,1.99548 14.5,2.46547 5.64686,1.37868 7.82261,1.19969 8.39623,-0.69075 z m -60.20811,-7.19148 c -0.32206,-1.47646 -8.85274,-11.70537 -11.80629,-14.15659 -1.48524,-1.23264 -2.42341,-0.56056 -8.52404,6.10649 -3.77031,4.12037 -6.85572,7.98765 -6.85645,8.59396 -9.2e-4,0.75502 4.3312,1.06827 13.74866,0.99416 11.36247,-0.0894 13.69585,-0.35649 13.43812,-1.53802 z"
       id="path34"
       inkscape:connector-curvature="0" />
    <path
       style="fill:#b7edfc"
       d="M 183.21981,310.42225 C 171.14926,304.40724 165.04742,289.67883 165.02326,266.5 c -0.0101,-9.6977 1.69849,-25.55887 3.54637,-32.9214 0.51021,-2.03286 0.17358,-2.71651 -1.71752,-3.48802 -1.29366,-0.52777 -7.49078,-2.99834 -13.77137,-5.49016 -21.55179,-8.55063 -38.08382,-20.96324 -43.54463,-32.69426 -9.41945,-20.23507 7.72034,-41.92657 44.54919,-56.37983 6.82809,-2.67964 12.88697,-5.2245 13.46419,-5.65524 0.72162,-0.53849 0.48403,-3.99921 -0.76046,-11.07713 -2.37733,-13.52078 -2.57568,-34.875184 -0.40918,-44.052892 2.04733,-8.672951 5.45767,-15.28627 10.28375,-19.942241 5.5027,-5.308739 10.43339,-7.110669 19.3364,-7.066521 14.69841,0.07289 32.17382,8.477679 51.95051,24.985573 4.13933,3.455166 7.75633,6.275887 8.03778,6.268268 0.28144,-0.0076 3.43671,-2.536433 7.01171,-5.619587 14.39612,-12.415511 32.49328,-22.590928 44.9171,-25.25536 6.99645,-1.500471 10.7478,-1.399882 16.99637,0.455743 10.32202,3.065311 17.53365,12.633897 20.69351,27.456692 1.9046,8.934442 1.35648,34.152525 -0.98844,45.476365 -1.71507,8.28224 -1.7308,8.25764 7.38146,11.54358 25.29002,9.11976 44.24136,22.68467 50.51281,36.15585 3.31021,7.1104 3.35687,15.40231 0.12547,22.30057 -6.3445,13.54401 -26.00904,27.41016 -51.88828,36.58823 -7.72739,2.74052 -7.45747,1.93849 -5.10253,15.16133 2.23645,12.55757 2.26035,34.08438 0.0478,43.02176 -2.92666,11.82178 -8.32034,19.87436 -16.10056,24.03759 -3.41911,1.82959 -5.66206,2.18188 -13.59468,2.13526 -8.24495,-0.0485 -10.55804,-0.47512 -17.50872,-3.22964 -10.11684,-4.00924 -21.49225,-11.02352 -32.91086,-20.29342 -10.28426,-8.34901 -8.23261,-8.54862 -21.36785,2.07889 -23.82647,19.2776 -46.67954,26.55482 -60.99276,19.42225 z m 26.55898,-14.63515 c 3.45334,-1.41783 8.78631,-4.08745 11.85106,-5.93249 6.4656,-3.89241 21.26126,-15.60383 22.70691,-17.97352 0.78372,-1.28467 -0.54693,-3.34928 -6.44507,-10 -4.08799,-4.6096 -9.56673,-11.16688 -12.17497,-14.57173 -4.36536,-5.69863 -5.11877,-6.2409 -9.47949,-6.82301 -2.60548,-0.3478 -9.91223,-1.55887 -16.23723,-2.69128 -6.325,-1.13241 -12.67337,-2.26622 -14.10748,-2.51958 -3.25923,-0.5758 -3.58367,0.213 -5.43103,13.2044 -3.43923,24.18604 -0.28266,43.51222 7.95239,48.68876 4.1709,2.62182 13.00554,2.05053 21.36491,-1.38155 z m 114.32333,0.92736 c 2.32827,-1.56608 4.18485,-4.16308 5.89788,-8.25 2.36651,-5.64598 2.49299,-6.8989 2.36877,-23.46446 -0.0806,-10.74304 -0.65973,-19.81667 -1.5,-23.5 -1.61806,-7.09278 -0.84479,-6.9392 -18.86877,-3.74749 -6.325,1.12003 -13.61958,2.3338 -16.21018,2.69726 -4.48093,0.62867 -5.03813,1.08082 -11.4483,9.28997 -3.70596,4.74602 -9.12388,11.30291 -12.03982,14.57086 -2.91593,3.26795 -5.3017,6.33175 -5.3017,6.80844 0,1.48399 17.12231,14.55772 24.9858,19.07789 14.76585,8.48787 25.84458,10.73613 32.11632,6.51753 z M 263.00918,253.25 C 273.0238,242.32294 273.48446,243 256.03518,243 247.76583,243 241,243.22214 241,243.49365 241,244.43394 255.11393,260 255.9665,260 c 0.47097,0 3.64018,-3.0375 7.04268,-6.75 z m 19.93658,-26.26345 c 2.09388,-1.13714 13.55767,-19.78854 21.05313,-34.25311 l 6.45579,-12.45823 -5.71176,-11.14835 C 299.0123,157.9417 288.39403,140.28111 284.35144,135.21122 L 282.18958,132.5 H 256 229.81042 l -2.37637,2.98025 c -3.51638,4.40996 -16.63057,26.75055 -21.47837,36.58933 l -4.22244,8.56958 5.72431,11.19094 c 4.59136,8.97604 19.05575,32.95802 21.21222,35.1699 1.75552,1.80062 50.95811,1.78843 54.27599,-0.0135 z M 245,205.92332 c -5.49457,-2.48202 -11.44146,-8.06136 -14.3076,-13.42332 -3.21828,-6.02074 -3.07974,-18.26278 0.28114,-24.84268 6.02103,-11.78793 19.83932,-17.8886 32.30816,-14.26381 20.11825,5.84854 27.27547,30.23871 13.33106,45.42925 -8.10292,8.82702 -21.25245,11.78055 -31.61276,7.10056 z m -36.5351,18.13348 c 0.32061,-0.51876 -0.93082,-3.33126 -2.78096,-6.25 -1.85014,-2.91874 -5.06802,-8.37718 -7.15084,-12.12987 -2.08283,-3.75269 -4.14156,-6.45269 -4.57497,-6 -0.43341,0.45269 -2.2414,5.01047 -4.01775,10.12839 -2.36403,6.8111 -2.93259,9.60247 -2.12117,10.41389 0.60972,0.60972 5.06232,1.89557 9.89468,2.85746 10.93087,2.17581 10.06105,2.09651 10.75101,0.98013 z M 316.75,222.40216 c 6.21858,-1.27497 8.24671,-2.08675 8.23662,-3.29681 -0.0183,-2.19752 -5.62217,-18.1409 -6.78494,-19.30367 -1.01575,-1.01575 -15.3749,23.10903 -14.54949,24.44456 0.25871,0.41861 1.4553,0.55551 2.6591,0.30424 1.20379,-0.25127 5.90121,-1.21802 10.43871,-2.14832 z M 175.55498,207.75 c 1.49557,-4.5375 4.4439,-12.61233 6.55183,-17.94406 l 3.83261,-9.69407 -2.49756,-5.64741 c -1.37365,-3.10608 -4.27952,-10.81533 -6.45749,-17.13166 -2.17796,-6.31633 -4.19868,-11.87055 -4.49049,-12.34271 -0.58933,-0.95355 -10.75993,2.32333 -19.99388,6.44187 -13.94976,6.22189 -27.90691,17.24771 -30.51426,24.10554 -3.76695,9.90784 5.67668,21.11826 26.51426,31.47472 10.16556,5.05238 19.65039,8.78252 22.66788,8.91471 1.22301,0.0536 2.39316,-2.12741 4.3871,-8.17693 z m 173.63542,5.64755 c 17.05175,-6.07098 33.53185,-16.73646 38.87191,-25.15686 4.72724,-7.45408 3.85749,-12.20487 -3.71686,-20.30246 -7.35306,-7.86101 -20.25832,-15.2934 -37.34373,-21.50697 -7.63027,-2.77495 -7.82168,-2.66362 -10.43373,6.06874 -0.98711,3.3 -3.73695,10.85142 -6.11076,16.78094 l -4.31602,10.78095 4.82383,12.21905 c 2.65311,6.72048 5.62851,14.80656 6.61202,17.96906 0.9835,3.1625 2.35419,5.75 3.04597,5.75 0.69177,0 4.54709,-1.1711 8.56737,-2.60245 z M 202.29307,148.82939 c 3.73619,-6.64212 6.56722,-12.30244 6.29117,-12.57848 -0.67622,-0.67622 -18.75376,2.61779 -20.58811,3.75148 -1.23309,0.76209 -0.95363,2.42479 1.84011,10.94809 1.8117,5.52723 3.8272,10.02836 4.47888,10.00251 0.65168,-0.0259 4.24176,-5.48148 7.97795,-12.1236 z m 120.28023,0.53384 c 2.30969,-7.10028 2.54029,-8.675 1.37573,-9.39473 -1.87138,-1.15658 -19.88287,-4.36799 -20.58126,-3.6696 -0.30244,0.30244 2.03967,4.97141 5.2047,10.3755 9.47366,16.17566 8.51365,14.92831 9.96343,12.94561 0.69444,-0.94969 2.51127,-5.56524 4.0374,-10.25678 z M 192.54682,124.09297 c 4.92425,-1.04886 13.00318,-2.45175 17.95318,-3.11754 4.95,-0.66579 9.51676,-1.49513 10.14835,-1.84298 0.63159,-0.34785 3.73741,-4.00745 6.90183,-8.13245 3.16441,-4.125 8.45153,-10.5601 11.74915,-14.300211 L 245.295,89.899578 241.94398,86.4422 c -5.29922,-5.467403 -19.68146,-15.333904 -28.75537,-19.726754 -6.68439,-3.236034 -9.71861,-4.112143 -15.5,-4.475506 -6.29642,-0.395732 -7.53338,-0.178703 -9.96651,1.748653 -5.94166,4.706572 -8.72436,14.381329 -8.71808,30.310628 0.004,11.238309 2.84444,31.700779 4.39979,31.700779 0.10441,0 4.21876,-0.85816 9.14301,-1.90703 z m 136.26252,0.63677 c 0.57982,-0.69865 1.81479,-6.43615 2.74438,-12.75 3.11066,-21.128027 0.64545,-40.686193 -5.90382,-46.838912 -6.99424,-6.570749 -20.23154,-3.977327 -37.84,7.413526 C 279.51344,77.92131 267,87.974031 267,89.272075 c 0,0.480253 3.73323,5.251645 8.29606,10.603092 4.56283,5.351443 9.82337,11.856663 11.6901,14.456033 1.86672,2.59936 4.321,4.91761 5.45394,5.15166 1.13295,0.23405 7.9099,1.35368 15.0599,2.48808 7.15,1.1344 14.35,2.46633 16,2.95985 4.11542,1.23093 4.12107,1.23072 5.30934,-0.20105 z m -58.98602,-8.20942 C 269.26054,113.94478 257.63742,101 255.88761,101 c -1.86938,0 -15.03096,14.95904 -14.25964,16.20706 0.26954,0.43612 6.7965,0.79294 14.50437,0.79294 11.85062,0 13.96439,-0.22845 13.69098,-1.47968 z"
       id="path32"
       inkscape:connector-curvature="0" />
    <path
       style="fill:#a7e9fb"
       d="m 187.99353,312.06566 c -11.31782,-3.44273 -18.65053,-13.60086 -21.54814,-29.85102 -2.23709,-12.54593 -1.83194,-21.53897 2.15328,-47.79624 l 0.61949,-4.08161 -7.85908,-2.76479 c -25.10458,-8.83167 -44.58241,-22.28864 -51.28918,-35.43499 -10.460908,-20.50507 7.56583,-42.50169 47.13357,-57.51342 12.99429,-4.92994 12.06208,-2.98172 9.4512,-19.75193 -5.39422,-34.648291 2.65282,-60.974823 20.12059,-65.826053 4.89489,-1.359433 13.18626,-1.323011 19.03192,0.0836 11.28287,2.714943 29.22199,12.980098 42.77249,24.475345 C 252.07773,76.57205 255.54989,79 256.29557,79 c 0.74569,0 2.44674,-1.162545 3.78012,-2.583433 3.87458,-4.12889 15.71917,-12.885519 24.85818,-18.377493 21.13316,-12.699716 41.82833,-13.384714 51.7025,-1.711322 9.18842,10.862694 12.28084,30.872735 8.71179,56.371028 -2.66323,19.02679 -3.23554,17.23687 6.65184,20.80374 25.46981,9.18824 43.60481,21.93614 50.17016,35.26684 3.52129,7.14984 3.27013,16.96481 -0.61457,24.01591 -7.19243,13.05495 -25.56879,25.96052 -48.05559,33.74906 -10.98327,3.80417 -10.87167,3.65479 -8.98341,12.02581 2.4078,10.67421 3.04727,37.22981 1.11482,46.29568 -4.59642,21.5636 -18.11364,31.13761 -37.7776,26.75723 C 295.19652,308.79349 278.95463,299.88976 265,288.12081 c -3.025,-2.5512 -6.22024,-5.19634 -7.10054,-5.87808 -1.35599,-1.05015 -2.99731,-0.10544 -10.74269,6.18328 -23.52626,19.10171 -45.378,27.83293 -59.16324,23.63965 z m 12.5486,-13.15808 c 10.69081,-1.97631 22.44379,-8.42964 37.70787,-20.70466 3.7125,-2.98551 6.75,-6.07502 6.75,-6.86557 0,-0.79055 -3.55595,-5.64255 -7.9021,-10.78221 -4.34616,-5.13966 -9.61516,-11.6394 -11.70889,-14.44386 -2.76258,-3.70037 -4.64094,-5.23322 -6.84789,-5.58825 -1.67262,-0.26907 -8.89112,-1.48136 -16.04112,-2.69398 -7.15,-1.21262 -14.56014,-2.23272 -16.46699,-2.2669 -3.3776,-0.0606 -3.50344,0.0796 -4.88109,5.43785 -0.94178,3.66293 -1.45383,11.67923 -1.53302,24 -0.11165,17.37273 0.0231,18.81391 2.21192,23.65161 2.67929,5.92181 5.6803,9.08392 9.78848,10.31397 1.58439,0.47438 2.91055,0.90119 2.94704,0.94847 0.0365,0.0473 2.72559,-0.40564 5.97579,-1.00647 z m 125.46571,-3.68013 c 4.2002,-4.20019 5.55555,-7.97655 7.07926,-19.72459 1.45444,-11.21395 -1.36206,-38.81869 -4.13555,-40.5328 -0.59734,-0.36918 -3.86831,-0.0267 -7.26881,0.76106 -3.40051,0.78777 -11.71697,2.24226 -18.48103,3.23221 -6.76406,0.98995 -12.40707,1.96569 -12.54003,2.16829 -1.44968,2.20914 -13.34787,16.87098 -17.95178,22.12153 -3.48344,3.97271 -5.6964,7.33965 -5.37483,8.17765 0.87568,2.28197 14.41643,13.02106 22.83511,18.11037 10.37008,6.26898 18.92886,9.34218 26.19747,9.40673 5.48328,0.0487 6.11477,-0.19502 9.64019,-3.72045 z m -61.58238,-42.90201 c 3.616,-4.22101 6.57454,-8.27101 6.57454,-9 C 271,242.28376 267.78865,242 256,242 c -10.34329,0 -15,0.34532 -15,1.11234 C 241,245.1364 254.27412,260 256.08173,260 c 0.97306,0 4.72774,-3.45355 8.34373,-7.67456 z M 277,228.13312 283.5,227.5 l 5.61599,-8.38539 c 5.96123,-8.90089 18.14298,-30.68583 20.17158,-36.07338 1.14738,-3.04721 0.84786,-3.92604 -5.58292,-16.3806 -3.73745,-7.23834 -9.81245,-17.65867 -13.5,-23.15628 -6.45592,-9.62482 -6.87159,-10.02543 -11.20465,-10.79833 -2.475,-0.44147 -14.46533,-0.66837 -26.64517,-0.50421 -20.15065,0.27159 -22.33526,0.4705 -24.25581,2.20858 C 223.68779,138.40249 202,176.70209 202,180.5 c 0,3.34871 17.48023,34.73976 24.61322,44.20049 2.14031,2.83876 3.06142,3.24122 8.14991,3.56091 9.78334,0.61466 35.4084,0.53682 42.23687,-0.12828 z m -30.03062,-21.60868 c -6.06463,-1.95035 -12.46308,-7.61094 -15.69672,-13.88659 -2.12805,-4.13 -2.64479,-6.51099 -2.63425,-12.13785 0.0155,-8.25737 1.66109,-12.60846 7.01442,-18.54648 10.86045,-12.04663 29.83389,-12.04663 40.69434,0 5.18837,5.75503 6.96243,10.30675 7.03373,18.04648 0.0993,10.78096 -5.55698,20.23631 -14.89558,24.90023 -5.87489,2.93406 -15.24377,3.64131 -21.51594,1.62421 z M 208.94302,223.75 c -0.0855,-1.87484 -13.33335,-24.04678 -14.62547,-24.47748 C 193.21503,198.90501 187,215.81738 187,219.18508 c 0,1.90505 1.20529,2.38616 10.71751,4.27803 8.81206,1.75262 11.29522,1.81608 11.22551,0.28689 z m 104.84914,-0.27783 c 4.23931,-0.8403 8.70396,-1.9482 9.92145,-2.46198 2.14855,-0.9067 2.17134,-1.07488 0.77547,-5.72217 -2.78904,-9.28555 -5.74576,-16.28756 -6.86101,-16.248 -1.06011,0.0376 -13.75182,21.63631 -14.45139,24.59333 -0.41181,1.74067 1.13956,1.71711 10.61548,-0.16118 z M 176.53342,206 c 1.52436,-4.675 4.27794,-12.08634 6.11907,-16.46964 C 184.49362,185.14706 186,181.08339 186,180.5 c 0,-0.58339 -1.50629,-4.64706 -3.34732,-9.03036 -1.84102,-4.3833 -4.80313,-12.35714 -6.58246,-17.71964 -2.14859,-6.47535 -3.73147,-9.75 -4.71292,-9.75 -0.81277,0 -6.28817,1.97027 -12.16754,4.37837 -29.56956,12.11127 -43.07813,26.26789 -36.74735,38.51025 2.26348,4.37709 12.47456,13.20367 20.63395,17.83622 10.63982,6.04083 28.08939,12.51764 29.55456,10.96985 0.62201,-0.65708 2.37813,-5.01969 3.9025,-9.69469 z M 359.5,209.56804 c 15.38794,-6.86334 29.25285,-18.39172 31.37863,-26.09063 1.22489,-4.43619 -0.58877,-9.64258 -5.30105,-15.21753 C 382.14075,164.19387 368.41817,155.02688 360.5,151.5075 352.16027,147.80075 342.01548,144 340.46131,144 c -0.71532,0 -2.06189,2.3625 -2.99238,5.25 -0.93049,2.8875 -3.94884,11.04272 -6.70745,18.12271 l -5.01566,12.87271 2.75139,6.62729 c 1.51327,3.64501 4.41707,11.38092 6.45289,17.19091 2.03582,5.80999 4.01313,11.06787 4.39404,11.68419 0.76459,1.23714 9.60113,-1.47213 20.15586,-6.17977 z M 198.56504,155.87165 c 1.38986,-2.74275 4.3063,-7.89383 6.48099,-11.44685 C 207.22071,140.87179 209,137.5227 209,136.98239 209,136.44207 207.85603,136 206.45784,136 c -3.77555,0 -17.77968,3.03162 -19.12025,4.13916 -0.86455,0.71426 -0.38071,3.31789 1.88818,10.16059 4.50149,13.576 5.1018,13.93415 9.33927,5.5719 z m 123.95317,-5.16798 c 1.55835,-4.58979 2.56025,-9.05683 2.22643,-9.92675 C 323.76275,138.21815 303,134.44432 303,136.82463 c 0,0.60744 1.95301,4.38289 4.34003,8.3899 2.38701,4.00701 5.60028,9.49856 7.14059,12.20344 3.3921,5.95675 3.87137,5.55639 8.03759,-6.7143 z M 192.18462,124.45063 c 6.02331,-1.27571 25.52578,-4.36484 27.98238,-4.43231 0.36685,-0.0101 3.5724,-3.73082 7.12345,-8.26832 3.55105,-4.5375 8.9884,-11.07951 12.083,-14.5378 C 242.46805,93.75391 245,90.317467 245,89.575659 c 0,-1.515734 -10.40821,-10.228 -19.5,-16.322606 -16.62311,-11.14317 -30.53839,-14.625015 -38.34411,-9.594362 -8.18307,5.273851 -11.1961,33.242428 -6.05997,56.251879 1.57577,7.0593 0.76376,6.72684 11.0887,4.54006 z M 330.79597,120 c 0.73446,-3.025 1.58631,-12.475 1.89301,-21 0.6221,-17.292129 -0.68036,-25.339634 -5.2123,-32.205234 -7.43102,-11.257501 -28.70702,-5.055977 -53.72668,15.660239 -3.77269,3.123781 -6.75,6.384559 -6.75,7.392675 0,0.99203 1.17107,2.894633 2.60237,4.228006 1.4313,1.333373 6.85189,7.668254 12.04577,14.077524 l 9.4434,11.65321 8.70423,1.20958 c 4.78733,0.66526 12.52923,2.02179 17.20423,3.01449 12.02178,2.55275 12.21102,2.49746 13.79597,-4.03049 z M 271,117.1526 c 0,-0.96818 -12.3321,-15.62178 -14.03002,-16.67116 -0.61492,-0.38004 -2.26882,0.36867 -3.67533,1.66379 C 249.52951,105.61219 241,115.95382 241,117.05192 c 0,0.5553 6.21426,0.94808 15,0.94808 8.25,0 15,-0.38133 15,-0.8474 z"
       id="path30"
       inkscape:connector-curvature="0" />
    <path
       style="fill:#97e5fb"
       d="m 187.82055,311.60501 c -19.32173,-5.20264 -26.221,-30.49143 -19.74623,-72.37841 0.78104,-5.05276 0.91818,-8.59216 0.35228,-9.09224 -0.50963,-0.45037 -4.5266,-2.06806 -8.9266,-3.59488 -16.42633,-5.7 -33.72973,-15.80134 -41.74396,-24.3692 -9.85741,-10.53838 -12.6587,-21.93853 -7.97344,-32.44878 5.65817,-12.69275 25.93546,-27.36727 48.7174,-35.25641 4.4,-1.52367 8.61089,-3.3286 9.35753,-4.01095 1.14122,-1.04295 1.06917,-2.89094 -0.45219,-11.59739 C 165.17276,106.0801 164.89772,82.969145 166.8834,75 c 3.00111,-12.04436 8.39085,-19.959708 16.56369,-24.325387 3.29157,-1.75825 5.64965,-2.149993 12.55291,-2.085385 14.91353,0.139576 30.31959,7.441032 51.14911,24.241303 4.207,3.393208 8.16444,6.169469 8.7943,6.169469 0.62986,0 4.83776,-3.006271 9.35089,-6.680602 24.05925,-19.587636 44.89589,-27.63838 59.89886,-23.143381 2.15885,0.64681 5.94486,2.953803 8.41335,5.126651 8.91265,7.845231 12.6918,19.851684 12.6525,40.197332 -0.0138,7.16264 -0.75116,17.37319 -1.64206,22.73923 -2.37532,14.30709 -2.94637,13.04582 7.56915,16.71782 18.31069,6.39406 32.47923,14.77059 42.10752,24.89425 7.37552,7.75497 10.13907,13.69742 10.09723,21.71198 -0.0896,17.15877 -18.71337,33.71995 -51.74163,46.01119 -4.86793,1.81157 -9.06898,3.51196 -9.33566,3.77864 -0.26668,0.26668 0.31934,4.90883 1.30226,10.31588 2.2552,12.40582 2.52053,37.33406 0.48249,45.33101 -3.11529,12.22394 -8.89321,20.62517 -16.59831,24.13434 -5.11302,2.32865 -17.1207,2.45913 -24.5685,0.26698 -11.56534,-3.4041 -27.68708,-13.0429 -41.06729,-24.55316 C 259.76453,283.18167 256.83426,281 256.3525,281 c -0.48176,0 -4.3682,2.91506 -8.63654,6.4779 -15.19533,12.68377 -28.56653,20.28692 -41.49027,23.59226 -8.63483,2.20841 -11.8435,2.30166 -18.40514,0.53485 z m 21.32614,-14.66078 c 2.94432,-1.15941 8.05331,-3.72829 11.35331,-5.70863 10.07791,-6.04776 25.5,-18.36163 25.5,-20.36065 0,-0.49078 -2.3625,-3.47829 -5.25,-6.63891 -2.8875,-3.16062 -8.48775,-9.82569 -12.44499,-14.81126 l -7.19499,-9.06469 -9.37276,-1.22625 c -5.15502,-0.67443 -13.59102,-2.10921 -18.74667,-3.18839 -5.26764,-1.10262 -9.75249,-1.58355 -10.23815,-1.09789 -1.14283,1.14283 -3.40529,14.52112 -4.25362,25.15244 -1.43025,17.9238 3.10862,34.45816 10.51723,38.31257 4.33208,2.25381 12.3092,1.71159 20.13064,-1.36834 z m 115.81358,0.17555 c 6.43428,-4.6455 9.67396,-18.14112 8.67072,-36.11978 -0.67613,-12.11666 -2.70183,-24.47084 -4.2695,-26.03851 -0.57592,-0.57592 -5.69373,-0.0162 -13.39672,1.4653 -6.85562,1.31848 -15.27414,2.70565 -18.70781,3.0826 l -6.24303,0.68537 -6.59397,8.44453 c -3.62669,4.64449 -9.20841,11.43482 -12.40383,15.08961 -3.19542,3.6548 -5.61124,7.16266 -5.36848,7.79526 0.76352,1.98972 14.08333,12.44241 22.94433,18.00552 15.19671,9.54079 28.66364,12.43081 35.36829,7.5901 z M 261.10142,256.25 c 7.54652,-7.91959 10.97284,-12.32083 10.36158,-13.30987 C 271.14226,242.42116 264.18863,242 255.94098,242 243.35499,242 241,242.23543 241,243.49365 241,245.03411 254.53662,261 255.84268,261 c 0.40288,0 2.76931,-2.1375 5.25874,-4.75 z m 17.65255,-27.89845 5.25396,-0.63107 6.4003,-10.11024 c 7.28535,-11.50832 15.27772,-25.80519 18.44914,-33.00209 l 2.15566,-4.89185 -6.32717,-12.10815 c -3.47995,-6.65948 -9.58275,-17.14036 -13.56179,-23.29083 -6.0995,-9.42813 -7.72983,-11.29146 -10.39091,-11.87593 -4.95489,-1.08827 -47.89766,-0.74162 -50.88396,0.41076 -1.77145,0.68358 -4.56188,4.11212 -8.4118,10.33538 -6.99079,11.30039 -16.78565,28.94336 -18.90398,34.05077 l -1.55048,3.7383 5.36157,10.26974 c 6.36728,12.19611 17.9658,31.35767 20.85233,34.44951 1.12752,1.20771 3.45699,2.3732 5.1766,2.58996 5.37796,0.67791 40.8651,0.72821 46.38053,0.0657 z m -29.96164,-21.7054 C 236.36446,203.1734 229,193.09022 229,179.54712 c 0,-28.29468 39.01835,-36.64822 51.5491,-11.03628 2.3252,4.75253 2.61899,6.39989 2.2692,12.72424 -0.46297,8.3709 -2.38361,12.97467 -7.63463,18.30016 -6.74252,6.83816 -17.24268,9.66733 -26.39134,7.11091 z M 210,224.4518 c 0,-0.30151 -2.5875,-4.98145 -5.75,-10.39987 -3.1625,-5.41842 -6.5779,-11.35358 -7.58978,-13.18926 -1.73449,-3.14661 -1.9178,-3.23089 -3.20336,-1.47278 -0.74998,1.02565 -2.73491,5.95362 -4.41095,10.95103 -2.42996,7.24533 -2.79396,9.33035 -1.79663,10.29125 C 189.5096,222.80994 210,226.25008 210,224.4518 Z m 106.75734,-1.31627 c 4.54153,-0.99928 8.5794,-2.13894 8.97303,-2.53257 0.92003,-0.92003 -5.59641,-20.24689 -7.30465,-21.66461 -0.96802,-0.80338 -1.64585,-0.49131 -2.70363,1.24473 C 312.08198,206.15726 302,224.00342 302,224.47261 c 0,1.04717 6.66655,0.44315 14.75734,-1.33708 z M 178.03933,203 c 2.64985,-7.425 5.61145,-15.57485 6.58134,-18.11079 1.73531,-4.53723 1.72631,-4.70473 -0.56427,-10.5 -1.28025,-3.23906 -4.23798,-11.28921 -6.57274,-17.88921 -3.31533,-9.37191 -4.67605,-12.06564 -6.21311,-12.29973 -2.20735,-0.33617 -14.14111,4.19313 -23.55825,8.94122 -18.36593,9.26005 -28.91458,20.63625 -27.26896,29.4082 1.40488,7.48864 12.18515,17.26262 27.55666,24.98435 8.86633,4.45392 21.93535,9.48175 23.86071,9.17954 0.77367,-0.12143 3.4393,-6.03788 6.17862,-13.71358 z m 170.15107,11.3813 c 23.26434,-8.33455 41.47841,-21.76854 43.39971,-32.00993 1.75246,-9.34143 -9.98109,-21.04985 -30.9675,-30.90121 -11.72687,-5.50478 -18.86913,-7.97327 -20.85961,-7.20946 -0.8705,0.33405 -2.33653,3.20034 -3.25784,6.36955 -0.92131,3.1692 -3.70546,10.8953 -6.187,17.1691 -2.55333,6.45531 -4.29945,12.33885 -4.02251,13.55378 0.26916,1.18078 2.838,8.44687 5.70854,16.14687 2.87053,7.7 5.6735,15.2375 6.2288,16.75 0.55531,1.5125 1.37824,2.75 1.82873,2.75 0.4505,0 4.1084,-1.17841 8.12868,-2.6187 z M 198.9542,155.75 c 1.87871,-3.4375 5.16375,-9.12134 7.30007,-12.63075 2.28881,-3.75991 3.51622,-6.74876 2.98826,-7.27672 -1.01867,-1.01867 -21.06823,2.58317 -22.53305,4.04799 -1.48243,1.48243 5.63743,22.10948 7.63154,22.10948 0.65853,0 2.73446,-2.8125 4.61318,-6.25 z m 122.93186,-2.24875 c 4.02369,-11.12002 4.49042,-13.15054 3.20532,-13.94478 -2.12958,-1.31615 -21.45881,-4.58904 -22.276,-3.77185 -1.01861,1.01861 13.20881,26.1098 14.84005,26.1716 0.63548,0.0241 2.53927,-3.78066 4.23063,-8.45497 z M 202.5,123.09801 c 7.15,-1.21029 14.37921,-2.40722 16.06491,-2.65986 2.36111,-0.35385 4.12129,-1.89208 7.66531,-6.69874 2.53023,-3.43168 8.07353,-10.28195 12.31844,-15.222831 l 7.71802,-8.983422 -5.74136,-5.217624 c -7.93588,-7.211953 -21.16011,-15.923787 -29.79254,-19.626672 -5.83496,-2.502913 -8.64831,-3.110852 -14.55721,-3.145684 -7.17763,-0.04231 -7.3918,0.03029 -10.68623,3.622559 -1.86014,2.028304 -4.08982,6.048475 -4.99161,9 -3.25546,10.65495 -2.97807,30.102594 0.67293,47.179454 1.20617,5.6416 -0.71278,5.4839 21.32934,1.75282 z M 330.9127,120.75 c 4.94866,-24.637779 3.19048,-46.673622 -4.42651,-55.479023 L 323.22415,61.5 h -7.95723 c -7.46684,0 -8.53686,0.288088 -17.36208,4.674481 -11.05026,5.4923 -28.49597,18.118871 -31.29766,22.652101 -0.44341,0.717455 1.82248,4.117418 5.72979,8.597515 3.55479,4.075903 9.0957,10.820833 12.31314,14.988723 4.52151,5.85718 6.53113,7.68092 8.84989,8.03132 13.82197,2.08872 29.00034,4.72287 29.37549,5.09802 0.25181,0.25181 1.92594,0.45784 3.72028,0.45784 3.13506,0 3.3036,-0.20497 4.31693,-5.25 z m -60.10034,-3.78214 c -0.40866,-2.51508 -11.7416,-15.64876 -14.27597,-16.54434 -1.49631,-0.528759 -2.77546,0.2307 -5.37508,3.1913 -6.97971,7.9489 -11.14998,13.5945 -10.64522,14.41122 0.28602,0.46279 7.28998,0.84657 15.56434,0.85283 14.28677,0.0108 15.02856,-0.0854 14.73193,-1.91101 z"
       id="path28"
       inkscape:connector-curvature="0" />
    <path
       style="fill:#87e1fa"
       d="m 184.5,310.12899 c -8.8366,-4.03631 -15.06335,-14.21532 -17.59739,-28.76682 -1.48366,-8.51983 -0.6451,-30.72104 1.59574,-42.24789 0.89661,-4.61215 1.26378,-8.70366 0.81593,-9.09225 -0.44786,-0.38859 -4.41428,-1.95594 -8.81428,-3.48302 -9.68164,-3.36013 -23.94923,-10.4153 -31.69362,-15.67216 -21.60044,-14.66227 -26.62034,-32.53676 -13.72079,-48.85591 7.67004,-9.70333 26.49558,-21.38469 44.41441,-27.55941 4.4,-1.51621 8.50836,-3.25057 9.12969,-3.85414 0.83839,-0.81441 0.62841,-3.93388 -0.81431,-12.09739 -2.86272,-16.1984 -2.18755,-40.162951 1.40126,-49.736426 4.523,-12.065542 10.97994,-18.086649 21.17527,-19.745982 14.66672,-2.38707 36.9297,7.242652 57.3037,24.786383 C 251.65319,77.211789 255.337,80 255.88185,80 c 0.54485,0 3.83183,-2.501738 7.30439,-5.559418 C 274.89247,64.13296 290.91552,54.475253 303,50.443301 c 8.50317,-2.837057 19.31674,-2.576574 25.52425,0.614842 6.40749,3.294235 11.66573,10.242563 14.657,19.368026 2.06664,6.30471 2.31389,8.922202 2.27406,24.073831 -0.0305,11.60897 -0.58204,19.84618 -1.73917,25.97512 -1.34396,7.11852 -1.43814,9.20727 -0.45531,10.09739 0.68154,0.61725 4.83917,2.36938 9.23917,3.89362 17.01541,5.89446 33.96852,15.89413 42.33563,24.97138 8.4153,9.12952 11.45294,21.1494 7.64688,30.25859 -5.681,13.59656 -25.51181,27.98396 -50.82645,36.87499 -4.31417,1.51522 -8.08726,3.38902 -8.38464,4.16399 -0.29739,0.77497 0.17416,5.98911 1.04787,11.58698 3.40225,21.79809 2.97851,37.15142 -1.36865,49.59037 -8.59417,24.59134 -32.45608,26.68333 -63.9445,5.60606 -5.22838,-3.4997 -12.18666,-8.64805 -15.46286,-11.44079 -3.27619,-2.79273 -6.55224,-5.0777 -7.28011,-5.0777 -0.72787,0 -4.12234,2.37312 -7.54328,5.27361 -14.00467,11.87403 -28.83036,20.67674 -40.65139,24.13664 -7.41749,2.17103 -18.48902,2.0389 -23.5685,-0.28126 z m 27.83159,-14.3887 c 4.09373,-1.9441 9.85632,-5.08236 12.80577,-6.9739 C 233.57168,283.35727 246,272.98683 246,271.35818 c 0,-0.81372 -3.16204,-5.13267 -7.02675,-9.59767 -3.86472,-4.46499 -9.15222,-10.95036 -11.75,-14.41192 -5.38066,-7.16974 -4.80052,-6.9316 -25.22325,-10.35367 -20.5088,-3.43648 -19.64276,-3.36825 -20.32094,-1.60094 -1.95897,5.10499 -3.87862,25.01253 -3.38521,35.10602 0.78781,16.116 4.52784,25.72876 11.12459,28.5928 4.42855,1.92269 15.08973,0.36282 22.91315,-3.35251 z m 113.27342,1.1768 c 6.66357,-6.2196 8.90077,-16.22418 8.09513,-36.2008 -0.51541,-12.78012 -2.36777,-24.71726 -4.10514,-26.45463 -0.35538,-0.35537 -5.92213,0.35182 -12.37057,1.57154 -6.44844,1.21972 -13.97443,2.47221 -16.72443,2.78331 -8.73731,0.98843 -10.73309,2.07133 -15.22306,8.26 -2.32269,3.20143 -7.61019,9.69505 -11.75,14.43027 C 269.38712,266.042 266,270.34341 266,270.86547 c 0,2.81 24.4151,20.7783 33.5,24.65433 11.92346,5.0871 21.59707,5.60488 26.10501,1.39729 z M 264.92267,252.75 c 6.71246,-7.83496 8.32165,-10.69344 6.07733,-10.79545 -0.55,-0.025 -7.3,-0.0455 -15,-0.0455 -7.7,0 -14.45,0.0205 -15,0.0455 -2.16341,0.0983 -0.70858,2.57471 6.25,10.63866 3.9875,4.62091 8.00479,8.40281 8.92732,8.40422 0.92253,10e-4 4.85793,-3.70993 8.74535,-8.24743 z m 18.7243,-25.29004 c 2.7861,-1.77919 13.76133,-19.64389 21.64574,-35.23336 L 311.5,179.95321 306,169.25921 C 299.25832,156.15094 286.98095,136.19772 283.99341,133.49404 281.91173,131.61015 280.36091,131.5 255.91774,131.5 h -25.87229 l -2.49327,2.5 c -3.01654,3.02469 -16.37431,25.14801 -22.51448,37.28881 l -4.44492,8.78881 4.26692,8.71119 c 4.72059,9.63738 18.03274,32.28693 21.63748,36.8144 2.1639,2.71782 2.88396,2.93589 11.65461,3.52972 14.67529,0.9936 42.94752,-0.046 45.49518,-1.67297 z M 244.44439,204.6263 c -9.97881,-4.64667 -16.18553,-15.51627 -15.18166,-26.5871 2.01242,-22.19336 28.22439,-32.69259 44.39846,-17.78386 8.29066,7.64207 11.06399,17.29842 7.99759,27.84649 -4.49164,15.45069 -22.42224,23.41249 -37.21439,16.52447 z M 210,224.51761 c 0,-0.81531 -1.71674,-4.30281 -3.81498,-7.75 -2.09823,-3.44718 -5.35211,-9.08011 -7.23082,-12.51761 -1.87872,-3.4375 -3.95465,-6.25 -4.61318,-6.25 -2.16521,0 -9.31901,21.42201 -7.69584,23.04518 0.9341,0.9341 17.52339,4.67395 21.60482,4.87053 0.9625,0.0464 1.75,-0.58278 1.75,-1.3981 z m 103.97489,-0.46499 c 5.52519,-1.07106 10.49115,-2.22261 11.03546,-2.55902 1.6426,-1.01518 1.04566,-4.54245 -2.36768,-13.99027 -4.08382,-11.30369 -5.45161,-11.80577 -9.62722,-3.53393 -1.69304,3.35389 -4.86413,9.01576 -7.04686,12.58191 -3.91718,6.39993 -4.88649,9.44869 -3.00405,9.44869 0.5305,0 5.48516,-0.87632 11.01035,-1.94738 z M 176.25565,208.5 c 1.5156,-4.4 4.55532,-12.514 6.75494,-18.03112 l 3.99929,-10.03112 -4.38735,-10.96888 c -2.41305,-6.03288 -5.42364,-14.21523 -6.69022,-18.18299 -1.26657,-3.96776 -2.92983,-7.4547 -3.69613,-7.74875 -1.9634,-0.75343 -20.26502,6.58737 -29.36467,11.77821 -18.18958,10.37612 -25.55315,20.5012 -21.89918,30.11188 2.3289,6.12545 13.76875,15.84188 26.02767,22.10657 9.29146,4.74823 21.36908,9.35587 24,9.15606 2.18278,-0.16577 2.84966,-1.20498 5.25565,-8.18986 z m 174.25601,5.49537 c 16.38674,-6.50951 28.12456,-13.62244 35.26733,-21.37143 2.35199,-2.55161 4.7139,-5.79013 5.24868,-7.19671 3.67437,-9.66432 -3.60807,-19.67784 -21.89918,-30.11188 -8.77216,-5.00402 -27.73136,-12.68172 -29.57193,-11.97543 -0.68383,0.26241 -2.70599,4.90578 -4.4937,10.31859 -1.78771,5.41282 -4.77975,13.55094 -6.64897,18.08472 l -3.39859,8.24323 3.1168,7.75677 c 1.71425,4.26622 4.64251,12.19809 6.50725,17.62637 1.86475,5.42827 3.6353,10.26577 3.93456,10.75 0.94974,1.5367 4.1598,0.9655 11.93775,-2.12423 z M 202.69743,149.92533 c 3.98718,-6.83393 7.26138,-12.98783 7.27599,-13.67533 0.0346,-1.62663 -1.99184,-1.57643 -12.11295,0.30008 C 186.63441,138.63145 186,138.86305 186,140.8798 c 0,1.49887 4.30399,14.98108 6.51637,20.41246 0.40152,0.98575 1.2254,1.62715 1.83084,1.42534 0.60544,-0.20182 4.36304,-5.95834 8.35022,-12.79227 z m 120.39646,1.09019 c 4.07852,-12.04846 4.08452,-12.0378 -8.09389,-14.38137 -10.05617,-1.93517 -13,-2.04315 -13,-0.47686 0,0.97278 8.76227,16.75698 13.68929,24.65963 2.15327,3.45373 3.53818,1.62055 7.4046,-9.8014 z M 203.5,123.34777 c 8.8,-1.42166 16.51874,-2.72558 17.15276,-2.8976 0.63402,-0.17203 3.84288,-3.83119 7.1308,-8.13147 3.28791,-4.30029 8.73167,-10.92296 12.09723,-14.717047 C 243.24636,93.807563 246,90.12054 246,89.40827 246,87.72065 230.94299,75.732334 221.71679,70.074094 207.82006,61.55152 194.25326,58.718809 187.38651,62.906023 181.12467,66.724373 178,77.394897 178,94.960274 c 0,11.117486 2.42436,28.571286 4.2864,30.859246 0.61401,0.75446 1.96028,1.0612 3.14374,0.7163 1.13842,-0.33177 9.26986,-1.7664 18.06986,-3.18805 z m 126.3009,2.39213 C 331.39907,123.81422 334,104.34362 334,94.305322 334,78.351539 330.39834,66.5015 324.31203,62.430319 320.54594,59.911153 311.29824,60.11661 304,62.881592 c -11.50163,4.357465 -36.98182,22.069945 -37.7907,26.270093 -0.17541,0.910867 2.22868,4.496945 5.36293,7.999637 3.12448,3.491768 8.58705,10.062178 12.13905,14.600888 3.552,4.53872 7.43255,8.47007 8.62345,8.73634 1.1909,0.26626 8.04948,1.40825 15.2413,2.53774 7.19181,1.12949 14.39181,2.44696 16,2.92771 4.15065,1.2408 5.04288,1.21011 6.22487,-0.2141 z M 272,117.62055 C 272,116.09403 257.41125,99 256.10846,99 254.17964,99 240,115.58798 240,117.84439 c 0,0.826 4.56367,1.15561 16,1.15561 12.93414,0 16,-0.26433 16,-1.37945 z"
       id="path26"
       inkscape:connector-curvature="0" />
    <path
       style="fill:#76ddfa"
       d="m 186.74797,310.57325 c -9.03535,-3.2244 -15.18675,-11.24622 -18.40226,-23.99773 -2.36596,-9.38255 -2.35102,-29.32634 0.0329,-43.90934 0.97407,-5.95859 1.55568,-11.39502 1.29246,-12.08094 -0.26321,-0.68592 -4.00938,-2.52091 -8.32482,-4.07776 -25.83072,-9.31873 -43.99938,-22.00877 -50.50675,-35.27684 -3.20229,-6.52924 -3.17755,-15.99306 0.0579,-22.15727 3.08133,-5.87056 11.21743,-14.37808 18.47242,-19.31573 7.02851,-4.7835 23.82855,-12.9361 33.29873,-16.15897 7.96508,-2.71065 7.70115,-1.6588 4.94984,-19.72701 C 161.56682,74.129996 172.35521,49 195.46804,49 c 14.19593,0 32.1204,8.650058 52.11933,25.151938 C 251.48543,77.368372 255.24448,80 255.94083,80 c 0.69634,0 4.70702,-2.849499 8.91262,-6.332219 20.12042,-16.662022 36.92397,-24.69135 51.57805,-24.645819 8.69961,0.02703 13.65844,2.101576 18.88847,7.902068 4.9089,5.444333 7.34888,11.23575 9.19577,21.826594 1.9163,10.988857 1.87188,18.23371 -0.20485,33.407636 -2.77367,20.26629 -3.35349,18.48163 7.23691,22.27464 24.21757,8.67367 42.89765,21.71913 49.42719,34.51808 9.78657,19.18326 -6.83313,40.27819 -43.05573,54.64944 -6.28059,2.49182 -12.48508,4.96575 -13.78775,5.49763 -2.03228,0.82977 -2.27437,1.42377 -1.70548,4.1845 4.31426,20.93607 4.59232,44.66427 0.66708,56.92534 -5.22618,16.32472 -16.68865,23.55908 -32.97546,20.81195 -12.93233,-2.18132 -29.57694,-11.22861 -45.85948,-24.92723 -3.983,-3.35094 -7.61652,-6.09261 -8.07448,-6.09261 -0.45796,0 -3.72414,2.51581 -7.25817,5.59069 -8.31705,7.23647 -23.79678,17.52668 -31.42552,20.89024 -11.80207,5.2036 -23.33674,6.73857 -30.75203,4.09232 z m 16.54137,-11.0604 c 7.2742,-1.89468 17.28405,-6.96701 26.21066,-13.28181 7.94315,-5.61908 17.5,-13.97657 17.5,-15.30378 0,-0.48807 -2.76221,-3.93387 -6.13824,-7.65733 -3.37603,-3.72346 -9.03915,-10.48343 -12.58473,-15.02214 -3.60669,-4.61697 -7.40033,-8.45356 -8.61176,-8.70926 -1.1909,-0.25138 -7.11527,-1.18892 -13.16527,-2.08342 -6.05,-0.8945 -13.69805,-2.24871 -16.99566,-3.00936 -4.71368,-1.08728 -6.2544,-1.12243 -7.20571,-0.16437 -3.88536,3.91291 -5.84315,38.82767 -2.8127,50.16117 3.85932,14.43345 10.38545,18.56524 23.80341,15.0703 z m 121.528,-1.54284 c 6.93992,-4.23113 10.98777,-20.05285 9.71431,-37.97001 -0.84047,-11.82511 -3.10947,-24.01535 -4.77277,-25.64181 -0.99761,-0.97551 -3.12675,-0.84805 -10.25888,0.61416 -4.95,1.01483 -12.6,2.35052 -17,2.96819 -4.4,0.61768 -8.99557,1.33806 -10.21237,1.60086 -1.26108,0.27236 -4.76296,3.80612 -8.14409,8.21821 -3.26245,4.25721 -8.67783,10.89039 -12.03418,14.74039 -3.35636,3.85 -6.10402,7.73644 -6.10591,8.63654 -0.006,2.88868 18.84902,17.28874 29.99655,22.90902 12.66327,6.38448 22.56962,7.73356 28.81734,3.92445 z m -63.43348,-40.74454 c 7.00816,-7.40193 11.86588,-14.01237 11.14921,-15.17196 C 272.12101,241.38679 266.02938,241 255.94098,241 241.19219,241 240,241.13611 240,242.82 c 0,2.44435 14.08297,19.18 16.13988,19.18 0.3979,0 2.75769,-2.14854 5.24398,-4.77453 z M 283.5,228.26366 c 4.16658,-2.27602 27.5,-43.31441 27.5,-48.36649 0,-2.91157 -11.64859,-24.53648 -20.46596,-37.99381 l -6.38202,-9.74045 -5.45206,-0.68119 c -2.99862,-0.37466 -15.45076,-0.52381 -27.67141,-0.33146 l -22.21936,0.34974 -2.23367,2.80207 c -6.60284,8.28302 -25.57034,42.47608 -25.57373,46.10226 -0.003,2.72788 11.87162,25.09786 19.63248,36.98598 3.62992,5.56033 6.79978,10.3248 7.04415,10.58771 1.92915,2.0756 52.07506,2.3322 55.82158,0.28564 z m -35.78241,-22.63951 c -9.26995,-3.45749 -15.70021,-10.65303 -17.65168,-19.75245 -3.59406,-16.75851 8.67226,-31.79171 25.98775,-31.84974 27.88731,-0.0935 36.51007,37.44656 11.52866,50.19112 -5.11547,2.60972 -14.80552,3.29804 -19.86473,1.41107 z M 211,224.98636 c 0,-0.82332 -7.71188,-14.34421 -14.71736,-25.80328 -1.93792,-3.16992 -3.45492,-1.70837 -6.31379,6.08304 -3.8026,10.36341 -4.81847,14.35917 -3.99101,15.69802 0.87148,1.41009 15.37446,4.77407 21.27216,4.9341 2.0625,0.056 3.75,-0.35438 3.75,-0.91188 z m 105.33601,-0.91179 c 4.85981,-1.01563 9.31405,-2.32463 9.89832,-2.9089 1.43627,-1.43627 -6.19866,-23.53512 -8.26889,-23.93381 -0.9202,-0.17721 -2.7613,2.07681 -4.89433,5.99203 -1.88059,3.45186 -5.38872,9.54469 -7.79585,13.53961 -2.40713,3.99493 -4.10224,7.70743 -3.76691,8.25 0.87309,1.4127 4.74963,1.16723 14.82766,-0.93893 z M 173.68568,216.75 c 0.51181,-0.6875 1.74293,-3.95 2.73582,-7.25 0.99289,-3.3 3.77923,-10.93047 6.19187,-16.95659 C 185.02602,186.51729 187,181.13979 187,180.59342 c 0,-0.54636 -2.18828,-6.6409 -4.86285,-13.54341 -2.67457,-6.9025 -5.71548,-15.0195 -6.75758,-18.03777 -1.14046,-3.30314 -2.55845,-5.61559 -3.56199,-5.80885 -2.75221,-0.53003 -21.88039,7.45583 -31.27951,13.05894 -10.44485,6.22649 -18.95447,14.85664 -20.57188,20.86323 -0.9818,3.64612 -0.8184,4.65623 1.52954,9.45524 4.6859,9.57764 17.72288,18.77544 38.47949,27.14791 11.57545,4.66911 12.35572,4.84106 13.71046,3.02129 z m 178.3391,-3.02129 c 21.52272,-8.6815 35.68798,-19.0886 39.44333,-28.97871 1.709,-4.50084 1.71462,-4.98301 0.1072,-9.19199 -2.19358,-5.74379 -11.72217,-14.66071 -21.72814,-20.33333 -8.63708,-4.89656 -23.37527,-11.11157 -28.21061,-11.89623 l -3.28375,-0.53288 -5.10199,14.35221 c -2.8061,7.89372 -5.88422,16.39178 -6.84027,18.88458 l -1.73826,4.53236 4.04212,9.96764 c 2.22316,5.4822 5.05724,13.11764 6.29794,16.96764 2.78354,8.63752 3.7218,10.5036 5.27283,10.48701 0.66815,-0.007 5.95097,-1.92338 11.7396,-4.2583 z M 203.43169,149.39567 c 4.72211,-8.27887 7.39959,-13.96439 6.83984,-14.52414 -1.16916,-1.16916 -22.2842,2.78883 -24.04724,4.50762 -1.03275,1.00683 -0.87998,2.52494 0.80215,7.97104 3.06772,9.93212 5.72531,15.64981 7.27404,15.64981 0.75435,0 4.8634,-6.12195 9.13121,-13.60433 z m 119.27662,4.09833 c 1.76457,-4.9467 3.11457,-10.344 3,-11.994 -0.2082,-2.99842 -0.21433,-3.00121 -11.6215,-5.28681 -12.76983,-2.55862 -14.77085,-2.12451 -11.784,2.55649 0.95818,1.50167 4.49932,7.58786 7.86918,13.52485 4.27621,7.53379 6.61049,10.70375 7.72752,10.494 1.01355,-0.19032 2.77706,-3.59888 4.8088,-9.29453 z M 202,124.05874 c 20.58927,-3.36812 19.77674,-3.02281 25.68234,-10.9145 2.85029,-3.80886 8.13779,-10.31389 11.75,-14.455636 C 243.04456,94.546861 246,90.538902 246,89.782029 246,86.29645 227.34278,72.09034 214.65916,65.918265 199.6467,58.612938 191.22111,58.339593 184.92921,64.953759 179.5164,70.643797 177.59098,78.439327 177.63154,94.5 c 0.0291,11.52916 2.24141,28.86738 4.05852,31.80753 0.59781,0.96727 0.76017,0.94929 20.30994,-2.24879 z M 331.69682,121 c 2.15515,-9.61854 3.20365,-26.880791 2.21699,-36.5 -1.60363,-15.634192 -7.893,-24.5 -17.38019,-24.5 -5.09762,0 -13.3425,2.367492 -20.03362,5.752595 -9.68068,4.89755 -28.48389,18.877474 -30.82773,22.919992 -0.58482,1.008667 1.05589,3.540504 5.5909,8.627515 3.53024,3.959948 9.01096,10.574898 12.17938,14.699898 3.16841,4.125 6.34054,7.83217 7.04916,8.23816 0.70863,0.40599 5.95038,1.43941 11.64835,2.29647 5.69797,0.85707 13.05994,2.16392 16.35994,2.9041 3.3,0.74019 7.34201,1.28178 8.98224,1.20353 2.76864,-0.13207 3.0705,-0.53619 4.21458,-5.64226 z m -59.83162,-2.41669 c 1.5436,-0.954 0.85325,-2.03311 -7.36398,-11.51089 C 260.65188,102.63259 256.76934,99 255.87334,99 c -0.89601,0 -4.06676,2.8125 -7.04613,6.25 -8.54439,9.85825 -9.93783,11.91186 -8.9168,13.14137 1.02979,1.24005 29.97757,1.41393 31.95479,0.19194 z"
       id="path24"
       inkscape:connector-curvature="0" />
    <path
       style="fill:#61d9f9"
       d="m 186.13708,309.63086 c -8.85475,-3.2044 -15.11064,-12.66269 -17.83261,-26.96116 -1.87805,-9.86536 -1.29971,-29.51128 1.26609,-43.00858 1.42379,-7.48977 1.47032,-9.03022 0.30485,-10.09247 -0.75648,-0.68948 -5.42541,-2.73876 -10.37541,-4.55395 -24.93305,-9.1431 -42.01432,-21.33032 -48.04206,-34.27727 -4.83694,-10.38923 -2.62574,-20.27787 6.78355,-30.33643 9.65122,-10.31718 24.49853,-19.07197 43.94225,-25.91076 4.22606,-1.4864 7.90108,-3.26889 8.16671,-3.9611 0.26562,-0.69221 -0.36542,-6.15694 -1.40232,-12.14385 -2.33102,-13.45903 -2.54834,-34.214388 -0.45135,-43.107903 4.11187,-17.438769 12.44195,-25.20997 27.07172,-25.255425 14.66295,-0.04556 30.54335,7.536444 51.48252,24.580033 C 251.37423,78.120898 255.43273,81 256.06991,81 c 0.63718,0 3.69462,-2.192689 6.7943,-4.872643 25.83684,-22.338259 50.67116,-31.565099 65.03086,-24.161298 16.52579,8.520621 20.87603,32.769078 13.49977,75.248391 -0.73656,4.24182 -2.15107,3.29931 14.60516,9.7316 21.33473,8.18986 38.72307,20.837 44.45045,32.33036 9.91146,19.8897 -7.90607,40.65513 -47.85288,55.7701 -5.44634,2.06077 -10.23628,4.35585 -10.64432,5.10017 -0.40805,0.74433 -0.12831,4.27832 0.62164,7.85332 0.74994,3.575 1.81486,11.675 2.36649,18 3.01323,34.55017 -7.43377,55 -28.0973,55 -13.70431,0 -33.195,-9.57317 -52.72204,-25.89529 -8.52209,-7.12338 -7.22771,-7.30729 -19.02889,2.70364 -12.03325,10.2078 -27.14257,18.78869 -38.32481,21.76546 -6.36187,1.69356 -16.03515,1.7203 -20.63126,0.0571 z m 21.14447,-10.70317 c 7.89959,-2.63256 15.23688,-6.69193 24.71845,-13.67552 9.78815,-7.2094 15,-12.22825 15,-14.44453 0,-0.98256 -2.21182,-4.22884 -4.91517,-7.21396 -2.70334,-2.98513 -8.32607,-9.71198 -12.49496,-14.94856 -7.29924,-9.16865 -7.7558,-9.54446 -12.33483,-10.15326 -2.61527,-0.3477 -11.45216,-1.80619 -19.63753,-3.24108 -13.93604,-2.44298 -14.96172,-2.50053 -16.1284,-0.905 C 179.62487,236.89527 177,255.57959 177,266.30003 c 0,16.58654 3.80006,28.77864 10.18266,32.66998 4.36694,2.66243 12.03107,2.64629 20.09889,-0.0423 z m 116.18428,0.65103 c 7.63435,-3.18983 11.53638,-14.37083 11.53015,-33.03882 -0.004,-10.7193 -1.8886,-27.49054 -3.5874,-31.91755 -0.81235,-2.11695 -1.91039,-2.06774 -18.16559,0.81414 -7.55864,1.34008 -15.86257,2.71496 -18.45317,3.05531 -4.49457,0.59048 -5.01599,1.01043 -11.39088,9.17441 -3.67438,4.70558 -9.3173,11.52581 -12.53982,15.15607 -3.22252,3.63027 -5.85912,7.3602 -5.85912,8.28875 0,2.1618 14.49711,13.97799 24.76468,20.185 14.18265,8.57378 26.03364,11.48639 33.70115,8.28269 z M 264.49494,254.75 c 7.61771,-8.29636 10.10154,-12.26332 8.35449,-13.34306 -1.19615,-0.73926 -30.42682,-1.26255 -32.59943,-0.58359 -0.6875,0.21484 -1.25,1.18824 -1.25,2.16309 0,2.56088 14.6719,19.01356 16.9556,19.01356 1.05797,0 4.79792,-3.17526 8.53934,-7.25 z m 18.22223,-25.37277 c 1.38694,-0.37115 4.50441,-4.12407 8.32532,-10.02231 7.94011,-12.25695 20.94787,-36.31862 20.95328,-38.75925 0.009,-4.12705 -23.21123,-45.03962 -27.65706,-48.72965 -1.29866,-1.07788 -7.1596,-1.36602 -27.78592,-1.36602 -22.37083,0 -26.4953,0.23271 -28.60344,1.61383 C 223.84644,134.80181 200,176.20644 200,180.64235 c 0,2.42381 10.98815,22.84241 19.68072,36.57147 8.13935,12.8553 7.37267,12.33242 19.31928,13.17585 7.3228,0.51698 40.90846,-0.26082 43.71717,-1.01244 z M 246.9098,204.62888 c -12.53139,-4.4794 -19.75347,-19.55133 -15.50196,-32.35142 3.63592,-10.94671 13.0505,-17.71055 24.58318,-17.6616 23.64484,0.10037 34.55858,28.12866 17.43017,44.76356 -6.20347,6.02473 -17.87643,8.33607 -26.51139,5.24946 z m -35.41754,21.38364 c 0.53656,-0.86817 -12.75339,-25.55057 -15.4684,-28.72828 -2.05988,-2.41092 -3.89956,0.0307 -7.43075,9.86197 -3.85051,10.72032 -4.40745,14.60407 -2.21492,15.44542 2.54252,0.97566 19.09166,4.26686 21.81279,4.33801 1.48004,0.0387 2.96562,-0.374 3.30128,-0.91712 z m 107.59616,-1.83476 c 8.99966,-2.08697 9.22391,-2.69308 5.34816,-14.45485 -4.97989,-15.11249 -6.84734,-16.79067 -10.54132,-9.47291 -1.17996,2.3375 -4.82328,8.85018 -8.09626,14.47262 -3.27298,5.62245 -5.6373,10.73 -5.25404,11.35012 0.82529,1.33535 7.5978,0.64326 18.54346,-1.89498 z M 178.52471,205.5 c 2.29381,-6.6 5.39597,-14.8746 6.89369,-18.38801 l 2.72314,-6.38801 -4.97693,-12.61199 c -2.73732,-6.93659 -5.71514,-15.1618 -6.61738,-18.27823 -2.40334,-8.30135 -3.10067,-8.6046 -12.30333,-5.35047 -14.9603,5.29008 -28.42508,12.79989 -36.51158,20.36386 -12.82133,11.99285 -11.40712,22.76595 4.56107,34.7452 10.99288,8.2468 33.3605,18.61906 39.13369,18.14699 2.79708,-0.22871 3.11232,-0.77231 7.09763,-12.23934 z m 175.59195,8.14423 C 377.93055,203.9151 393,191.17234 393,180.76438 c 0,-10.89575 -13.63635,-23.05285 -37,-32.9863 -10.98892,-4.67211 -16.83128,-6.36728 -17.90792,-5.19598 -0.46405,0.50484 -2.07954,4.7429 -3.58997,9.4179 -1.51044,4.675 -4.52585,12.88982 -6.70091,18.25516 l -3.95466,9.75517 4.9653,12.74483 c 2.73091,7.00966 5.75035,15.21984 6.70987,18.24484 0.95952,3.025 1.93623,5.8375 2.17046,6.25 0.95831,1.6877 6.38234,0.49693 16.42449,-3.60577 z M 198.59211,159.25 c 1.47203,-2.6125 5.11456,-8.91734 8.09452,-14.01076 2.97996,-5.09342 5.10738,-9.76353 4.7276,-10.37802 -0.83603,-1.35273 -8.77443,-0.64355 -19.16423,1.71205 -6.89489,1.56322 -7.25,1.78169 -7.25,4.46028 0,1.5491 1.62842,7.35028 3.61871,12.8915 4.27985,11.91566 5.80192,12.72832 9.9734,5.32495 z m 121.75734,2 c 2.58028,-5.06549 6.9787,-19.95248 6.36644,-21.548 -0.72763,-1.89617 -5.40894,-3.28942 -16.4656,-4.9005 -5.85651,-0.85336 -8.55993,-0.89186 -9.31907,-0.13272 C 299.63123,135.96877 315.60227,164 317.64294,164 c 0.71814,0 1.93606,-1.2375 2.70651,-2.75 z M 193.54682,126.0584 c 4.92425,-1.06787 13.00318,-2.46784 17.95318,-3.11103 4.95,-0.64319 9.51676,-1.45697 10.14835,-1.8084 0.63159,-0.35143 3.73378,-4.01397 6.89375,-8.13897 3.15996,-4.125 8.60571,-10.7173 12.10165,-14.649556 C 244.13969,94.418188 247,90.538 247,89.727804 247,86.797392 231.18477,73.997372 219.46856,67.44529 210.47986,62.418524 202.65437,60 195.37825,60 c -5.6113,0 -6.69395,0.33829 -9.79418,3.060325 -5.65736,4.96723 -7.8212,12.103277 -8.35482,27.553003 -0.45491,13.170952 1.47106,31.089652 3.81171,35.463212 1.26943,2.37195 1.48604,2.37163 12.50586,-0.0181 z M 330.86053,126.25 C 332.59699,122.98562 335,104.30942 335,94.078077 335,77.204549 331.68976,66.787965 324.67637,61.591948 318.4295,56.963826 304.27719,59.980475 289.25536,69.142146 279.03839,75.373377 265,87.075435 265,89.360816 c 0,1.029328 2.62496,4.856734 5.83324,8.505345 3.20828,3.648609 8.66473,10.233839 12.12544,14.633839 3.46071,4.4 6.79825,8.27512 7.41676,8.61137 0.61851,0.33626 5.17456,1.15675 10.12456,1.82331 4.95,0.66657 12.825,2.03316 17.5,3.03687 10.95744,2.35255 11.74813,2.36966 12.86053,0.27845 z M 273,118.1375 C 273,114.99462 258.32191,98 255.60743,98 c -2.18708,0 -16.54996,17.10795 -16.581,19.75 -0.0264,2.24613 0.003,2.25 16.97357,2.25 15.91497,0 17,-0.11887 17,-1.8625 z"
       id="path22"
       inkscape:connector-curvature="0" />
  </g>
</svg>
