<?xml version="1.0" encoding="UTF-8" standalone="no"?>
<!-- Created with Inkscape (http://www.inkscape.org/) -->

<svg
   xmlns:dc="http://purl.org/dc/elements/1.1/"
   xmlns:cc="http://creativecommons.org/ns#"
   xmlns:rdf="http://www.w3.org/1999/02/22-rdf-syntax-ns#"
   xmlns:svg="http://www.w3.org/2000/svg"
   xmlns="http://www.w3.org/2000/svg"
   xmlns:sodipodi="http://sodipodi.sourceforge.net/DTD/sodipodi-0.dtd"
   xmlns:inkscape="http://www.inkscape.org/namespaces/inkscape"
   version="1.1"
   id="svg44"
   width="537"
   height="512"
   viewBox="0 0 537 512"
   sodipodi:docname="redux.svg"
   inkscape:version="0.92.4 (5da689c313, 2019-01-14)">
  <metadata
     id="metadata50">
    <rdf:RDF>
      <cc:Work
         rdf:about="">
        <dc:format>image/svg+xml</dc:format>
        <dc:type
           rdf:resource="http://purl.org/dc/dcmitype/StillImage" />
        <dc:title></dc:title>
      </cc:Work>
    </rdf:RDF>
  </metadata>
  <defs
     id="defs48" />
  <sodipodi:namedview
     pagecolor="#ffffff"
     bordercolor="#666666"
     borderopacity="1"
     objecttolerance="10"
     gridtolerance="10"
     guidetolerance="10"
     inkscape:pageopacity="0"
     inkscape:pageshadow="2"
     inkscape:window-width="1920"
     inkscape:window-height="1017"
     id="namedview46"
     showgrid="false"
     inkscape:zoom="1.5976562"
     inkscape:cx="268.5"
     inkscape:cy="256"
     inkscape:window-x="-8"
     inkscape:window-y="-8"
     inkscape:window-maximized="1"
     inkscape:current-layer="svg44" />
  <g
     id="g62"
     transform="translate(0.62591801,1.8777509)">
    <path
       style="fill:#d7caea"
       d="m 366,509.29856 c -21.76386,-3.73537 -59.95498,-16.1329 -61.41446,-19.93625 -0.59545,-1.55172 -0.61649,-1.5319 14.33429,-13.51251 5.7309,-4.59239 11.69499,-9.39616 13.25353,-10.67505 l 2.83371,-2.32524 9.98685,3.5515 c 38.77039,13.78744 75.84863,14.016 103.76549,0.63962 14.74667,-7.06587 26.15639,-16.59096 36.4497,-30.42903 19.03722,-25.59315 23.55111,-55.12816 13.31342,-87.1116 -3.72051,-11.6232 -15.46239,-34.5423 -23.26568,-45.41249 -33.42594,-46.5633 -96.66506,-81.9002 -162.22729,-90.64973 -5.79126,-0.77287 -18.20193,-1.7049 -27.57927,-2.07117 l -17.04971,-0.66596 -3.32063,5.17476 c -4.0801,6.35828 -9.76915,11.3329 -17.04953,14.90847 C 243.08007,233.21512 241.39869,233.5 232,233.5 c -9.29907,0 -11.154,-0.30653 -16.21807,-2.68006 -16.05303,-7.52405 -25.74784,-25.4624 -22.73676,-42.06994 3.15286,-17.38957 15.55648,-29.84216 32.73963,-32.86891 13.03372,-2.29585 25.59234,2.36723 35.5865,13.21342 l 6.1287,6.6512 20.5,0.57806 c 73.60981,2.07566 138.59035,28.4247 187.86156,76.17623 28.13195,27.26427 44.13878,51.35 54.27628,81.67041 4.40628,13.17879 5.65302,21.24214 6.54301,42.31723 0.61726,14.61671 -0.7508,32.52306 -3.25245,42.57091 -4.18472,16.80787 -13.91045,32.74289 -29.2892,47.98861 -21.15725,20.97421 -48.24361,35.04121 -78.84317,40.94632 -8.73792,1.68624 -14.10057,1.98478 -33.59679,1.87034 C 378.93966,509.78892 367.375,509.53455 366,509.29856 Z M 112.62761,506.48458 C 66.254453,498.97003 30.063631,475.09659 13.231072,440.91719 3.1513526,420.44979 -0.61806435,400.30019 0.33862597,372 1.0263488,351.65623 2.334244,342.22073 6.0413549,330.85903 15.760878,301.07024 35.723019,272.22896 62.558422,249.20324 75.214138,238.34419 78.529798,236.1287 79.968218,237.57021 c 0.861636,0.86348 7.662239,25.44523 8.775643,31.72081 0.443587,2.50023 -0.773799,4.00018 -11.684408,14.39644 C 56.562179,303.21845 44.526067,320.82182 36.615988,342.8379 20.377459,388.03451 40.70365,440.48672 82.5,461.24266 c 15.38059,7.63796 28.51117,10.53973 51.5,11.38115 33.17826,1.21437 60.65878,-5.20778 93,-21.73394 15.69149,-8.01825 30.78144,-17.31846 45.24269,-27.88389 C 284.92844,413.73774 310.36162,388.59315 319.28244,376.5 327.29679,365.63566 338,347.93152 338,345.53936 c 0,-0.95184 -0.91655,-3.01779 -2.03677,-4.591 -11.24438,-15.79128 -9.51866,-37.29769 4.08439,-50.90074 15.56135,-15.56135 40.11829,-15.59599 55.6358,-0.0785 16.2192,16.21921 15.5807,41.38686 -1.45001,57.15429 C 388.55494,352.38068 379.52365,357 374.92359,357 c -1.3523,0 -2.93691,2.06212 -5.50825,7.1681 -14.48627,28.7659 -40.01453,60.79565 -65.41282,82.07203 -29.12658,24.3996 -67.21716,43.68177 -105.42038,53.36579 -27.18307,6.89055 -31.84124,7.56287 -55.08214,7.94996 -15.90176,0.26485 -24.45936,-0.0321 -30.87239,-1.0713 z M 173.18439,404.4972 c -11.10197,-3.11152 -21.08172,-11.67922 -25.95096,-22.27913 -3.68689,-8.02603 -4.27669,-20.28262 -1.38194,-28.71807 l 2.05898,-6 -7.85451,-15.5 C 106.29924,265.38484 97.611175,198.09977 114.36044,133 126.60876,85.394167 148.16373,51.346461 181.79948,26.474938 192.63436,18.463229 208.60695,10.099108 221.01216,5.9410413 236.72102,0.67563169 262.33642,-1.3748815 281.9481,1.0631171 311.18844,4.6980879 340.5828,21.874061 362.27424,48 c 24.61729,29.649948 38.67022,65.9738 44.11284,114.02241 0.88717,7.8321 0.52636,7.90635 -15.06463,3.1001 -7.60235,-2.34358 -15.38497,-4.80634 -17.29472,-5.4728 l -3.47228,-1.21173 -1.73665,-10.40501 C 363.38639,115.48517 348.33139,83.109413 329.19664,62.825564 313.04154,45.700316 296.64721,37.147197 275.5,34.811395 c -11.59017,-1.280185 -24.5491,0.228607 -40,4.65715 -11.8499,3.396422 -31.37369,13.189671 -39.47399,19.800385 -21.69282,17.703678 -41.92554,54.59554 -48.93729,89.23107 -3.29389,16.27065 -4.41627,28.82947 -4.42382,49.5 -0.01,26.82938 2.57237,45.97767 9.43955,70 4.9728,17.39552 15.96771,43.23355 23.4223,55.04238 2.31718,3.67064 2.37812,3.69514 10.33741,4.1559 6.35546,0.36791 9.32709,1.11362 14.41062,3.61623 7.8594,3.86917 15.81886,12.00062 19.51126,19.93285 2.31699,4.97749 2.67597,7.03273 2.66412,15.25264 -0.0189,13.12647 -2.47985,19.2126 -11.35871,28.09145 -4.93715,4.93715 -8.09731,7.16473 -12.59145,8.87562 -7.58716,2.88838 -18.18401,3.52888 -25.31561,1.53013 z"
       id="path72"
       inkscape:connector-curvature="0" />
    <path
       style="fill:#c7b5e3"
       d="m 372.5,509.37719 c -10.52603,-1.55366 -25.77488,-4.8332 -34.43407,-7.40564 -11.92596,-3.54294 -30.01329,-10.57591 -31.88591,-12.39834 -1.08414,-1.05508 1.37759,-3.45659 13.77804,-13.44098 l 15.09802,-12.15637 11.72196,3.97108 c 43.53601,14.74883 80.82494,13.06177 111.56903,-5.0477 8.62134,-5.07831 24.46134,-20.59835 30.51564,-29.89924 21.13236,-32.46453 21.32255,-64.95693 0.62336,-106.5 -8.67244,-17.40549 -17.45421,-29.46814 -32.47611,-44.60919 -18.29479,-18.43991 -38.22637,-32.49068 -63.79741,-44.97398 -34.16594,-16.67916 -67.13017,-24.70766 -108.82902,-26.50549 l -16.11647,-0.69486 -4.19849,6.18254 c -8.68932,12.7956 -23.17459,19.41594 -37.45132,17.11674 -13.46637,-2.16869 -24.00672,-10.21264 -29.90882,-22.82515 -2.73839,-5.85179 -3.11752,-7.71108 -3.09532,-15.17961 0.0191,-6.42997 0.57926,-9.92539 2.29088,-14.29558 3.16234,-8.07422 11.42942,-16.76959 19.91594,-20.94772 6.03722,-2.97227 7.4529,-3.26443 15.65868,-3.23149 12.12886,0.0487 18.82271,2.66864 26.45124,10.35293 3.06358,3.08597 6.29803,6.55887 7.18765,7.71755 1.52902,1.99144 2.7872,2.13803 23,2.67979 24.37146,0.65322 41.70791,2.91117 63.68863,8.29498 56.36144,13.80482 104.06809,42.88205 141.29299,86.11816 34.45537,40.01936 48.71546,84.42389 42.42595,132.1103 -3.42333,25.95534 -14.20118,46.40268 -34.46209,65.38023 -19.78515,18.53193 -45.51602,31.58999 -74.56298,37.83967 -7.96099,1.71287 -14.17996,2.21669 -30.5,2.47088 -11.275,0.17561 -21.85,0.12004 -23.5,-0.12351 z M 124,506.95273 C 82.102809,503.01392 45.312518,484.79447 24.702887,457.77838 4.9473884,431.88193 -3.4701616,395.03974 1.4402997,355.96199 5.7228601,321.88112 22.92735,288.89151 50.986589,260.957 60.460741,251.52496 76.788321,238 78.700697,238 c 0.672218,0 1.655543,1.6875 2.185167,3.75 0.529624,2.0625 2.346969,9.01489 4.038544,15.44977 C 86.615984,263.63464 88,269.77013 88,270.8342 c 0,1.18316 -3.122978,4.60153 -8.03979,8.80023 C 49.786455,305.40127 30,343.36828 30,375.5 c 0,18.44957 7.261638,41.23573 18.324468,57.5 17.915465,26.33883 50.673814,41 91.608792,41 28.18632,0 55.52747,-6.69995 83.56674,-20.47805 40.34228,-19.82361 73.38829,-46.04839 96.23954,-76.37417 6.42757,-8.52998 18.03198,-27.38924 18.84412,-30.6251 0.33567,-1.33741 -0.76572,-4.24337 -3.03928,-8.019 -6.06781,-10.07659 -7.69569,-19.46105 -5.11991,-29.51533 3.08382,-12.03731 10.13804,-20.67833 21.41244,-26.229 6.01835,-2.96299 7.44058,-3.25606 15.6417,-3.22314 12.61747,0.0507 18.86364,2.62314 27.61284,11.37234 4.85509,4.85509 7.14805,8.08389 8.70435,12.25694 5.65198,15.15516 2.91049,29.78412 -7.71509,41.1687 -5.38317,5.76771 -10.57458,8.93301 -18.27275,11.14125 l -5.69204,1.63278 -5.65864,10.69589 c -32.25027,60.95905 -89.03242,107.46691 -155.86877,127.66555 -10.90175,3.29462 -35.5857,8.97545 -45.08851,10.37679 -10.62222,1.5664 -30.86551,2.10604 -41.5,1.10628 z m 48.92935,-103.26238 c -10.44623,-2.94852 -20.01157,-11.27527 -24.71557,-21.5152 -3.7694,-8.20545 -4.31661,-20.88551 -1.26276,-29.26098 1.47289,-4.03952 1.8772,-6.42276 1.22517,-7.2217 C 147.64092,345.03661 143.83604,337.75 139.7209,329.5 124.08907,298.16146 114.54431,268.63087 109.50022,236 c -2.2394,-14.48695 -3.07399,-47.55602 -1.57794,-62.52239 4.02573,-40.27285 18.62287,-82.511618 37.82496,-109.451506 8.57338,-12.028162 26.18088,-29.717981 37.53003,-37.705486 C 201.91878,13.200765 223.51408,4.3283312 243.7044,1.4941151 282.69935,-3.9798013 316.28629,6.3353784 347.18234,33.274127 371.56841,54.53673 391.71675,91.17997 400.36721,130 c 3.28169,14.72697 6.06175,35.97104 4.86401,37.16878 -0.53954,0.53954 -7.52896,-1.0878 -17.31794,-4.03212 L 371.5,158.19989 370.68825,153.34994 C 364.00127,113.39745 348.00545,79.674704 325.5508,58.190178 307.69034,41.101353 290.83035,33.881306 268.5,33.758997 c -22.9786,-0.12586 -48.60671,7.899483 -67.96795,21.2839 -21.83413,15.09392 -42.49942,48.160173 -51.53291,82.457103 -5.39293,20.47504 -7.09211,34.98834 -7.08318,60.5 0.0117,33.48473 4.74236,60.40077 15.7199,89.44179 4.26353,11.27913 16.84263,36.78753 19.1488,38.83067 1.11169,0.9849 4.36835,1.64733 9.25418,1.88239 13.8786,0.66769 26.60644,9.45306 32.7811,22.62708 2.34687,5.00719 2.68006,6.96129 2.68006,15.71807 0,8.75678 -0.33319,10.71088 -2.68006,15.71807 -3.71574,7.92777 -10.77028,15.13986 -18.56041,18.97493 -5.34927,2.63344 -7.84257,3.22778 -14.605,3.4815 -4.61953,0.17332 -10.13591,-0.25331 -12.72518,-0.98415 z"
       id="path70"
       inkscape:connector-curvature="0" />
    <path
       style="fill:#ae94d6"
       d="m 374,508.8973 c -22.93074,-2.5781 -67.5,-16.12384 -67.5,-20.51497 0,-0.59995 4.5,-4.59539 10,-8.87877 5.5,-4.28338 11.73725,-9.34275 13.86055,-11.24304 4.47281,-4.00302 4.74293,-3.99194 18.13945,0.74378 15.62699,5.52421 29.21724,8.02838 47.10822,8.68029 18.1192,0.66023 28.24073,-0.42149 40.86812,-4.3677 29.52321,-9.22634 53.89288,-33.30557 64.321,-63.55441 3.20414,-9.29423 3.5809,-11.54463 3.99337,-23.85209 0.68085,-20.31596 -2.61663,-34.37183 -13.29773,-56.68313 C 477.24149,299.45792 455.74354,275.24007 425.81169,255.23599 404.22485,240.80907 383.91227,230.84931 360,222.9669 334.46157,214.54844 315.05838,211.21102 286.44459,210.31508 l -19.05541,-0.59665 -3.26497,5.088 c -4.28878,6.68348 -10.07929,11.81139 -17.0042,15.0584 C 242.28396,232.13241 240.17481,232.5 232,232.5 c -8.22817,0 -10.27015,-0.36092 -15.25264,-2.69589 -8.04806,-3.77159 -15.85161,-11.45774 -19.37319,-19.08174 -2.56256,-5.54776 -2.87308,-7.30653 -2.86409,-16.22237 0.009,-9.00808 0.29976,-10.59299 2.93057,-15.97819 3.72286,-7.62061 10.99921,-14.90096 18.32356,-18.33364 C 220.84823,157.80546 222.69314,157.5 232,157.5 c 9.49671,0 11.04946,0.26981 16.25036,2.82373 3.90033,1.91526 7.76103,5.04896 12,9.7403 l 6.24964,6.91657 11.19553,0.01 c 41.372,0.0358 85.75904,9.25822 122.09152,25.36717 56.33429,24.97728 105.85603,73.00887 125.25833,121.4892 13.64067,34.08382 15.53008,69.50429 5.3424,100.15333 -5.80383,17.46046 -13.20724,28.72696 -28.77069,43.78317 C 469.8098,498.55384 421.22381,514.20668 374,508.8973 Z M 116,505.54004 C 91.345496,501.95888 70.860949,494.53648 52.260143,482.44443 41.01671,475.13528 25.8894,459.99123 19.524792,449.67286 2.3576367,421.84129 -4.0523171,382.60631 2.9523467,348.23384 9.6927499,315.15812 27.798206,283.49409 54.442264,258.18484 63.629857,249.45752 76.693382,239 78.407941,239 c 0.81275,0 2.835281,6.04266 5.563958,16.6233 l 4.28704,16.6233 -3.379469,2.51342 c -1.858709,1.38239 -8.587643,7.76934 -14.953187,14.19323 -17.657832,17.81968 -29.851325,37.67662 -36.565702,59.54675 -2.581798,8.40946 -2.763101,10.18109 -2.763101,27 0,16.83234 0.179612,18.58383 2.768808,27 3.519172,11.43905 12.185328,28.12335 18.945309,36.47399 13.388629,16.53902 31.965048,27.21644 56.892333,32.70077 6.73216,1.48116 12.63185,1.81869 31.29607,1.79051 21.0857,-0.0318 24.04524,-0.25798 35.55836,-2.71698 23.39626,-4.99705 47.09555,-14.91634 72.69907,-30.42805 27.00645,-16.36168 55.25863,-41.2051 71.10016,-62.52159 C 327.02178,368.15845 340,347.16677 340,345.21921 c 0,-0.56003 -1.57601,-3.36018 -3.50225,-6.22255 -12.98284,-19.29242 -5.67915,-45.99199 15.26646,-55.80849 C 356.84823,280.80546 358.69314,280.5 368,280.5 c 9.51813,0 11.04244,0.26636 16.30077,2.84839 7.45378,3.66008 14.7692,11.00664 18.27636,18.35416 3.63708,7.6197 4.48013,19.50104 1.94636,27.43036 -3.81898,11.95129 -14.11517,22.26307 -25.48186,25.52045 -3.0479,0.87344 -6.08496,2.02295 -6.74903,2.55445 -0.66407,0.53151 -3.52639,5.31468 -6.36071,10.62928 -12.41154,23.27272 -25.84435,41.13045 -46.40435,61.69045 -23.00669,23.00668 -40.12244,35.32937 -68.02754,48.97722 -23.94136,11.70926 -43.70949,18.30492 -73.5,24.52336 -13.5795,2.83458 -17.79221,3.27612 -34,3.56364 -12.15867,0.21569 -21.75636,-0.14481 -28,-1.05172 z m 60.2697,-101.5941 c -6.88112,-1.35811 -12.87308,-4.49481 -18.32112,-9.59081 -11.70726,-10.95077 -15.69617,-25.9434 -10.83901,-40.73932 l 2.10957,-6.4262 -7.99996,-15.8448 C 106.94181,263.45462 98.514933,194.8608 116.48362,130 127.41596,90.537971 142.60255,63.8276 167.66235,39.98617 192.9197,15.956786 224.54371,2.0188613 257.5,0.39124447 315.00738,-2.4488807 367.40827,37.054333 391.43037,101.35671 398.01837,118.99145 405,150.92941 405,163.43189 c 0,4.49467 -0.15746,4.49467 -14.84253,4.7e-4 -20.64791,-6.31906 -18.2159,-4.3462 -20.26834,-16.44172 C 363.94173,111.94126 346.58155,76.869633 325.3476,57.006317 299.29322,32.63372 268.74507,26.973479 231.14375,39.551362 210.94927,46.306544 194.61275,56.624727 183.61373,69.571412 162.43622,94.498978 148.95261,125.45674 143.35661,162 c -2.2107,14.43639 -2.50464,53.70932 -0.50896,68 4.46214,31.95241 14.77705,63.70553 28.91139,89 l 4.74973,8.5 8.31837,0.68979 c 19.23981,1.59544 32.88541,13.6652 36.28043,32.09064 3.66513,19.89136 -10.48499,39.84483 -30.99406,43.70558 -6.08826,1.1461 -7.85988,1.14097 -13.84381,-0.0401 z"
       id="path68"
       inkscape:connector-curvature="0" />
    <path
       style="fill:#8c68c6"
       d="m 368.68353,507.45643 c -5.39906,-0.73562 -14.60035,-2.53531 -20.4473,-3.99932 -16.95084,-4.24429 -41.30117,-13.20163 -41.19059,-15.15208 0.0251,-0.44277 2.83761,-2.91063 6.25,-5.48413 3.4124,-2.57351 9.77464,-7.65239 14.13831,-11.2864 5.43104,-4.52291 8.42799,-6.38892 9.5,-5.91506 0.86133,0.38073 6.51605,2.38564 12.56605,4.45536 27.73328,9.48762 59.64988,11.48629 83,5.19761 28.28269,-7.61714 51.15551,-27.00472 64.4511,-54.63039 7.19355,-14.94681 8.54467,-21.194 8.46548,-39.14202 -0.0773,-17.52084 -2.1338,-26.96657 -9.841,-45.20078 C 477.66806,293.93236 444.68387,261.36371 394.5,236.49701 359.31386,219.06186 326.08422,210.79178 285.379,209.33934 l -18.121,-0.64659 -3.45878,5.40363 c -4.34373,6.78616 -9.64077,11.46632 -16.75359,14.80251 -4.81973,2.26064 -6.85459,2.60019 -15.54563,2.5941 -9.05091,-0.006 -10.54721,-0.28346 -15.76565,-2.91992 -18.6389,-9.41674 -26.12254,-30.93967 -17.39009,-50.01385 3.45539,-7.54757 8.8193,-13.00242 16.62613,-16.90802 8.15874,-4.08165 15.83425,-5.24607 23.77643,-3.60702 10.00034,2.0638 16.44011,6.16149 23.37891,14.87626 l 3.80694,4.78132 20.78366,0.61146 c 38.07392,1.12014 69.64774,7.40956 102.28367,20.37463 65.86561,26.16601 120.26829,79.01674 138.95717,134.99314 5.81226,17.40872 8.36359,32.13485 8.45797,48.81901 0.0525,9.2737 -0.43046,17.29052 -1.26503,21 -6.58591,29.27323 -13.08632,42.19915 -30.10592,59.86504 -18.78821,19.50165 -43.40419,33.57784 -71.07468,40.64275 -19.19155,4.90003 -44.73163,6.24915 -65.28598,3.44864 z M 119.5,505.3661 C 81.905006,499.95596 52.808128,486.42636 32.5,464.91243 14.865577,446.23096 4.5082099,421.55817 0.84267998,389.5 -1.7686714,366.66152 4.126211,336.40064 16.058137,311.39277 c 11.490208,-24.0821 30.756478,-47.50677 54.76517,-66.58559 5.435216,-4.31917 7.695234,-5.59932 8.185958,-4.63679 0.372832,0.73128 2.40786,8.14998 4.522284,16.486 l 3.844408,15.15638 -3.437979,2.81449 C 63.73715,291.16461 46.007622,314.28715 37.468535,335.2319 30.759836,351.68705 29.616107,357.63845 29.633796,376 c 0.01452,15.069 0.251304,17.2719 2.730252,25.40039 14.991959,49.15872 51.009967,73.67278 108.109722,73.58009 32.7564,-0.0532 63.4165,-8.55957 95.77059,-26.57077 43.11484,-24.00159 75.7597,-53.95806 96.50737,-88.5597 9.14512,-15.25165 8.91221,-14.39759 5.29859,-19.42946 -10.83378,-15.08577 -9.78533,-34.74618 2.58302,-48.43646 4.55119,-5.03762 15.44995,-10.51417 22.73557,-11.42444 24.12636,-3.01439 45.03165,18.38247 41.61014,42.58859 -2.16053,15.28505 -11.72467,26.25811 -26.96544,30.93781 l -6.51361,2.00001 -5.78209,10.75952 c -21.52039,40.04595 -54.63393,75.64036 -91.75778,98.63228 -28.15603,17.43787 -57.03336,28.5668 -94.96013,36.59634 -14.27318,3.0218 -17.12257,3.29903 -36,3.50258 -11.275,0.12157 -21.85,0.0268 -23.5,-0.21068 z M 174.74592,402.9779 C 164.0444,400.27453 154.56443,392.36323 149.60847,382 146.80297,376.13354 146.5,374.57156 146.5,365.97437 c 0,-7.2138 0.4615,-10.5507 1.90155,-13.74927 l 1.90154,-4.22364 -8.62287,-17.25073 C 124.92376,297.22814 115.25866,267.22509 110.35213,233.5 108.15273,218.38241 107.86092,180.05815 109.83817,166 117.3662,112.47606 136.43314,70.894628 166.71288,41.96692 191.79999,17.999983 218.51672,5.2027324 252.5,0.87509474 267.03241,-0.97555086 287.29083,1.986265 304.55997,8.4863527 348.91857,25.182882 383.14789,67.40833 397.38847,123 c 4.0436,15.7852 7.2752,36.31234 6.71285,42.64005 -0.0648,0.72852 -4.52322,-0.20511 -12.35132,-2.58645 -6.7375,-2.04957 -13.82456,-4.1543 -15.74902,-4.67719 l -3.49902,-0.9507 -1.62196,-9.46286 C 363.98697,107.74736 344.29612,70.768661 319.12246,50.764078 303.27301,38.1691 287.92964,32.73741 268,32.666272 235.2887,32.549511 200.26768,47.959918 181.85897,70.571175 159.83064,97.628384 146.57755,129.76095 141.88064,167.5 c -1.85192,14.87992 -1.57303,49.44706 0.51635,64 4.33579,30.19966 11.58852,53.63673 24.72436,79.89638 8.88998,17.7718 8.73262,17.60362 16.47173,17.60362 27.20244,0 45.28515,28.51715 33.70298,53.15095 -5.95331,12.66194 -17.72057,20.65036 -31.50237,21.38598 -4.01153,0.21412 -8.98302,-0.0374 -11.04777,-0.55903 z"
       id="path66"
       inkscape:connector-curvature="0" />
    <path
       style="fill:#7549bb"
       d="m 368,506.47129 c -5.225,-0.79595 -14.20129,-2.62367 -19.9473,-4.0616 C 331.89731,498.36683 309,490.01122 309,488.15869 c 0,-0.41124 2.33762,-2.52769 5.19471,-4.7032 2.85709,-2.17552 8.75778,-6.91848 13.11264,-10.53992 l 7.91792,-6.58442 12.63737,4.26021 c 43.32761,14.60629 84.7337,11.97151 113.82979,-7.24329 13.59414,-8.97746 29.48266,-27.42237 36.5675,-42.45106 12.06099,-25.58433 11.46909,-53.45052 -1.80324,-84.89434 -8.62427,-20.43197 -19.88639,-37.23842 -36.43013,-54.36464 -17.3438,-17.95444 -37.63873,-32.38189 -64.02932,-45.51777 -36.58135,-18.20832 -69.07343,-26.30865 -111.5683,-27.81416 -19.00055,-0.67316 -17.28607,-1.20432 -22.58452,6.99681 -3.84762,5.95548 -10.29373,10.96813 -17.69188,13.75763 -4.59656,1.73315 -7.24047,2.0571 -14.15254,1.73406 -7.30918,-0.34159 -9.38554,-0.87018 -14.82093,-3.77305 -21.888,-11.68969 -26.318,-39.30614 -9.20734,-57.39815 7.25453,-7.67058 14.97209,-10.9897 25.52827,-10.97901 13.41694,0.0136 21.62886,4.518 32.17433,17.64832 L 265.84866,179 h 14.60411 c 33.95775,0 71.14397,6.68073 103.22039,18.54418 15.80982,5.84725 38.78767,17.59427 53.32684,27.26241 36.69221,24.39927 67.28977,58.06889 82.72413,91.0298 7.33134,15.65647 14.07585,38.79488 14.33049,49.16361 0.0668,2.72192 0.25706,3.06222 0.85566,1.53075 1.08711,-2.78129 2.05013,15.28768 1.35517,25.42686 -0.30846,4.50036 -0.88195,7.66291 -1.27441,7.02789 -0.39247,-0.63502 -1.02832,1.62737 -1.41301,5.02754 -1.7601,15.5573 -9.48206,34.42811 -19.56186,47.80501 -19.65926,26.0898 -51.78214,45.39252 -88.51617,53.18958 -13.26429,2.81544 -43.5633,3.58669 -57.5,1.46366 z M 110.5,502.97146 C 72.315901,496.11783 40.243002,477.39145 22.868236,451.80597 14.218568,439.06877 7.2054182,420.90286 4.0261474,403 3.000597,397.225 2.0591777,393.175 1.9341045,394 c -0.1250733,0.825 -0.568059,-1.875 -0.98441281,-6 -0.83874859,-8.30985 -0.0383376,-28.76147 1.05631361,-26.99028 0.3822735,0.61853 0.9709662,-1.49312 1.308206,-4.69256 0.8898595,-8.44221 4.994336,-23.82086 9.2126937,-34.51811 8.012954,-20.31989 22.38792,-41.72253 39.490751,-58.79711 8.958763,-8.94397 24.269546,-22.00402 25.791669,-22.00021 0.379871,9.5e-4 2.436429,6.81616 4.570129,15.14491 l 3.879453,15.14318 -5.879453,5.02099 C 60.914092,292.93403 44.58518,314.87494 36.273617,335.57514 29.736916,351.855 28.616248,357.78483 28.633796,376 c 0.01448,15.03205 0.256919,17.3007 2.725029,25.5 11.094138,36.85579 35.074663,60.86376 69.808475,69.88836 25.95731,6.74428 58.95299,5.9674 87.8327,-2.068 39.85971,-11.09044 90.1336,-42.63302 118.89846,-74.59864 12.42623,-13.80894 26.20718,-33.45146 32.14131,-45.81225 l 2.20381,-4.59053 -3.20472,-4.40947 c -13.87143,-19.08609 -7.6228,-45.04761 13.22483,-54.94589 14.85021,-7.05076 31.41362,-3.66203 42.75507,8.74733 12.37652,13.54188 12.51314,34.6955 0.31172,48.26641 -5.35695,5.95822 -10.64931,9.23961 -18.56421,11.51024 l -5.73373,1.6449 -4.70002,8.68377 c -13.86698,25.62068 -28.46759,45.39081 -47.79657,64.71954 -37.29561,37.29512 -79.17576,59.28061 -137.36277,72.11024 -15.8843,3.50233 -17.69044,3.69102 -38.17318,3.98805 -17.99369,0.26094 -23.29393,-0.0102 -32.5,-1.6626 z m 63.42935,-101.27453 c -20.37264,-5.77964 -31.95137,-28.09329 -24.91718,-48.01848 l 2.26387,-6.41268 -6.05365,-11.38289 C 128.37822,304.2102 116.40234,268.02511 111.33759,233.5 109.1333,218.4739 108.85257,180.19535 110.84256,166 116.29366,127.11521 129.70851,90.418767 147.75953,65.013273 155.52922,54.077986 171.39057,37.711357 181.38715,30.314397 200.56001,16.127462 221.08763,7.1853476 243,3.4749961 c 4.125,-0.6984731 6.6,-1.392223 5.5,-1.5416664 -1.1,-0.1494434 1.66424,-0.5330785 6.14275,-0.8525225 10.06956,-0.71824209 24.13701,-0.18076098 22.45627,0.8579957 -0.72498,0.4480587 1.02352,1.0352968 4.19104,1.4075765 7.98822,0.9388586 22.05257,5.2493639 31.36234,9.6120696 C 355.05534,32.829134 385.90821,75.31863 398.36583,131 c 2.67855,11.97218 5.72559,33.96932 4.71545,34.04159 -0.31971,0.0229 -7.18897,-1.88963 -15.26503,-4.25 L 373.13251,156.5 l -0.62126,-5 c -0.34169,-2.75 -1.97709,-10.55405 -3.63422,-17.34233 C 356.07636,81.720947 323.6061,41.946334 286.74096,33.544698 271.56297,30.085604 257.19509,30.667802 238.61736,35.494705 217.88603,40.881157 200.21015,50.608093 186.96174,63.920497 163.03293,87.964893 145.94712,126.38339 140.89696,167.5 c -1.81598,14.78512 -1.56203,48.43815 0.47919,63.5 4.31519,31.84108 14.49734,63.07295 29.01583,89.00068 l 5.31924,9.49932 8.89439,0.57105 c 6.9205,0.44431 10.11498,1.17992 14.39439,3.31468 7.49604,3.73936 14.27451,10.64353 17.67609,18.00388 2.43829,5.27598 2.82391,7.34226 2.82391,15.13142 0,8.15667 -0.31139,9.65356 -3.24993,15.62258 -6.04041,12.2698 -17.06607,19.65314 -30.51003,20.43106 -4.23498,0.24505 -9.13714,-0.11926 -11.81069,-0.87774 z"
       id="path64"
       inkscape:connector-curvature="0" />
  </g>
</svg>
