<?xml version="1.0" encoding="UTF-8" standalone="no"?>
<!-- Created with Inkscape (http://www.inkscape.org/) -->

<svg
   xmlns:dc="http://purl.org/dc/elements/1.1/"
   xmlns:cc="http://creativecommons.org/ns#"
   xmlns:rdf="http://www.w3.org/1999/02/22-rdf-syntax-ns#"
   xmlns:svg="http://www.w3.org/2000/svg"
   xmlns="http://www.w3.org/2000/svg"
   xmlns:sodipodi="http://sodipodi.sourceforge.net/DTD/sodipodi-0.dtd"
   xmlns:inkscape="http://www.inkscape.org/namespaces/inkscape"
   version="1.1"
   id="svg10"
   width="427"
   height="320"
   viewBox="0 0 427 320"
   sodipodi:docname="sass.svg"
   inkscape:version="0.92.4 (5da689c313, 2019-01-14)">
  <metadata
     id="metadata16">
    <rdf:RDF>
      <cc:Work
         rdf:about="">
        <dc:format>image/svg+xml</dc:format>
        <dc:type
           rdf:resource="http://purl.org/dc/dcmitype/StillImage" />
        <dc:title></dc:title>
      </cc:Work>
    </rdf:RDF>
  </metadata>
  <defs
     id="defs14" />
  <sodipodi:namedview
     pagecolor="#ffffff"
     bordercolor="#666666"
     borderopacity="1"
     objecttolerance="10"
     gridtolerance="10"
     guidetolerance="10"
     inkscape:pageopacity="0"
     inkscape:pageshadow="2"
     inkscape:window-width="1920"
     inkscape:window-height="1017"
     id="namedview12"
     showgrid="false"
     inkscape:zoom="2.55625"
     inkscape:cx="213.5"
     inkscape:cy="128.70416"
     inkscape:window-x="-8"
     inkscape:window-y="-8"
     inkscape:window-maximized="1"
     inkscape:current-layer="svg10" />
  <g
     id="g20"
     transform="translate(-0.39119325)">
    <path
       style="fill:#f8ecf2"
       d="m 28.288949,318.60331 c -15.56479,-4.19692 -21.1508281,-29.34386 -11.067425,-49.82279 6.27424,-12.74269 28.399722,-31.21934 53.076099,-44.32305 4.838692,-2.56945 8.63528,-5.18602 8.436861,-5.8146 C 78.536065,218.01429 70.677694,212.1 61.271438,205.5 38.038988,189.1987 29.816343,182.57643 19.343864,171.73277 9.4940872,161.53388 3.2531631,152.15919 1.624001,145.1152 0.37920946,139.73311 0.27350398,121.51648 1.4492518,115 5.2660769,93.845587 34.686856,61.39777 69.67432,39.75541 98.998851,21.615997 139.59426,4.6505283 160.19317,1.9261405 182.94193,-1.0825851 218.77136,-0.16975072 231.5,3.7428408 c 13.4027,4.1197869 27.53929,14.3489452 33.21539,24.0344772 13.27569,22.653265 4.9029,56.803748 -20.42693,83.316182 -16.79006,17.57395 -38.02574,28.70415 -67.02995,35.1322 -7.93067,1.75764 -13.13004,2.17318 -27.75851,2.21852 -15.98077,0.0495 -18.80351,-0.19688 -25.16271,-2.19649 -12.56286,-3.95031 -23.79628,-13.07971 -26.782541,-21.76615 -1.631171,-4.74476 -0.974268,-7.33818 2.051058,-8.09749 1.851903,-0.4648 3.468113,0.39612 7.428873,3.95718 5.81353,5.22686 13.02735,8.23963 23.29127,9.72734 16.45325,2.38481 43.38832,-3.35952 63.79706,-13.60574 29.83256,-14.97745 51.8949,-43.636542 49.4707,-64.262691 -1.31984,-11.22972 -7.4751,-17.045614 -23.12381,-21.848873 -8.87108,-2.722916 -37.24922,-2.487557 -50.48878,0.418738 -19.61947,4.306788 -39.9009,11.860173 -58.95491,21.956496 -46.061042,24.406788 -70.500754,47.87161 -75.675084,72.65645 -4.223537,20.23057 4.689109,34.9047 35.738682,58.84158 6.924395,5.33818 16.283462,12.89759 20.797928,16.79869 l 8.208124,7.0929 19.62455,-10.74958 c 17.98067,-9.84912 20.2483,-11.40244 27.07068,-18.54334 15.41388,-16.13353 32.22161,-22.63152 41.98749,-16.23267 3.50647,2.29753 6.32089,9.45298 6.41823,16.31786 l 0.0831,5.86302 4.57703,0.5159 c 5.01114,0.56482 9.14303,4.12522 9.14303,7.87841 0,1.12983 -1.52597,7.74224 -3.39105,14.69424 -8.28163,30.86941 -9.52746,39.56833 -4.17335,29.14 5.69642,-11.09506 32.26935,-71.19874 34.04309,-77 3.86181,-12.63055 3.69516,-12.36893 9.04921,-14.20623 5.51187,-1.89146 14.97786,-2.31238 18.8547,-0.8384 1.38204,0.52545 3.22882,2.04814 4.10395,3.38376 1.4712,2.24533 1.43985,2.87062 -0.41582,8.29463 -4.16519,12.17458 -4.3449,25.98761 -0.45911,35.28764 1.87887,4.49677 2.26447,4.07905 11.46639,-12.4214 9.66497,-17.33078 12.37584,-23.30706 15.4226,-34 1.4724,-5.16758 3.39352,-9.69997 4.51151,-10.6438 1.07093,-0.90409 4.9582,-2.16815 8.63839,-2.80903 10.87623,-1.89401 19.34949,0.4649 19.34949,5.38679 0,1.31332 -0.90846,5.24044 -2.0188,8.72695 -4.25099,13.34821 -3.59325,24.51267 2.18235,37.04299 2.41751,5.24485 3.54814,6.73379 4.75414,6.26077 14.90956,-5.84781 26.65763,-7.88584 41.58231,-7.21361 11.94653,0.53809 22.88186,3.48691 31.5,8.49429 5.40502,3.14046 15.28482,12.3614 18.06567,16.86091 4.79329,7.7557 6.40953,24.51141 3.37217,34.95956 -1.20321,4.13891 -2.6393,6.32998 -6.25,9.53575 -7.68104,6.81965 -16.32004,9.208 -17.6903,4.89069 -0.49926,-1.57303 0.87437,-3.47211 6.34439,-8.77124 5.37571,-5.20777 7.14457,-7.63212 7.69005,-10.53979 2.85517,-15.21938 -9.9345,-29.55266 -31.53198,-35.33764 -8.06132,-2.15926 -32.1832,-2.46311 -38.87434,-0.48967 -9.57251,2.82324 -9.14101,2.34655 -7.42453,8.20202 1.89616,6.46841 1.35602,16.03715 -1.21048,21.44406 -7.17168,15.10873 -34.59893,29.63233 -45.40586,24.04385 -11.5192,-5.95681 -6.03212,-27.39881 11.71592,-45.78262 l 6.50572,-6.73876 -3.09689,-6.76124 c -1.70329,-3.71867 -3.87102,-9.57373 -4.81717,-13.01123 -0.94615,-3.4375 -2.01957,-6.25 -2.38538,-6.25 -0.36581,0 -1.70531,2.22086 -2.97666,4.93524 -1.27135,2.71438 -6.00359,10.88663 -10.5161,18.16055 l -8.20457,13.22532 1.72787,5.58944 c 2.88007,9.31665 3.29575,15.23994 1.54819,22.0613 -2.76708,10.80098 -8.68254,17.53381 -20.74016,23.60592 -18.04342,9.08652 -35.59354,8.61301 -37.39864,-1.00904 -0.87929,-4.68701 1.57627,-8.74558 14.56236,-24.06873 5.59337,-6.6 11.52716,-13.95037 13.18618,-16.33415 l 3.01641,-4.33415 -4.01237,-8.66585 C 246.99269,205.39963 244.6728,199.475 244.04419,197 c -0.62862,-2.475 -1.37134,-5.16606 -1.65049,-5.98014 -0.27916,-0.81408 -2.92626,4.23774 -5.88245,11.22626 -5.8806,13.90188 -18.62368,39.66623 -26.74122,54.06618 -11.2017,19.87104 -21.15725,25.53846 -29.75325,16.9377 -3.20954,-3.21131 -3.93577,-4.80194 -5.05555,-11.07297 l -1.30762,-7.32298 -4.5768,9.08102 C 161.71138,278.5491 156.9231,283 148.56675,283 c -7.88369,0 -13.69087,-4.45168 -18.2629,-14 -6.27998,-13.11526 -7.97931,-29.94676 -4.74489,-46.99724 0.85743,-4.51999 1.41498,-8.36216 1.239,-8.53814 -0.17598,-0.17598 -4.02714,1.78499 -8.55812,4.35771 -5.93072,3.36749 -8.07733,5.09781 -7.66398,6.17767 2.59695,6.7844 3.79311,14.71367 3.77134,25 -0.0297,14.04622 -1.70061,21.13904 -8.00951,34 -3.92274,7.99667 -6.02705,10.84509 -13.297753,18 C 78.299388,315.50579 66.306095,320.12032 44,319.86857 c -6.325,-0.0714 -13.394973,-0.64075 -15.711051,-1.26526 z m 36.115917,-28.412 c 13.092022,-6.12649 24.346367,-20.25198 28.237775,-35.44163 1.538367,-6.00484 1.573005,-20.86737 0.05218,-22.3882 -0.740497,-0.74049 -14.778205,7.92128 -24.483818,15.10741 -16.8151,12.45005 -25.384299,24.70785 -25.600604,36.62036 -0.09698,5.34086 0.192139,6.32523 2.378814,8.09926 3.471289,2.81623 10.723851,2.07019 19.415656,-1.9972 z m 93.757904,-45.51375 c 6.50861,-12.8935 19.75997,-49.82758 21.32165,-59.42756 0.58898,-3.62058 0.43666,-4.25 -1.02849,-4.25 -2.9564,0 -8.45436,4.05685 -12.59213,9.29152 -5.2983,6.70286 -12.40311,21.55047 -14.45521,30.20848 -3.22503,13.60666 -1.7045,34.65033 2.26561,31.35543 0.81895,-0.67967 2.83881,-3.90971 4.48857,-7.17787 z M 254.12756,244.25 c 1.24387,-1.58606 1.2085,-1.62143 -0.37756,-0.37756 -0.9625,0.75485 -1.75,1.54235 -1.75,1.75 0,0.82304 0.82119,0.29331 2.12756,-1.37244 z m 55.03338,-8.71339 c 4.52516,-3.07493 7.85253,-9.73286 7.79743,-15.60233 l -0.0416,-4.43428 -3.52186,3.99005 c -1.93702,2.19453 -4.84329,6.75886 -6.45837,10.14297 -4.34399,9.102 -3.96453,10.10908 2.22442,5.90359 z"
       id="path34"
       inkscape:connector-curvature="0" />
    <path
       style="fill:#f1d8e4"
       d="m 33,319.30808 c -5.768823,-0.96813 -9.06341,-2.63587 -12.313234,-6.23303 -10.411132,-11.52388 -10.246151,-33.02439 0.37546,-48.93038 7.822542,-11.71434 27.45515,-27.07819 50.663841,-39.64789 5.074336,-2.74823 9.236836,-5.27883 9.25,-5.62355 C 80.98923,218.5285 73.6875,213.16152 64.75,206.9466 28.749638,181.91282 12.548061,166.87904 4.4827026,151.02334 0.28712085,142.77524 -0.93691571,131.09448 1.1355357,119.08191 4.4710583,99.748202 22.73381,75.540035 50,54.309686 75.479176,34.470764 119.07425,12.871483 150.53583,4.4989765 159.65931,2.0710491 179.10057,0.01834698 193.06358,0.00868954 223.35076,-0.01225844 241.6742,5.3973182 255.887,18.555868 c 9.66904,8.951824 14.07947,19.506837 14.10113,33.746727 0.0449,29.517089 -21.40834,61.294485 -53.49437,79.238025 -8.29643,4.63962 -23.02451,9.94017 -36.49376,13.13388 -12.85832,3.04885 -37.71382,4.27131 -48.60611,2.39058 -14.47788,-2.49984 -29.07053,-12.41458 -32.854342,-22.32235 -1.461007,-3.8256 -1.565044,-5.00708 -0.548734,-6.23166 1.941325,-2.33916 4.110096,-1.81609 7.967026,1.92148 7.68746,7.44956 17.93952,10.71193 33.54216,10.67365 47.53618,-0.11662 98.87496,-34.697275 104.63788,-70.481726 C 246.75151,44.395319 238.93327,34.655234 219,29.307322 c -10.03053,-2.6911 -34.14669,-2.388296 -48.46007,0.608468 -16.52607,3.460032 -33.32371,9.341081 -50.4913,17.677589 C 75.70737,69.125309 49.294655,90.53609 38.12826,114 c -3.442384,7.23347 -3.570273,7.90905 -3.598742,19.01046 -0.0285,11.11284 0.08886,11.75128 3.397184,18.48165 4.36635,8.88278 15.585728,20.26538 34.00895,34.50373 7.389609,5.71105 16.721307,13.2493 20.737108,16.75167 l 7.301457,6.36794 19.643443,-10.71765 c 17.81168,-9.71823 20.30734,-11.4133 26.76289,-18.17749 15.39358,-16.12954 30.69579,-22.68209 40.58456,-17.37868 4.70443,2.52301 7.21608,7.79368 7.60629,15.96175 l 0.31992,6.69662 4.49257,0.53911 c 5.59748,0.67171 8.61826,3.25612 8.60956,7.36588 -0.004,1.70225 -1.32302,7.82001 -2.93204,13.59501 C 201.13158,221.10466 197,239.26188 197,242.42776 c 0,1.41473 0.38404,2.57224 0.85341,2.57224 1.59818,0 34.73346,-73.48189 38.32916,-85 3.34461,-10.71379 3.84035,-11.68686 6.63502,-13.02368 1.47532,-0.70572 6.53552,-1.4901 11.24487,-1.74308 8.02195,-0.43091 8.74556,-0.30245 11.46315,2.03513 l 2.9007,2.49507 -2.46316,7.86635 c -3.19449,10.20196 -3.46025,25.22045 -0.58166,32.87021 1.03483,2.75 2.22971,5.38489 2.65531,5.85531 1.61507,1.78516 24.14726,-39.98909 25.39732,-47.08615 0.36515,-2.07304 1.36769,-5.95087 2.22789,-8.6174 1.86855,-5.79238 4.9597,-7.48648 15.22201,-8.34239 8.92262,-0.74418 14.11598,1.28441 14.11598,5.51388 0,1.60891 -0.66845,4.81987 -1.48543,7.13546 -4.65296,13.1879 -4.00287,25.78678 2.00111,38.7816 2.85821,6.18621 3.7635,7.35604 5.22104,6.74668 14.35292,-6.00054 25.10213,-7.88559 41.15631,-7.21741 18.62273,0.77507 30.53049,5.35941 41.95311,16.1514 9.05129,8.55158 13.118,17.88054 13.14199,30.14752 0.0181,9.27212 -2.35274,15.84874 -7.60799,21.104 -5.59827,5.59826 -12.47736,8.88102 -15.36826,7.33386 -3.14471,-1.683 -2.41385,-3.54095 2.93837,-7.46984 6.72485,-4.93649 10.58383,-12.62334 9.67306,-19.26811 -0.89198,-6.50771 -4.01271,-12.4687 -9.21034,-17.59291 -9.92524,-9.78504 -23.52501,-14.05691 -44.41297,-13.95071 -10.08758,0.0513 -15.14302,0.5445 -20,1.9512 -6.23465,1.80572 -6.48976,2.00384 -6.24908,4.85329 1.52185,18.01736 1.49869,19.11851 -0.49549,23.56186 -4.24611,9.46102 -15.20875,18.72253 -27.74819,23.44236 C 294.14388,258.93985 286,255.32414 286,243.54076 c 0,-9.8992 6.28302,-21.80201 17.8474,-33.81086 l 6.51953,-6.7701 -3.21673,-6.7299 c -1.7692,-3.70145 -4.08731,-9.82795 -5.15136,-13.61447 -1.06405,-3.78651 -2.13441,-7.08433 -2.37858,-7.3285 -0.24416,-0.24417 -1.6679,1.72889 -3.16385,4.38456 -3.15543,5.60168 -15.60399,26.55442 -18.15045,30.54987 -1.50778,2.36573 -1.57327,3.28048 -0.50115,7 0.67831,2.35325 1.75415,6.86614 2.39075,10.02864 3.53532,17.5628 -8.07024,33.5167 -29.24819,40.20681 -19.38886,6.12494 -32.37533,1.0066 -26.46161,-10.42927 0.81717,-1.58023 7.1524,-9.72749 14.0783,-18.10502 17.52302,-21.19577 16.26385,-18.07992 11.54478,-28.56793 C 247.91757,205.48457 245.24316,198.35 244.1657,194.5 l -1.95902,-7 -2.23328,5 c -1.22831,2.75 -4.90818,11.075 -8.17748,18.5 -5.74084,13.03814 -22.92936,46.35613 -27.08439,52.5 -8.02988,11.87343 -16.86309,15.60913 -23.56805,9.96727 -3.47708,-2.92576 -4.94916,-6.76911 -5.99059,-15.64042 l -0.74273,-6.32685 -4.78483,9.71005 c -8.68392,17.62263 -12.98746,21.42222 -23.29539,20.5674 -4.40227,-0.36507 -6.01148,-1.04569 -8.75163,-3.70155 -11.08622,-10.74518 -15.58669,-33.4759 -11.17442,-56.43911 0.93666,-4.87477 1.48016,-9.08607 1.20777,-9.35846 -0.27239,-0.27239 -4.60028,1.85388 -9.61753,4.72503 -7.17437,4.10557 -8.97182,5.57009 -8.41762,6.85846 2.82207,6.56058 3.72308,12.62952 3.73209,25.13818 0.009,12.50568 -0.22581,14.2162 -3.18805,23.22394 -7.68348,23.3644 -27.825506,42.13733 -49.701095,46.32282 -7.026094,1.34432 -21.54365,1.74741 -27.419455,0.76132 z m 32.619613,-28.77581 c 13.003721,-6.41571 24.402226,-21.04351 27.874818,-35.772 2.178513,-9.23985 1.565353,-22.57655 -1.078387,-23.45576 -2.136598,-0.71055 -28.281033,17.65652 -36.197474,25.42957 -9.791994,9.61463 -13.503128,16.61015 -14.062392,26.50774 -0.403336,7.13805 0.40275,9.17036 4.309104,10.86416 3.644542,1.58027 11.787142,0.0611 19.154331,-3.57371 z M 157.78527,247.25 c 6.60776,-12.40067 20.76699,-51.45446 22.66455,-62.51306 0.82345,-4.79889 -0.85591,-5.59643 -6.10287,-2.89831 -5.21562,2.68201 -8.35816,6.19408 -14.11625,15.77621 -7.38811,12.29466 -10.43533,22.40729 -11.00156,36.51018 -0.76685,19.10008 2.61113,24.28185 8.55613,13.12498 z m 93.81385,0.55187 c 4.27265,-3.93839 8.06537,-9.47071 7.13235,-10.40373 -0.35715,-0.35716 -7.35446,7.38676 -11.61279,12.85186 -2.39367,3.07202 -0.21929,1.88393 4.48044,-2.44813 z m 58.76661,-12.09416 c 1.57616,-1.10479 3.93426,-4.30349 5.24024,-7.10821 C 317.95035,223.56468 318.87735,215 317.07792,215 314.01878,215 303,233.03171 303,238.03785 c 0,1.78986 0.26862,1.892 2.25,0.85555 1.2375,-0.64733 3.53958,-2.08089 5.11573,-3.18569 z"
       id="path32"
       inkscape:connector-curvature="0" />
    <path
       style="fill:#ebc7d9"
       d="M 32.239547,318.9408 C 24.257432,317.36689 19.325875,312.86917 15.501679,303.67539 11.653406,294.42374 12.939776,280.0028 18.617876,268.74107 21.956183,262.11999 36.761926,247.28236 47.5,239.79674 51.9,236.72945 61.2375,230.9632 68.25,226.98285 75.2625,223.00249 81,219.39084 81,218.95695 81,217.87259 76.089169,214.1462 58,201.50431 30.857296,182.53522 17.600969,170.57798 8.8469296,157.16814 3.2918593,148.65863 1.0493982,142.29321 0.28542764,132.86559 -2.7299956,95.654381 44.888305,47.756713 114.5,17.98094 146.02991,4.4943077 165.86315,-0.01456765 193.5,0.02113703 223.04404,0.05930565 244.2111,6.880123 257.62867,20.685789 c 7.4915,7.708179 12.32094,20.061238 12.35655,31.606369 0.0381,12.360936 -5.59376,29.21485 -14.20118,42.49826 -6.76438,10.439142 -23.08447,26.256682 -34.16793,33.115812 -31.63571,19.57811 -82.63494,26.00518 -105.89543,13.34523 -6.75763,-3.67797 -13.41481,-9.73158 -15.762487,-14.33341 -4.03194,-7.90325 -1.211353,-12.39968 4.459997,-7.10987 4.65557,4.34236 8.46901,6.67303 15.08181,9.21754 8.00511,3.08027 27.70754,3.39935 40.44188,0.65496 37.57707,-8.09827 68.54131,-29.940283 81.2798,-57.334346 2.86147,-6.15359 3.1884,-7.814752 3.23096,-16.417129 0.0438,-8.847897 -0.1641,-9.890495 -2.7522,-13.803457 -3.48417,-5.267711 -10.0997,-9.546104 -19.20044,-12.417309 -6.18309,-1.950711 -9.15898,-2.205821 -25.5,-2.186007 -20.87554,0.02531 -28.93214,1.383093 -50.11497,8.445886 C 109.35346,48.482119 65.595686,75.806792 47.890762,97.785587 29.822148,120.21586 28.353081,141.61708 43.553851,160.96523 48.894403,167.7629 53.139858,171.52739 76.5,190.1789 c 9.35,7.46536 18.090941,14.75411 19.424314,16.19724 1.333373,1.44312 3.056364,2.62386 3.828869,2.62386 0.772507,0 9.806567,-4.56902 20.075687,-10.15338 17.27509,-9.3942 19.31375,-10.80459 27.26578,-18.86305 13.7777,-13.96208 27.23275,-20.58813 36.65492,-18.051 C 190.60688,163.77905 194,169.90637 194,180.44288 V 186.95 l 2.75,-0.54776 c 3.70801,-0.73859 7.78262,0.95482 9.83525,4.08752 1.62487,2.47986 1.53492,3.16409 -2.33922,17.79463 -6.79511,25.66152 -8.66931,35.41269 -7.24834,37.71187 0.56258,0.91027 2.0618,-1.14978 4.79288,-6.58582 C 206.66546,229.70731 237,161.52122 237,160.26658 c 0,-0.49697 0.70269,-3.26978 1.56153,-6.16181 1.27915,-4.30738 2.1381,-5.49797 4.75,-6.58395 5.00954,-2.08288 13.81357,-2.83349 18.4839,-1.5759 5.35314,1.44145 5.99429,3.75845 3.38113,12.21888 -2.78595,9.01984 -3.48909,16.3143 -2.28543,23.70909 1.2537,7.70224 3.9616,15.12711 5.51695,15.12711 2.79149,0 23.40888,-39.37056 25.89666,-49.45173 3.18409,-12.90282 5.11754,-14.39048 18.83448,-14.49183 6.05392,-0.0447 8.12272,0.33508 9.96915,1.83023 l 2.32993,1.88666 -2.71915,9.41416 c -3.11032,10.76844 -3.48875,19.43761 -1.22748,28.11921 1.56565,6.01093 5.77098,15.11956 7.46342,16.16554 0.54622,0.33759 5.11593,-0.76748 10.15492,-2.4557 17.72468,-5.93831 37.86593,-6.27916 53.74802,-0.90956 12.26424,4.14643 24.80286,14.47535 30.16249,24.84689 3.77995,7.31468 4.97264,19.30411 2.74784,27.6224 -2.77023,10.35758 -19.98979,23.22219 -22.46156,16.78086 -0.44528,-1.1604 0.89889,-2.96044 4.57708,-6.1294 2.86412,-2.46759 6.08694,-6.21037 7.16181,-8.31729 4.51621,-8.85251 1.09353,-21.00359 -8.29354,-29.44337 -6.13856,-5.5191 -9.80756,-7.48984 -19.76425,-10.61603 C 380.433,199.79294 377.50639,199.5 363.5,199.5 c -13.01374,0 -17.02653,0.34956 -21.5,1.87292 -3.025,1.03011 -5.87155,2.21166 -6.32566,2.62566 -0.45412,0.41401 -0.11662,3.14038 0.75,6.05859 4.28498,14.42909 -1.42344,27.11014 -16.79739,37.31478 -6.33025,4.20179 -17.62307,8.62953 -21.99601,8.62431 -8.2722,-0.01 -12.79577,-7.33761 -10.66449,-17.27542 2.16289,-10.08523 11.64925,-24.9111 20.28666,-31.7053 3.39242,-2.66847 3.43932,-4.71558 0.25216,-11.00514 -1.3721,-2.70771 -3.5722,-8.65525 -4.88911,-13.21676 -1.31691,-4.5615 -2.76115,-8.2324 -3.20941,-8.15754 -0.44826,0.0748 -3.66689,5.24985 -7.15252,11.5 -3.48562,6.25014 -8.59958,14.81192 -11.36434,19.02616 l -5.02684,7.66227 2.06848,6.94555 c 4.40139,14.77907 2.16896,26.27414 -6.85743,35.30967 -14.17743,14.19181 -43.08462,19.91337 -47.1105,9.32452 -1.33544,-3.51249 0.525,-7.41577 7.81886,-16.40427 3.34729,-4.125 9.71559,-11.97501 14.15176,-17.44447 C 250.3704,225.08607 254,219.86086 254,218.94395 c 0,-0.9169 -1.76011,-5.44189 -3.91136,-10.05553 -3.56805,-7.65213 -4.59425,-10.67616 -6.54371,-19.28306 -0.38069,-1.68072 -1.0242,-2.51946 -1.53447,-2 -0.48336,0.49205 -3.41879,6.74464 -6.52319,13.89464 -12.15989,28.00651 -28.81274,59.41713 -35.36731,66.70984 -6.89392,7.67027 -11.62708,9.37581 -17.08013,6.15462 -4.21083,-2.4874 -5.99104,-6.42779 -7.22594,-15.99419 l -1.12544,-8.71843 -5.59422,11.40376 c -8.76957,17.87664 -14.88403,22.69372 -25.25951,19.89989 -5.19985,-1.40017 -8.9713,-5.3418 -12.73527,-13.30991 -6.34994,-13.4425 -7.60957,-30.16771 -3.65604,-48.54464 0.87549,-4.06949 1.3679,-7.62296 1.09424,-7.89662 -0.54446,-0.54446 -16.20111,8.22303 -18.40141,10.30451 -1.14914,1.08709 -1.07046,2.13211 0.5,6.64064 1.49771,4.29966 1.86376,8.29659 1.86376,20.35053 0,13.88254 -0.21804,15.66531 -2.92687,23.93067 -7.52314,22.95511 -29.609791,42.82876 -51.655043,46.47939 -7.531944,1.24726 -19.436617,1.26151 -25.67854,0.0307 z m 33.358035,-27.89921 c 13.137243,-6.43887 25.288326,-21.87018 28.409074,-36.07822 1.39672,-6.35894 1.01267,-22.34518 -0.57494,-23.93211 -0.757516,-0.75719 -3.666558,0.56038 -10,4.52921 -29.611206,18.55581 -41.925468,32.87332 -41.929831,48.75087 -0.0017,6.10232 0.27304,7.08391 2.4842,8.87632 3.803562,3.08324 12.755932,2.19425 21.611497,-2.14607 z M 155.23101,252.25 C 161.37982,245.2672 181,192.36608 181,182.7701 c 0,-6.8384 -11.23434,-0.69921 -18.37443,10.04101 -12.16329,18.2962 -17.50144,41.14177 -13.08683,56.00739 1.61432,5.436 3.12517,6.34679 5.69227,3.4315 z m 96.92988,-4.01432 c 3.96694,-3.58389 8.24745,-10.51067 7.63347,-12.35259 C 259.49179,234.97536 244,252.24867 244,253.49378 c 0,1.04845 4.11491,-1.6028 8.16089,-5.2581 z m 54.63877,-9.6464 c 3.42794,-1.79084 7.50911,-6.17149 9.58618,-10.28962 C 318.1408,224.82016 318.62311,214 317.02325,214 c -1.63707,0 -9.17744,10.17679 -11.64482,15.71632 -4.50627,10.11704 -4.23244,11.82657 1.42123,8.87296 z"
       id="path30"
       inkscape:connector-curvature="0" />
    <path
       style="fill:#e4afc9"
       d="M 33.3264,318.95562 C 27.42122,317.78799 23.512034,315.53787 20.478069,311.56013 11.612204,299.93639 11.87612,280.07091 21.089987,265.5 28.138062,254.3541 45.163565,240.69738 68.772884,227.25195 75.772798,223.26553 81.5,219.48147 81.5,218.84293 81.5,218.20439 75.875,213.69434 69,208.8206 40.047075,188.29565 32.004587,182.0416 22.959013,173.01791 -1.2394827,148.87795 -5.6210058,129.84604 7.1490268,104.34447 17.740704,83.19305 41.251092,59.636303 69.404581,41.966162 95.701964,25.46098 130.9547,10.0829 156,4.1911836 c 26.61823,-6.261735 59.44398,-5.2036788 79,2.546368 23.02258,9.1238434 33.95648,23.9402504 33.98813,46.0569324 0.0158,11.068793 -2.177,19.663395 -8.08941,31.705516 -15.97252,32.53213 -47.98951,54.15364 -90.3689,61.02737 -10.64964,1.72731 -31.70413,1.92709 -40.07195,0.38021 -13.37953,-2.47334 -27.50841,-12.23613 -31.021629,-21.43536 -2.903439,-7.60255 0.0304,-8.55955 7.204789,-2.35016 9.20608,7.96781 18.50619,10.38488 37.00739,9.61811 40.16965,-1.66482 81.47893,-25.7841 96.32296,-56.24017 8.60292,-17.650927 7.16392,-32.283234 -3.931,-39.972019 -21.44435,-14.860945 -67.33157,-11.520878 -110.042,8.009804 -30.690392,14.034146 -56.795829,31.157483 -72.563287,47.596434 -8.334025,8.688948 -12.482938,14.558801 -16.736241,23.678331 -2.912436,6.24457 -3.121637,7.44974 -3.158922,18.19791 -0.03849,11.09584 0.0827,11.76224 3.364357,18.5 4.342146,8.91511 17.199128,21.92144 36.095713,36.515 7.425,5.73422 16.301149,13.02431 19.724776,16.2002 3.423627,3.17589 6.521635,5.77434 6.884464,5.77434 0.362828,0 9.71168,-4.95099 20.77522,-11.0022 18.3912,-10.05908 20.65062,-11.59503 26.35763,-17.91795 6.86735,-7.60848 17.60911,-15.29871 24.7843,-17.74354 2.86979,-0.97784 6.49873,-1.39618 9.55981,-1.10205 8.32138,0.79958 12.10739,6.0463 12.45886,17.26574 l 0.21929,7 5.22621,0.53798 c 5.68548,0.58525 8.00944,2.54759 8.00944,6.76315 0,1.33038 -1.52597,8.10687 -3.39105,15.05887 -7.24256,26.99633 -8.97414,37.17823 -6.57488,38.66106 0.60329,0.37285 3.74309,-5.03492 7.53692,-12.98106 10.7756,-22.56938 30.45799,-67.60258 32.57875,-74.54 2.9286,-9.58003 4.04039,-11.37006 7.88401,-12.69356 1.90644,-0.65645 6.6789,-1.21895 10.60547,-1.25 5.55842,-0.0439 7.65378,0.36023 9.46313,1.82535 l 2.32391,1.88179 -2.46313,7.86628 c -3.44516,11.00249 -3.48306,25.18263 -0.0912,34.12014 1.30455,3.4375 2.91278,6.25 3.57383,6.25 1.31647,0 13.01491,-20.11606 20.19637,-34.72868 2.49452,-5.07577 5.40246,-12.698 6.46209,-16.93828 1.05963,-4.24029 2.63933,-8.49717 3.51045,-9.45975 3.06769,-3.38976 17.48528,-5.05371 22.38533,-2.58352 3.27827,1.65263 3.53437,4.23372 1.18012,11.89347 -2.85512,9.28936 -3.43396,15.4667 -2.18488,23.31676 1.30419,8.19639 7.67753,22.09794 10.00476,21.82241 0.825,-0.0977 4.7711,-1.3235 8.76911,-2.72406 11.07494,-3.8797 19.01732,-4.91647 33.12392,-4.3239 10.17692,0.4275 14.10911,1.05056 20.40001,3.2324 14.49315,5.02659 25.18219,14.13325 31.0966,26.49315 2.76876,5.78613 3.11031,7.48843 3.10995,15.5 -4.8e-4,10.39756 -1.42245,14.18757 -7.66531,20.43043 -4.60799,4.60799 -11.82895,8.39258 -14.24441,7.46568 -2.53343,-0.97217 -1.58072,-2.79879 3.41013,-6.5382 4.86161,-3.64258 10,-12.30371 10,-16.85572 0,-9.17792 -6.68971,-19.90626 -16.27623,-26.10233 -14.82898,-9.58443 -41.70182,-12.36647 -61.57708,-6.37484 -5.25621,1.58455 -5.34183,1.67151 -4.72053,4.7944 0.34803,1.74932 0.89936,6.86272 1.22517,11.36312 0.51701,7.14134 0.31104,8.76375 -1.61869,12.75002 -5.85299,12.09067 -25.27538,24.72723 -38.01359,24.73232 -9.13302,0.004 -12.54794,-9.01971 -8.14956,-21.53388 2.59106,-7.37202 7.78911,-15.17155 15.70022,-23.55775 l 6.72138,-7.12502 -3.55783,-7.72412 c -1.95681,-4.24826 -4.37197,-10.98661 -5.36703,-14.97411 -0.99506,-3.9875 -2.14057,-7.25 -2.54556,-7.25 -0.405,0 -1.80558,1.9125 -3.11241,4.25 -8.21982,14.70266 -12.53632,22.04903 -16.46884,28.02871 -4.85853,7.38776 -4.84288,7.22056 -1.7501,18.70501 5.27279,19.57951 -5.64742,35.82863 -28.84466,42.92047 -18.16302,5.55279 -30.30049,0.24261 -23.80202,-10.41345 1.00934,-1.6551 6.90616,-9.0801 13.10405,-16.5 6.19789,-7.41991 12.41381,-15.19128 13.81316,-17.26971 l 2.54427,-3.77898 -4.06441,-8.72102 c -3.99464,-8.57135 -5.00452,-11.36849 -7.25626,-20.09823 -0.75354,-2.92142 -1.462,-4.04425 -2.13017,-3.37608 -0.55062,0.55062 -3.65688,7.16659 -6.90279,14.70215 -10.28858,23.88546 -27.89484,57.80083 -34.12877,65.7431 -6.32705,8.06089 -14.62062,10.16297 -19.77216,5.01144 C 177.94789,269.10173 176,262.06072 176,253.95078 176,251.22785 175.65018,249 175.22262,249 c -0.42755,0 -3.38764,5.34294 -6.57797,11.87319 -3.68327,7.53926 -7.22545,13.26452 -9.70409,15.68485 -3.44961,3.36845 -4.57423,3.85471 -9.67203,4.18195 -9.56021,0.61369 -14.90052,-4.35447 -19.78833,-18.40937 -4.93323,-14.1855 -5.24718,-27.65143 -1.0642,-45.646 0.73174,-3.14782 1.01871,-5.91595 0.63772,-6.15142 -0.74015,-0.45744 -17.67206,8.84929 -19.85917,10.91572 -1.07255,1.01336 -1.03636,1.93082 0.2028,5.14225 4.88691,12.66505 4.66379,31.36657 -0.55799,46.76941 C 98.241844,304.62035 64.3431,325.08856 33.3264,318.95562 Z M 65.911956,291.38778 C 84.365292,282.28276 97.167997,260.40012 95.684478,240.5 95.095916,232.60494 94.328214,230 92.590031,230 c -1.732371,0 -17.395359,10.00069 -26.406899,16.86059 -16.45586,12.52678 -24.326056,23.97707 -25.028818,36.41423 -0.40844,7.22837 0.767242,9.83177 5.345686,11.83733 3.656659,1.60177 11.773597,0.0445 19.411956,-3.72437 z M 158.7559,247.3051 c 6.68286,-12.54156 20.48567,-50.61612 22.62732,-62.41661 1.47421,-8.12294 -5.04397,-7.40842 -13.93815,1.52789 -7.26877,7.30321 -14.33959,20.77962 -17.52202,33.39553 -2.68644,10.64973 -2.49196,28.15659 0.36109,32.50356 2.41321,3.67684 4.50053,2.44235 8.47176,-5.01037 z m 92.92601,2.05155 c 4.166,-3.36611 10.26354,-13.74454 8.88507,-15.123 -0.38507,-0.38507 -2.35767,1.31053 -4.38355,3.76799 -2.02589,2.45747 -5.82093,6.84219 -8.43343,9.74383 -7.52162,8.35407 -5.45924,9.19918 3.93191,1.61118 z m 61.00602,-14.50933 c 5.31996,-5.7075 8.43704,-19.09466 4.77337,-20.50054 -2.20274,-0.84528 -7.6484,5.71171 -11.91085,14.34155 -3.41121,6.90643 -4.25949,10.2693 -2.92663,11.60216 0.89234,0.89234 7.47959,-2.67037 10.06411,-5.44317 z"
       id="path28"
       inkscape:connector-curvature="0" />
    <path
       style="fill:#d98eb3"
       d="m 34.3264,319.02226 c -5.995052,-1.28112 -9.707993,-3.45061 -13.266027,-7.7514 C 17.48643,306.95084 14,296.74587 14,290.60476 c 0,-4.83014 2.267245,-14.16064 4.870104,-20.04217 5.631134,-12.72434 26.715388,-30.3149 53.713818,-44.81335 5.376204,-2.88708 9.94378,-5.77305 10.150169,-6.41326 0.206389,-0.6402 -4.711849,-4.80581 -10.929419,-9.2569 C 65.587102,205.62799 54.710351,197.83542 47.634113,192.76226 24.573164,176.2292 11.837678,162.58781 4.3660532,146.41646 -1.6805388,133.32941 -1.1767284,123.9089 6.4528974,107.39558 11.906218,95.592578 18.535257,86.412722 30.461418,74.148712 53.732681,50.218211 85.24175,30.501436 125.5,14.678393 c 45.24781,-17.7841322 84.65953,-19.312097 115.48484,-4.477266 10.31942,4.966272 19.7701,13.837625 23.55994,22.115711 11.71863,25.596862 -2.27318,62.722876 -32.86232,87.197212 -25.97435,20.78205 -72.8366,32.27428 -103.56714,25.3982 C 114.60781,141.8899 99,129.25866 99,121.34952 c 0,-3.41208 2.57732,-2.96411 7.25376,1.26077 11.29755,10.20666 32.09353,12.97488 56.35752,7.50192 36.06278,-8.13428 65.94941,-29.37932 78.72031,-55.958679 3.34013,-6.951626 4.08552,-9.645347 4.46025,-16.118701 0.54429,-9.402227 -0.76089,-13.887926 -5.59907,-19.243222 C 232.51721,30.295687 218.41563,25.921821 198.5,25.859831 169.73395,25.770292 139.19458,34.700833 105.5719,53.034528 66.807168,74.172069 43.76138,95.051506 35.278802,116.71993 c -2.221349,5.67435 -2.664365,8.41879 -2.716504,16.82843 -0.05981,9.64774 0.08674,10.35006 3.675822,17.61544 5.047997,10.21865 13.859571,19.48359 32.223203,33.8811 C 76.732595,191.52978 86.875,199.78716 91,203.39465 c 4.125,3.60749 8.215248,6.56949 9.08944,6.58221 0.87419,0.0127 10.25954,-4.75822 20.85634,-10.60211 17.97233,-9.91132 19.88127,-11.24411 28.41056,-19.8358 17.4603,-17.58805 34.06859,-21.97721 41.31459,-10.91842 1.13555,1.73307 1.84637,5.40436 2.14389,11.07299 l 0.44511,8.4803 3.24664,-0.60907 c 1.78565,-0.33499 4.39981,-0.17064 5.80923,0.36522 5.08769,1.93433 5.0506,3.2818 -0.72169,26.22222 -2.95436,11.74129 -5.68494,23.68181 -6.06796,26.53449 -0.72571,5.40493 0.20794,8.72691 2.11294,7.51796 3.34334,-2.12173 39.27077,-82.02305 41.44953,-92.18227 0.56899,-2.65311 1.87338,-5.58299 2.89863,-6.51084 2.20784,-1.99806 12.94174,-3.53364 18.44289,-2.63841 5.75078,0.93584 6.30643,2.62715 3.72255,11.33098 -2.97455,10.01978 -3.57274,16.10252 -2.35365,23.93298 C 262.972,189.67127 266.66161,199 268.4685,199 c 1.20842,0 14.04844,-21.89859 20.85008,-35.55972 1.93321,-3.88285 4.25175,-9.73285 5.15233,-13 2.7523,-9.98498 4.54928,-14.23221 6.32812,-14.9568 0.93554,-0.38108 5.52597,-0.92477 10.20097,-1.2082 7.35447,-0.44589 8.81646,-0.2581 10.84818,1.3934 l 2.34818,1.90874 -2.72976,8.7553 c -2.40685,7.71964 -2.67446,9.9037 -2.26226,18.46379 0.42238,8.77162 0.86308,10.55266 4.56671,18.456 4.42089,9.43393 5.53562,10.17826 11.02861,7.36401 6.66449,-3.41446 20.56191,-5.95446 32.70034,-5.97656 19.95931,-0.0363 34.63203,5.30688 46.12039,16.79525 17.70083,17.70083 17.43807,41.55647 -0.57615,52.30846 -9.38512,5.60161 -12.45246,3.45848 -4.12041,-2.87889 12.1863,-9.26894 12.0989,-25.89468 -0.20079,-38.19437 -5.74405,-5.74405 -17.09024,-11.18858 -27.64164,-13.26398 -14.09286,-2.77199 -41.87411,-0.6098 -46.43823,3.61424 -0.47126,0.43614 -0.0845,3.87242 0.85953,7.63616 1.07927,4.30308 1.50602,8.61964 1.14969,11.62909 -1.48341,12.52841 -13.04535,24.11216 -30.32831,30.38554 -8.19625,2.97508 -11.44407,2.9399 -15.13275,-0.16392 -8.01488,-6.74407 -2.3849,-24.52491 12.95766,-40.92339 l 7.93624,-8.48244 -2.47653,-4.88719 c -2.41579,-4.76734 -5.40097,-13.39873 -7.59647,-21.96452 -0.59913,-2.3375 -1.63447,-4.24467 -2.30077,-4.23815 -0.6663,0.007 -3.19345,3.82002 -5.61589,8.47444 -3.57529,6.8695 -10.57276,18.53829 -18.38644,30.66074 -0.78903,1.22414 -0.47139,3.63522 1.23713,9.39036 3.08418,10.3891 2.59152,19.86655 -1.41542,27.22861 -3.36265,6.1783 -5.24609,8.02059 -12.90552,12.62353 -8.51382,5.11639 -17.7955,7.95791 -26.26448,8.04069 C 227.88265,268.51309 225,266.73194 225,261.41052 c 0,-3.45763 1.621,-5.71454 20.39934,-28.40202 4.77608,-5.77033 8.9519,-11.55975 9.27959,-12.86539 0.39604,-1.57794 -0.49015,-4.61868 -2.64301,-9.06886 -1.78135,-3.68224 -4.45006,-10.91178 -5.93047,-16.06565 -1.48041,-5.15386 -3.1461,-9.52215 -3.70155,-9.7073 -0.55544,-0.18515 -3.6385,5.85882 -6.85124,13.43103 -9.61361,22.65867 -28.14057,58.76463 -34.47782,67.19154 -3.6366,4.83573 -9.85124,9.07613 -13.3018,9.07613 -6.59961,0 -10.94951,-8.41419 -10.94951,-21.18005 0,-3.74604 -0.37014,-7.03974 -0.82252,-7.31933 -0.45239,-0.27959 -3.75178,5.49788 -7.33199,12.83882 -7.12595,14.61122 -10.72384,19.05969 -16.72154,20.6747 -8.47646,2.28248 -14.53105,-1.67215 -19.85859,-12.97087 -6.50905,-13.8045 -7.60621,-28.83187 -3.52359,-48.26135 1.00753,-4.79494 1.55197,-8.99798 1.20986,-9.34009 -0.3421,-0.34211 -5.42292,2.18412 -11.29069,5.61385 -11.95537,6.98794 -11.20234,5.36031 -8.07067,17.44432 1.94533,7.50631 2.02386,23.77158 0.15728,32.57689 -6.31988,29.81318 -33.345844,53.14214 -63.07108,54.4433 -4.95,0.21667 -10.87812,-0.007 -13.1736,-0.49793 z M 65.348286,292.39519 C 86.249224,281.73153 98.919611,259.0448 95.93224,237.63365 94.914425,230.33875 94.448939,229 92.930297,229 91.179986,229 74.300788,239.91932 65.310104,246.86778 48.75255,259.6643 40.983601,271.05066 40.170636,283.7128 c -0.377592,5.88108 -0.22976,6.38192 2.768846,9.38053 3.064925,3.06492 3.387887,3.15198 9.950956,2.6824 4.802364,-0.34361 8.440344,-1.3308 12.457848,-3.38054 z M 248.76758,252.25 c 6.40304,-4.83282 9.90233,-9.06297 11.69111,-14.13291 2.01098,-5.69972 0.0579,-6.4882 -3.87038,-1.56248 -1.69857,2.12987 -5.67581,6.79652 -8.83831,10.37032 -8.30466,9.38474 -7.80757,11.98603 1.01758,5.32507 z m -91.42573,-1 c 4.80012,-7.60495 17.34801,-39.3391 22.13394,-55.97769 3.18393,-11.06914 3.09328,-15.62095 -0.32073,-16.1043 -6.69998,-0.94857 -15.40032,7.74681 -23.01098,22.99787 -6.11234,12.24857 -8.04749,19.14304 -8.83964,31.49355 -1.149,17.91411 4.06535,27.05225 10.03741,17.59057 z m 152.36746,-13.15438 c 4.9379,-3.577 8.0433,-8.44804 9.14485,-14.34436 1.0225,-5.47321 0.36452,-10.75126 -1.3403,-10.75126 -3.84423,0 -14.4145,16.23431 -16.1149,24.75 -0.59226,2.96604 -0.43272,3.25 1.826,3.25 1.36123,0 4.27919,-1.30697 6.48435,-2.90438 z"
       id="path26"
       inkscape:connector-curvature="0" />
    <path
       style="fill:#d177a4"
       d="m 38,319.37734 c -5.10745,-0.9661 -12.83172,-4.59229 -15.322327,-7.19313 -8.934559,-9.32999 -9.959815,-27.25079 -2.42593,-42.40369 C 26.237718,257.74094 44.976179,242.01676 70,228.03481 c 14.55726,-8.1338 14.173578,-7.84196 13.055731,-9.93068 -0.537954,-1.00517 -8.983066,-7.40188 -18.766915,-14.21489 C 26.809349,177.79028 10.537385,161.84378 4.3852417,145.18383 3.4339435,142.60772 2.1705966,139.86787 1.5778043,139.09527 0.18456023,137.27942 0.25270888,123.85187 1.670525,120.82621 2.2700543,119.54679 4.0228607,115.20802 5.5656502,111.18449 11.577044,95.507031 28.72507,74.303265 48,58.713845 69.891651,41.00804 105.05546,22.164574 136.30289,11.39438 152.19762,5.91587 162.3352,3.5838949 182,0.88254193 190.1943,-0.24310826 210.92677,0.56063547 212.45,2.0630089 212.9725,2.578354 214.35025,3 215.51166,3 c 4.23002,0 18.05494,4.2161456 25.11757,7.660033 27.68882,13.501659 34.88595,41.547464 18.94886,73.839967 -11.03949,22.36874 -33.16821,41.98162 -57.83615,51.26068 -26.61983,10.01329 -58.53233,13.04333 -76.89187,7.30076 C 112.25971,139.12339 100,128.38952 100,121.30422 c 0,-2.99516 1.09002,-2.9108 4.07569,0.31543 8.74755,9.45237 26.54284,13.93132 45.47745,11.44636 30.5427,-4.0084 57.80003,-16.96539 76.82878,-36.521179 21.17774,-21.764303 26.66955,-46.946761 12.98837,-59.557633 -9.79038,-9.024457 -23.77877,-12.553962 -46.31331,-11.685623 -24.65173,0.949923 -47.64424,7.295347 -74.79203,20.64095 -53.217122,26.161047 -81.754733,52.917043 -86.392342,80.998835 -1.516205,9.18097 -0.02916,18.08271 4.434864,26.54796 4.218715,8.00008 17.77631,21.53733 34.420062,34.36841 7.275144,5.60859 16.553834,13.11003 20.619312,16.66986 4.065477,3.55982 7.928896,6.47241 8.585374,6.47241 0.65648,0 10.05279,-4.81348 20.88069,-10.69662 17.94622,-9.75075 20.29965,-11.34653 26.61441,-18.04626 16.34364,-17.34002 33.75581,-23.77036 41.01269,-15.14604 3.05075,3.62561 3.47253,5.22034 3.80566,14.38892 l 0.25433,7 4.20009,-0.31189 c 4.74447,-0.35232 7.89196,0.9512 8.73873,3.61912 0.31584,0.99514 -1.90368,11.62493 -4.93228,23.62176 C 197.01929,229.24264 195,239.33626 195,242.95403 c 0,15.2571 4.49261,7.6862 30.385,-51.20455 6.95237,-15.81278 13.31057,-31.32237 14.12932,-34.46576 0.81874,-3.14338 2.09965,-6.32626 2.84644,-7.07306 2.81597,-2.81596 14.98342,-4.1709 20.07414,-2.23541 3.02026,1.1483 3.29333,3.70927 1.06802,10.01646 -2.58346,7.32233 -3.48984,15.7244 -2.52063,23.36606 1.01545,8.00617 5.24493,18.64223 7.41316,18.64223 2.53451,0 24.43649,-39.74145 26.64774,-48.35268 3.61842,-14.09119 3.7832,-14.43492 7.50939,-15.66467 5.6906,-1.87807 17.15296,-1.70568 19.14659,0.28795 1.5616,1.5616 1.5115,2.18136 -0.76398,9.4503 -1.93689,6.18729 -2.41934,9.82537 -2.35772,17.7791 0.0693,8.94927 0.42103,10.81528 3.34714,17.75918 1.79832,4.26754 4.05907,8.73405 5.0239,9.92556 l 1.75424,2.1664 9.57699,-3.17567 c 30.03194,-9.95841 60.04299,-4.80058 76.47448,13.14323 2.33982,2.55517 5.88036,7.91626 7.86787,11.91353 2.96201,5.95721 3.63747,8.45562 3.74578,13.85502 0.13774,6.86682 -0.62042,9.12475 -5.55644,16.54807 C 417.8751,250.0513 409.84977,256 406.82856,256 c -2.89899,0 -2.14921,-1.52203 2.15195,-4.3684 2.21499,-1.46582 5.34099,-4.96219 7.04783,-7.88289 2.67087,-4.5703 3.02428,-6.02423 2.7343,-11.24871 -0.59993,-10.80857 -8.16417,-21.63337 -19.35137,-27.69274 -9.8621,-5.34165 -19.34027,-7.26497 -35.91127,-7.28717 -12.83108,-0.0172 -16.04097,0.30718 -22.19924,2.24328 -3.95959,1.24485 -7.45094,2.67061 -7.75856,3.16835 -0.30762,0.49775 0.11954,3.51127 0.94924,6.69673 2.95122,11.33049 1.61708,18.71826 -4.79688,26.5627 -5.29707,6.47846 -13.2653,12.00814 -22.00177,15.26848 -8.23651,3.07377 -12.5739,3.20833 -16.02075,0.49704 -8.05767,-6.33816 -0.9613,-26.49625 14.75821,-41.92251 3.06336,-3.00621 5.56975,-6.21819 5.56975,-7.13773 0,-0.91953 -1.33543,-4.53491 -2.96761,-8.03416 -1.63219,-3.49925 -4.0323,-10.3873 -5.33357,-15.30679 -1.30127,-4.91949 -2.84671,-9.10478 -3.4343,-9.30064 -0.58759,-0.19586 -4.11225,5.17917 -7.83258,11.94452 -3.72032,6.76535 -9.41237,16.43035 -12.649,21.47778 l -5.88477,9.17714 2.21258,7.28443 c 4.32465,14.23797 2.29348,25.36182 -6.17777,33.83308 C 261.92702,261.97775 247.03537,268 235.24445,268 c -4.33137,0 -5.79725,-0.46189 -7.7899,-2.45455 -1.35,-1.35 -2.45455,-2.94734 -2.45455,-3.54966 0,-2.48958 3.68712,-7.80608 13.7147,-19.7754 C 251.18438,227.33608 256,220.8101 256,218.79586 c 0,-0.80591 -1.55237,-4.65506 -3.44971,-8.55367 -3.19427,-6.56352 -4.69237,-10.93612 -7.53475,-21.99219 -1.21179,-4.71352 -3.4864,-5.62428 -4.99493,-2 -12.53214,30.10892 -31.81246,68.8768 -39.04477,78.50921 -6.33488,8.43718 -12.76576,11.17752 -17.85897,7.6101 -3.75054,-2.62699 -5.40869,-7.95994 -5.71149,-18.36931 -0.15199,-5.225 -0.30538,-9.8926 -0.34086,-10.37244 -0.10865,-1.46919 -2.9453,1.41682 -3.64925,3.71275 -1.84638,6.02191 -11.90517,24.85732 -14.94777,27.99019 -6.00633,6.18452 -15.00917,6.23341 -20.38497,0.11071 -10.19432,-11.61068 -13.55504,-32.26001 -8.96341,-55.07394 1.25735,-6.24728 1.75275,-10.8954 1.21821,-11.42994 -1.04539,-1.04539 -22.18483,10.50168 -22.9696,12.54677 -0.28064,0.73134 0.16447,3.31705 0.98913,5.74603 0.82466,2.42899 2.01177,8.15859 2.63802,12.73245 1.91239,13.96732 -1.70268,33.03761 -8.44311,44.53929 C 93.980511,299.12762 78.045658,311.85172 63,316.08426 c -2.475,0.69625 -4.974587,1.61926 -5.554638,2.05113 C 56.157716,319.0941 41.463975,320.03257 38,319.37734 Z m 27.547368,-26.25271 c 13.412994,-6.2767 26.035706,-21.74785 29.924239,-36.67693 2.517239,-9.66433 1.61715,-26.03874 -1.538537,-27.98906 -2.445824,-1.51161 -29.076171,16.69387 -39.541135,27.03175 -10.534008,10.40609 -14.800982,18.68974 -14.85535,28.8393 -0.03496,6.52582 0.114913,6.96515 3.368489,9.87446 3.209462,2.86986 3.766478,3.01576 9.6961,2.53979 4.107734,-0.32973 8.600692,-1.5858 12.946194,-3.61931 z M 248.64028,253.38491 C 256.47757,247.59651 262,239.80663 262,234.53984 c 0,-4.25936 -2.39161,-2.92463 -9.10717,5.08257 -3.51605,4.19232 -7.67702,9.14612 -9.24659,11.00843 -5.08829,6.03732 -1.86106,7.81705 4.99404,2.75407 z m -92.67443,0.64924 c 2.89338,-2.89338 6.47641,-10.42501 13.59728,-28.58183 C 176.65623,207.36631 183,187.35424 183,183.06436 c 0,-6.87208 -7.23855,-6.52115 -14.97773,0.72613 -14.01756,13.1266 -24.27624,42.39143 -21.25389,60.63074 1.75822,10.61054 4.9079,13.90249 9.19747,9.61292 z M 309.63699,238.75 C 315.74929,234.66509 320,226.9342 320,219.90247 320,214.30201 319.26757,212 317.48568,212 c -2.15107,0 -10.21087,9.72612 -13.07257,15.77526 -6.61474,13.9824 -4.84375,17.70303 5.22388,10.97474 z"
       id="path24"
       inkscape:connector-curvature="0" />
    <path
       style="fill:#cc6699"
       d="m 37,319 c -2.101691,-0.44239 -2.700966,-0.82329 -1.5,-0.9534 1.1,-0.11918 -0.382107,-0.7934 -3.293572,-1.49827 -6.269922,-1.51794 -9.492084,-4.26449 -12.961562,-11.04833 -4.966717,-9.71138 -4.130717,-23.97029 2.110681,-36 6.357594,-12.25367 29.273798,-30.74517 53.908805,-43.5 4.78028,-2.475 8.932726,-5.11587 9.227659,-5.8686 0.80458,-2.05346 -4.437858,-6.47817 -21.9595,-18.53424 C 30.164014,179.32547 15.075344,165.04248 7.0524337,149.07952 5.510101,146.01078 3.9307318,142.03357 3.5427243,140.24127 c -0.3880074,-1.7923 -1.0695085,-3.03373 -1.5144468,-2.75875 -0.4449383,0.27499 -1.10770324,-1.09236 -1.47281095,-3.03855 -0.78293384,-4.1734 0.35600193,-13.20525 1.44335005,-11.44588 0.4430835,0.71692 1.0277858,-0.32636 1.452895,-2.59238 C 6.637871,103.42202 25.166047,78.177994 48,59.710145 80.747203,33.22457 140.07399,6.4104699 172.65887,3.3677186 177.99841,2.8691159 179.70241,2.4307922 178,1.9938098 c -1.59814,-0.4102157 0.82306,-0.9115913 6.71163,-1.38983079 9.85751,-0.80057624 27.17673,0.20744894 23.81642,1.38617999 -1.2767,0.4478443 0.38457,0.9296049 4.7467,1.3765184 8.18307,0.83838 23.24953,5.6422175 30.24023,9.6418926 C 259.50717,22.158372 267,34.88442 267,52.89621 c 0,10.126507 -2.24277,18.694017 -8.01135,30.60379 -10.07189,20.79438 -28.37351,38.40416 -50.36463,48.46076 -18.93175,8.65754 -39.51401,13.05517 -60.94638,13.02188 -19.20166,-0.0298 -30.18337,-3.61892 -40.27446,-13.16266 -5.02217,-4.74975 -8.179007,-10.22246 -6.49648,-11.26232 0.43299,-0.2676 2.09361,0.88942 3.69028,2.57114 13.07332,13.76984 44.92956,14.9058 77.40302,2.76011 12.55905,-4.69732 23.60837,-10.91508 34.631,-19.48782 C 242.82354,86.030101 254.64483,56.953691 243.52865,40.241879 237.52744,31.219797 222.5854,25.281142 203.39351,24.290322 176.91796,22.923468 147.57472,30.415883 114.00276,47.115091 87.153671,60.470235 69.120569,72.703169 53.874793,87.90349 c -14.403375,14.36043 -20.5397,24.97941 -22.872271,39.58072 -3.234436,20.24677 6.237256,35.09343 38.461936,60.28822 8.819548,6.89554 18.809093,15.16765 22.198988,18.38246 C 95.053342,209.3697 98.56872,212 99.475398,212 c 0.906682,0 10.733132,-4.97639 21.836552,-11.05864 17.5622,-9.62024 20.88857,-11.83741 25.57378,-17.04599 14.82341,-16.4793 32.09826,-23.98694 39.96403,-17.36834 3.51073,2.95409 4.49147,6.37199 4.58329,15.97297 l 0.0669,7 4.72673,-0.29764 c 5.37104,-0.3382 8.77327,1.05862 8.77327,3.60197 0,0.95367 -2.475,11.51543 -5.5,23.47057 -5.96185,23.56192 -6.99298,32.93821 -3.75876,34.1793 2.49452,0.95723 4.69933,-2.11931 10.93111,-15.25299 10.90814,-22.98925 32.26478,-72.07065 33.42131,-76.80816 1.73229,-7.09602 2.5128,-8.18971 6.66811,-9.34372 5.15112,-1.43056 14.49552,-1.3129 16.57648,0.20873 1.61773,1.18292 1.59358,1.61598 -0.40444,7.25 -4.24319,11.96499 -3.63344,29.16176 1.40027,39.49194 3.34638,6.86744 5.12967,6.16364 11.40217,-4.5 9.75472,-16.58365 19.12902,-36.03158 21.25037,-44.08604 1.22145,-4.6377 2.90358,-8.60612 4.06325,-9.58591 2.43863,-2.06035 13.74805,-3.40073 17.62483,-2.08887 3.45061,1.16765 3.48632,2.58181 0.35895,14.21406 -3.57201,13.28611 -1.59616,26.23516 5.95033,38.99656 3.16478,5.35174 3.96911,5.43964 14.89233,1.62749 13.64174,-4.7609 30.91747,-5.95055 44.62369,-3.07289 18.57195,3.89923 34.14934,16.75859 38.849,32.0704 0.83143,2.70886 1.5891,4.2502 1.68371,3.4252 0.0946,-0.825 0.57275,0.075 1.06254,2 1.00355,3.94417 0.11007,13.95025 -1.07451,12.03355 -0.49228,-0.79652 -0.99895,-0.2306 -1.45166,1.62143 -1.09804,4.49207 -5.43235,10.06598 -10.37121,13.33734 -6.10224,4.04196 -8.44815,3.84271 -3.06835,-0.2606 2.47503,-1.88777 5.50529,-5.58374 7.17395,-8.75 2.46092,-4.66954 2.81784,-6.29861 2.40901,-10.99527 C 418.33181,216.12542 405.17282,203.74832 384,198.39596 c -10.78581,-2.72659 -32.70895,-2.48373 -42.45126,0.47027 -9.57071,2.90197 -10.09426,3.55771 -8.12768,10.17992 2.15226,7.24743 1.98411,15.46425 -0.42509,20.77299 -4.61731,10.17439 -22.35749,22.14539 -34.0738,22.99287 -5.152,0.37266 -5.78067,0.18334 -7.76404,-2.33812 -5.91297,-7.51711 1.50217,-25.94532 16.27212,-40.43973 3.06336,-3.00621 5.56975,-6.00176 5.56975,-6.65678 0,-0.65502 -1.39433,-4.27039 -3.09852,-8.03416 -1.70418,-3.76377 -4.11046,-10.802 -5.34728,-15.6405 -2.25824,-8.83439 -3.58422,-11.42023 -5.30937,-10.35403 -0.51119,0.31593 -3.9566,6.0369 -7.65647,12.71327 -3.69987,6.67637 -9.4141,16.32864 -12.69829,21.44949 l -5.97126,9.31064 1.97688,5.86827 c 7.23695,21.48255 0.18637,35.94327 -21.89569,44.90797 -8.73046,3.54432 -22.07189,4.55157 -25.0145,1.88854 -3.86116,-3.49429 -2.39913,-6.36205 11.92728,-23.39537 C 250.70408,229.26124 257,220.82289 257,219.1897 c 0,-0.58929 -1.76373,-4.81853 -3.91941,-9.3983 -2.15567,-4.57978 -4.88625,-12.14389 -6.06795,-16.80913 -2.1828,-8.61753 -4.21968,-12.21833 -5.90529,-10.43941 -0.49882,0.52643 -3.72727,7.70714 -7.17434,15.95714 -6.27774,15.02474 -22.29194,47.35773 -29.43475,59.42931 -2.09234,3.53612 -5.74856,8.37362 -8.12494,10.75 -3.63717,3.63717 -4.94616,4.32069 -8.27442,4.32069 -3.05127,0 -4.41352,-0.58451 -5.96804,-2.56076 -2.72882,-3.46915 -4.3962,-12.1868 -3.97709,-20.79373 0.30025,-6.16612 0.11132,-7.15615 -1.42264,-7.45491 -1.25939,-0.24529 -2.21773,0.75774 -3.32729,3.48244 -0.85713,2.10483 -4.00677,8.84444 -6.9992,14.97692 -6.68922,13.70843 -11.16675,18.35783 -17.65752,18.3353 -5.83303,-0.0202 -8.69613,-1.70536 -12.48231,-7.34663 -8.28246,-12.34056 -10.55758,-30.92533 -6.30925,-51.5385 2.28298,-11.07717 2.13362,-13.72394 -0.71399,-12.65212 -3.4809,1.31018 -21.14261,11.72782 -22.35058,13.18334 -0.99562,1.19965 -0.91809,2.42064 0.39254,6.18178 5.6031,16.07936 4.42094,35.95321 -3.11829,52.42261 -8.198605,17.90982 -26.835385,33.21571 -45.332984,37.23079 C 55.349515,317.22249 53.4,317.92852 54.5,318.0355 c 3.165447,0.30784 -5.562945,1.85733 -10,1.77523 C 42.3,319.77002 38.925,319.40519 37,319 Z m 21.649811,-22.39493 c 23.009916,-6.12662 40.99657,-32.19205 38.998448,-56.51474 -1.106018,-13.46331 -2.219329,-14.68466 -9.528605,-10.45322 -21.166377,12.25351 -40.650776,29.22199 -45.504002,39.62831 -4.223513,9.05609 -5.247075,15.7927 -3.209997,21.12671 2.717328,7.11523 8.655375,9.03231 19.244156,6.21294 z M 156.46461,254.6263 c 3.17992,-3.17992 6.20004,-9.35174 12.93212,-26.42771 10.03648,-25.45758 15.31873,-43.21183 14.19202,-47.70102 -1.45344,-5.79097 -10.43228,-3.57951 -17.90563,4.41011 -13.50914,14.44236 -22.48028,41.50215 -19.70001,59.42143 1.13724,7.32966 1.41079,8.1109 3.82398,10.92089 2.0347,2.36926 3.83303,2.20079 6.65752,-0.6237 z m 91.24788,0.40747 c 8.0054,-4.88113 15.21396,-14.9037 15.26555,-21.22475 0.0347,-4.2519 -1.98208,-4.48569 -5.38883,-0.62467 C 243.71143,248.91263 240,253.54797 240,255.15215 c 0,2.47237 3.55292,2.41784 7.71249,-0.11838 z M 308,240.89127 c 8.1082,-4.86783 11.91026,-10.81007 12.7348,-19.90318 C 321.30917,214.65376 319.96119,211 317.04988,211 312.78584,211 300,231.66381 300,238.55512 c 0,5.13703 2.24344,5.79215 8,2.33615 z"
       id="path22"
       inkscape:connector-curvature="0" />
  </g>
</svg>
