<?xml version="1.0" encoding="UTF-8" standalone="no"?>
<!-- Created with Inkscape (http://www.inkscape.org/) -->

<svg
   xmlns:dc="http://purl.org/dc/elements/1.1/"
   xmlns:cc="http://creativecommons.org/ns#"
   xmlns:rdf="http://www.w3.org/1999/02/22-rdf-syntax-ns#"
   xmlns:svg="http://www.w3.org/2000/svg"
   xmlns="http://www.w3.org/2000/svg"
   xmlns:sodipodi="http://sodipodi.sourceforge.net/DTD/sodipodi-0.dtd"
   xmlns:inkscape="http://www.inkscape.org/namespaces/inkscape"
   version="1.1"
   id="svg3713"
   width="192"
   height="192"
   viewBox="0 0 192 192"
   sodipodi:docname="sun-icon.svg"
   inkscape:version="0.92.4 (5da689c313, 2019-01-14)">
  <metadata
     id="metadata3719">
    <rdf:RDF>
      <cc:Work
         rdf:about="">
        <dc:format>image/svg+xml</dc:format>
        <dc:type
           rdf:resource="http://purl.org/dc/dcmitype/StillImage" />
        <dc:title></dc:title>
      </cc:Work>
    </rdf:RDF>
  </metadata>
  <defs
     id="defs3717" />
  <sodipodi:namedview
     pagecolor="#ffffff"
     bordercolor="#666666"
     borderopacity="1"
     objecttolerance="10"
     gridtolerance="10"
     guidetolerance="10"
     inkscape:pageopacity="0"
     inkscape:pageshadow="2"
     inkscape:window-width="1920"
     inkscape:window-height="1017"
     id="namedview3715"
     showgrid="false"
     inkscape:zoom="4.2604167"
     inkscape:cx="96"
     inkscape:cy="96"
     inkscape:window-x="-8"
     inkscape:window-y="-8"
     inkscape:window-maximized="1"
     inkscape:current-layer="svg3713" />
  <g
     id="g3765"
     transform="translate(1.173591,-0.23471879)">
    <path
       style="fill:#efd3a5;stroke-width:0.95999998"
       d="M 91.636363,186.76363 C 89.336061,184.46334 89.28,184.05118 89.28,169.44 c 0,-14.61118 0.05606,-15.02334 2.356363,-17.32363 C 92.932363,150.82037 94.896,149.76 96,149.76 c 1.104,0 3.067632,1.06037 4.36363,2.35637 2.30031,2.30029 2.35637,2.71245 2.35637,17.32363 0,14.61118 -0.0561,15.02334 -2.35637,17.32363 C 99.067632,188.05963 97.104,189.12 96,189.12 c -1.104,0 -3.067637,-1.06037 -4.363637,-2.35637 z M 28.053606,160.74557 C 26.512285,159.66598 25.92,158.27964 25.92,155.75152 c 0,-3.17963 0.991648,-4.49125 10.845957,-14.34556 11.597143,-11.59714 13.629033,-12.62118 18.007691,-9.07556 1.468811,1.18938 2.186352,2.80111 2.186352,4.91098 0,2.73187 -1.436817,4.56282 -11.040979,14.0696 -11.608465,11.49075 -13.502102,12.49077 -17.865415,9.43459 z m 116.735404,-9.06815 c -5.44995,-5.80941 -10.31028,-11.62401 -10.80073,-12.92131 -1.87139,-4.95017 3.38733,-10.16721 8.3475,-8.28136 1.19669,0.45498 6.59669,5.6306 12,11.50139 7.89562,8.57869 9.82422,11.23852 9.82422,13.54901 0,3.66077 -3.02503,6.71485 -6.65099,6.71485 -2.33726,0 -4.48091,-1.78007 -12.72,-10.56258 z M 84,145.88395 C 60.104148,140.1371 43.2,119.27045 43.2,95.52 43.2,69.715949 63.542178,47.178658 89.259082,44.490709 L 94.959281,43.89492 92.119641,41.242299 89.28,38.589677 V 23.571203 c 0,-14.6655421 0.05537,-15.0738502 2.356363,-17.3748393 2.990028,-2.9900269 5.737243,-2.9900269 8.727267,0 2.301,2.3009891 2.35637,2.7092972 2.35637,17.3748393 v 15.018474 l -2.866934,2.678119 -2.866935,2.678118 4.546939,0.670289 C 126.66552,48.32111 145.92,70.402524 145.92,95.52 c 0,21.26301 -14.58255,41.68395 -34.66566,48.54468 -6.93739,2.36993 -21.048119,3.31184 -27.25434,1.81927 z M 4.3487881,99.871814 c -2.1863105,-2.415849 -2.1863105,-6.287779 0,-8.703625 C 5.9179535,89.434282 7.3667451,89.28 22.08,89.28 c 14.713255,0 16.162046,0.154282 17.731212,1.888189 2.18631,2.415846 2.18631,6.287776 0,8.703625 C 38.242046,101.60572 36.793255,101.76 22.08,101.76 7.3667451,101.76 5.9179535,101.60572 4.3487881,99.871814 Z m 145.9200019,0 C 149.32895,98.833306 148.56,96.874992 148.56,95.52 c 0,-1.354991 0.76895,-3.313307 1.70879,-4.351811 C 151.83795,89.434282 153.28674,89.28 168,89.28 c 14.71326,0 16.16205,0.154282 17.73121,1.888189 2.18631,2.415846 2.18631,6.287776 0,8.703625 C 184.16205,101.60572 182.71326,101.76 168,101.76 c -14.71326,0 -16.16205,-0.15428 -17.73121,-1.888186 z M 137.58276,58.544352 c -1.15348,-0.459828 -2.55748,-1.696019 -3.12,-2.74709 -2.36367,-4.416541 -2.14179,-4.764362 15.9454,-24.997262 4.50246,-5.036591 8.94886,-5.798716 11.98144,-2.053648 3.63855,4.49342 1.76033,7.859828 -13.25527,23.757951 -5.90917,6.256463 -8.11519,7.409941 -11.55157,6.040049 z M 47.218273,56.963598 C 45.381301,56.199606 27.80918,35.436297 26.790509,32.826046 c -1.838528,-4.711055 3.520264,-9.999391 8.523493,-8.411428 2.718666,0.862872 20.303649,22.073637 20.940567,25.258226 0.903521,4.517606 -4.745402,9.075326 -9.036296,7.290754 z"
       id="path3773"
       inkscape:connector-curvature="0" />
    <path
       style="fill:#e3b25f;stroke-width:0.95999998"
       d="m 92.16,186.24 c -1.754839,-1.75484 -1.92,-3.2 -1.92,-16.8 0,-13.6 0.165161,-15.04516 1.92,-16.8 1.056,-1.056 2.784,-1.92 3.84,-1.92 1.056,0 2.784,0.864 3.84,1.92 1.75484,1.75484 1.92,3.2 1.92,16.8 0,13.6 -0.16516,15.04516 -1.92,16.8 -1.056,1.056 -2.784,1.92 -3.84,1.92 -1.056,0 -2.784,-0.864 -3.84,-1.92 z M 29.013606,159.78557 c -4.416017,-3.0931 -3.008164,-5.90892 8.758988,-17.51868 C 43.76352,136.35611 49.283397,131.52 50.038987,131.52 c 2.69396,0 5.641013,2.94002 5.641013,5.62754 0,2.09175 -2.257717,4.86619 -10.892594,13.38557 C 38.79648,156.44389 33.276603,161.28 32.521013,161.28 c -0.755591,0 -2.333923,-0.6725 -3.507407,-1.49443 z m 118.084674,-7.25491 c -4.60805,-4.81214 -9.44233,-10.24455 -10.74285,-12.07201 -2.20056,-3.09222 -2.26504,-3.50079 -0.92971,-5.89066 1.79695,-3.21607 6.02088,-3.9081 8.78881,-1.43995 1.08062,0.96358 5.79441,5.95518 10.47511,11.09244 8.91783,9.78771 10.08374,12.45805 6.75477,15.47073 -3.38854,3.06659 -5.61861,1.95349 -14.34613,-7.16055 z m -63.842139,-8.0524 C 70.696199,141.29607 60.428441,134.38534 53.666978,124.56322 31.142088,91.842142 52.03272,48.346861 91.68,45.41831 c 16.66148,-1.230702 34.25628,7.233865 43.77302,21.058477 22.8067,33.130432 1.10447,77.145453 -38.97302,79.042533 -4.763411,0.22548 -9.78536,-0.16988 -13.223859,-1.04106 z M 5.3485715,99.291427 C 3.3255309,97.26839 3.4410449,93.778625 5.5955911,91.828788 8.1373894,89.528492 36.522798,89.459941 38.811428,91.748571 c 2.023041,2.02304 1.907527,5.512801 -0.247019,7.462638 -2.541798,2.300291 -30.9272072,2.368851 -33.2158375,0.08026 z M 151.34879,99.04441 c -2.00229,-2.212512 -2.03667,-5.339384 -0.0803,-7.295838 1.24395,-1.243911 4.16521,-1.508572 16.65125,-1.508572 13.45075,0 15.32016,0.196152 16.73143,1.755591 2.00229,2.212507 2.03667,5.339385 0.0803,7.295836 -1.24391,1.243913 -4.16518,1.508573 -16.65121,1.508573 -13.45076,0 -15.32016,-0.19616 -16.73143,-1.75559 z M 135.72595,55.160675 c -2.20347,-3.362919 -1.40042,-4.776512 9.66598,-17.014936 C 153.15674,29.558573 155.17475,27.84 157.49324,27.84 c 3.80763,0 6.43942,3.868379 4.9122,7.220277 -0.5868,1.287895 -5.21967,6.886198 -10.29525,12.440675 C 144.45817,55.874958 142.40721,57.6 140.10306,57.6 c -1.91666,0 -3.27468,-0.75682 -4.37711,-2.439325 z M 46.487948,54.9453 c -0.567629,-0.387915 -4.995629,-5.419312 -9.84,-11.180881 C 30.111059,35.989882 27.84,32.592074 27.84,30.586549 c 0,-3.269368 3.689922,-6.108259 6.69831,-5.153433 2.106159,0.668469 19.400158,20.807763 20.525238,23.902153 0.999881,2.750045 -1.799526,6.347585 -4.925679,6.330031 -1.439828,-0.0081 -3.082292,-0.332086 -3.649921,-0.72 z M 92.16,40.32 c -1.754839,-1.754839 -1.92,-3.2 -1.92,-16.8 0,-13.6000003 0.165161,-15.0451613 1.92,-16.8 2.444405,-2.4444049 5.23559,-2.4444049 7.68,0 1.75484,1.7548387 1.92,3.1999997 1.92,16.8 0,13.6 -0.16516,15.045161 -1.92,16.8 -1.056,1.056 -2.784,1.92 -3.84,1.92 -1.056,0 -2.784,-0.864 -3.84,-1.92 z"
       id="path3771"
       inkscape:connector-curvature="0" />
    <path
       style="fill:#db992c;stroke-width:0.95999998"
       d="M 92.788788,185.44441 C 91.458882,183.97488 91.2,181.33989 91.2,169.2732 c 0,-12.74643 0.203281,-14.59959 1.755591,-16.00441 2.281808,-2.06501 4.284182,-2.01162 6.255619,0.1668 1.32991,1.46953 1.58879,4.10452 1.58879,16.17121 0,12.74643 -0.20328,14.59959 -1.75559,16.00441 -2.281805,2.06501 -4.28418,2.01162 -6.255622,-0.1668 z M 29.52,159.2831 c -0.957364,-0.55761 -1.68,-2.11734 -1.68,-3.62611 0,-2.0968 2.16705,-4.78306 10.416535,-12.9123 5.729094,-5.64558 10.941494,-10.26469 11.583112,-10.26469 2.697942,0 4.880353,2.079 4.880353,4.64909 0,2.1145 -2.140892,4.77121 -10.416535,12.92622 -5.729094,5.64558 -11.021094,10.25156 -11.76,10.2355 C 31.804559,160.27476 30.444,159.82129 29.52,159.2831 Z M 146.85837,150.96 c -11.39563,-12.08521 -12.07006,-13.10169 -10.69513,-16.11932 0.78165,-1.71555 1.83443,-2.36068 3.85229,-2.36068 2.30502,0 4.42849,1.7947 12.50058,10.56515 9.68817,10.52632 11.24332,13.45142 8.57189,16.12285 -2.71004,2.71004 -5.39488,1.16136 -14.22963,-8.208 z m -63.602229,-7.50314 c -16.360509,-3.96388 -29.708765,-16.10945 -35.391282,-32.20252 -3.057427,-8.65873 -3.057427,-22.809951 0,-31.46868 8.492317,-24.050508 33.325134,-37.960837 57.565951,-32.246093 16.75271,3.94943 30.06323,15.930447 35.82433,32.246093 3.05743,8.658729 3.05743,22.80995 0,31.46868 -8.52056,24.13049 -33.67367,38.09613 -57.998999,32.20252 z M 5.952,98.688 c -1.4808006,-1.4808 -1.4808006,-4.855199 0,-6.336 1.6127112,-1.612711 30.643289,-1.612711 32.256,0 1.480801,1.480801 1.480801,4.8552 0,6.336 -1.612711,1.61271 -30.6432888,1.61271 -32.256,0 z m 145.92,0 c -0.6336,-0.6336 -1.152,-2.0592 -1.152,-3.168 0,-3.9284 1.5664,-4.32 17.28,-4.32 10.368,0 15.33046,0.354462 16.128,1.152 1.4808,1.480801 1.4808,4.8552 0,6.336 -1.61271,1.61271 -30.64329,1.61271 -32.256,0 z M 136.19307,54.344793 c -1.34975,-2.962374 -1.13613,-3.302562 9.67281,-15.404201 C 153.33455,30.578709 155.40017,28.8 157.6422,28.8 c 1.95654,0 3.02057,0.661954 3.79456,2.360675 1.35005,2.963031 0.8252,3.79378 -10.18377,16.119325 -6.99213,7.828322 -8.8228,9.36 -11.18718,9.36 -2.04941,0 -3.11461,-0.631294 -3.87274,-2.295207 z M 41.564942,48.2349 C 30.652667,35.518288 28.8,32.931947 28.8,30.414904 c 0,-2.834888 2.913519,-4.918342 5.659212,-4.046893 1.885294,0.598369 18.497667,20.018263 19.590674,22.901533 1.057823,2.790454 -0.952249,5.450456 -4.11872,5.450456 -2.269399,0 -3.857905,-1.231335 -8.366224,-6.4851 z M 92.788788,39.524409 C 91.458882,38.054879 91.2,35.419892 91.2,23.353197 91.2,10.60677 91.403281,8.7536094 92.955591,7.3487881 95.237399,5.2837804 97.239773,5.3371726 99.21121,7.5155911 100.54112,8.9851207 100.8,11.620108 100.8,23.686803 c 0,12.746427 -0.20328,14.599588 -1.75559,16.004409 -2.281805,2.065008 -4.28418,2.011615 -6.255622,-0.166803 z"
       id="path3769"
       inkscape:connector-curvature="0" />
    <path
       style="fill:#d88f15;stroke-width:0.95999998"
       d="m 93.211946,184.91078 c -0.7519,-0.90598 -1.018579,-5.99306 -0.837547,-15.97677 0.230794,-12.72802 0.485764,-14.78626 1.945601,-15.70588 1.224041,-0.77108 2.135962,-0.77108 3.36,0 1.459834,0.91962 1.71481,2.97786 1.945603,15.70588 C 99.900077,184.07088 99.445642,186.24 96,186.24 c -0.926699,0 -2.181323,-0.59815 -2.788054,-1.32922 z M 29.952,158.208 c -2.295006,-2.295 -1.025611,-4.8593 5.808,-11.7327 10.967016,-11.03088 13.82766,-13.27016 16.050924,-12.56453 1.334644,0.4236 1.949076,1.44865 1.949076,3.25162 0,2.07136 -2.120455,4.71965 -9.94083,12.41531 -5.467455,5.38027 -10.565055,9.7823 -11.328,9.7823 -0.762943,0 -1.90557,-0.5184 -2.53917,-1.152 z m 116.09189,-9.41315 c -5.34814,-5.81082 -9.72389,-10.95949 -9.72389,-11.44148 0,-2.33709 1.38205,-3.91337 3.43117,-3.91337 2.12134,0 11.34386,8.68043 19.01639,17.89859 3.80261,4.56865 3.0441,8.02141 -1.76219,8.02141 -0.68068,0 -5.61335,-4.75431 -10.96148,-10.56515 z M 83.351363,142.57989 C 55.277092,135.45411 39.724217,107.0864 48.923812,79.78566 53.662142,65.72418 64.503477,54.840666 78.799607,49.793635 c 8.698021,-3.070704 22.822763,-3.070704 31.520793,0 14.23759,5.026371 24.9408,15.735739 29.97474,29.992025 3.05743,8.658729 3.05743,22.80995 0,31.46868 -6.7659,19.16124 -23.35291,31.40944 -43.81514,32.354 -4.696637,0.21681 -9.796571,-0.18271 -13.128637,-1.02845 z M 6.137844,97.519958 C 5.8407202,96.745661 5.7480708,95.330919 5.9319566,94.376076 6.2383642,92.78503 7.5884561,92.64 22.093147,92.64 H 37.92 v 2.88 2.88 L 22.299035,98.663885 C 9.2874669,98.883686 6.5878275,98.692589 6.137844,97.519958 Z m 145.920006,0 c -0.29713,-0.774297 -0.38978,-2.189039 -0.20589,-3.143882 C 152.15837,92.78503 153.50845,92.64 168.01315,92.64 H 183.84 v 2.88 2.88 l -15.62097,0.263885 c -13.01157,0.219801 -15.7112,0.0287 -16.16118,-1.143927 z M 137.472,54.528 c -0.6336,-0.6336 -1.152,-1.726533 -1.152,-2.42874 0,-0.702207 4.35114,-6.015807 9.66921,-11.808 6.9772,-7.59924 10.28954,-10.53126 11.8973,-10.53126 2.0277,0 3.39349,1.588723 3.39349,3.947404 0,0.910811 -15.33473,18.50931 -18.10053,20.772596 -1.85252,1.515934 -4.21963,1.535842 -5.70747,0.048 z M 38.554753,43.23093 C 29.805007,32.755743 28.508426,30.073808 31.138635,27.890929 c 2.131281,-1.768807 4.309835,-0.09871 12.740955,9.767326 9.15084,10.708246 10.019366,12.128326 8.805233,14.396955 -2.082853,3.891848 -5.063125,2.030656 -14.13007,-8.82428 z M 93.211946,38.990788 C 92.460046,38.084804 92.193367,32.99771 92.374399,23.014009 92.605193,10.285991 92.860163,8.2277516 94.32,7.3081313 c 1.224041,-0.7710811 2.135962,-0.7710811 3.36,0 1.459834,0.9196203 1.71481,2.9778597 1.945603,15.7058777 C 99.900077,38.15088 99.445642,40.32 96,40.32 c -0.926699,0 -2.181323,-0.598145 -2.788054,-1.329212 z"
       id="path3767"
       inkscape:connector-curvature="0" />
  </g>
  <path
     style="fill:#000000;stroke-width:0.95999998"
     d=""
     id="path3725"
     inkscape:connector-curvature="0" />
  <path
     style="fill:#000000;stroke-width:0.95999998"
     d=""
     id="path3723"
     inkscape:connector-curvature="0" />
</svg>
